<svg version="1.1" id="Layer_1" xmlns="http://www.w3.org/2000/svg" x="0" y="0" viewBox="0 0 171.3 150.5" xml:space="preserve"><path class="st0" d="M171.3 150.1v-4.7h-13.8v-18.2h-5.2v22.9h19zm-69.7 0h19.7v-4.5h-14.5v-4.9h13v-4.2h-13v-4.7h14.4v-4.5h-19.6v22.8zm-42.9-11.5v-7.1h7.5c.9 0 1.7.1 2.5.4.5.2 1 .6 1.3 1.2.3.6.4 1.3.4 1.9.1 1-.3 2-1 2.8-.9.6-2.1.9-3.2.8h-7.5zm-5.2-11.4v22.9h5.2V143h7.8c3 0 5.3-.6 6.8-1.9s2.2-3.2 2.2-6c.1-1.6-.3-3.3-1-4.7-.7-1.2-1.7-2-3-2.5a14 14 0 0 0-5-.7h-13zM8.7 145.1c-1.1-.5-2-1.3-2.4-2.4a9.6 9.6 0 0 1-.7-4.1c-.1-1.4.2-2.8.7-4.1a5 5 0 0 1 2.4-2.4c1.5-.6 3.1-.9 4.7-.8 1.6-.1 3.2.2 4.7.8 1.1.4 1.9 1.3 2.4 2.4.5 1.3.8 2.7.7 4.1.1 1.4-.2 2.8-.7 4.1a4.5 4.5 0 0 1-2.4 2.3c-1.5.6-3.1.8-4.7.8-1.7.1-3.3-.1-4.7-.7m12.1 4.1a9.3 9.3 0 0 0 4.4-3.9 16 16 0 0 0 0-13.2 9 9 0 0 0-4.4-4c-2.4-.9-4.9-1.4-7.5-1.3-2.6-.1-5.1.4-7.5 1.3a9 9 0 0 0-4.4 4 16 16 0 0 0 0 13.2c1 1.8 2.5 3.2 4.4 3.9 2.4 1 5 1.4 7.5 1.3 2.6.1 5.2-.4 7.5-1.3M150.3 56.9l-12.5-.8-1.5-.1.2-4.2A51.8 51.8 0 0 0 34.2 40.2H22.7a2 2 0 0 0-1.6.8l-2.9 4c-.4.4-.3 1 .1 1.4.2.2.4.3.7.2l12.5.8 1.6.1a51.8 51.8 0 0 0 102.1 15.7h11.4a2 2 0 0 0 1.6-.8l2.9-4c.3-.4.3-1.1-.2-1.4l-.6-.1zM84.7 6a45.8 45.8 0 0 1 45.6 49.6L92 53.2l16.6-11.4c.2-.2.4-.4.4-.7 0-.5-.4-.9-.9-.9H40.3A46 46 0 0 1 84.7 6zm0 91.6a45.8 45.8 0 0 1-45.6-49.7l38.3 2.4-16.6 11.5c-.2.2-.4.4-.4.7 0 .5.4.9.9.9H129a45.9 45.9 0 0 1-44.3 34.2z"/></svg>