<?xml version="1.0" encoding="utf-8"?>
<!-- Generator: Adobe Illustrator 27.0.1, SVG Export Plug-In . SVG Version: 6.00 Build 0)  -->
<svg version="1.1" id="Layer_1" xmlns="http://www.w3.org/2000/svg" xmlns:xlink="http://www.w3.org/1999/xlink" x="0px" y="0px"
	 viewBox="0 0 171.3 150.5" style="enable-background:new 0 0 171.3 150.5;" xml:space="preserve">
<style type="text/css">
	.st0{fill:#1D1D1B;}
</style>
<path class="st0" d="M171.3,150.1v-4.7h-13.8v-18.2h-5.2v22.9L171.3,150.1z M101.6,150.1h19.7v-4.5h-14.5v-4.9h13v-4.2h-13v-4.7
	h14.4v-4.5h-19.6V150.1z M58.7,138.6v-7.1h7.5c0.9,0,1.7,0.1,2.5,0.4c0.5,0.2,1,0.6,1.3,1.2c0.3,0.6,0.4,1.3,0.4,1.9
	c0.1,1-0.3,2-1,2.8c-0.9,0.6-2.1,0.9-3.2,0.8L58.7,138.6z M53.5,127.2v22.9h5.2V143h7.8c3,0,5.3-0.6,6.8-1.9s2.2-3.2,2.2-6
	c0.1-1.6-0.3-3.3-1-4.7c-0.7-1.2-1.7-2-3-2.5c-1.6-0.5-3.3-0.8-5-0.7L53.5,127.2z M8.7,145.1c-1.1-0.5-2-1.3-2.4-2.4
	c-0.5-1.3-0.8-2.7-0.7-4.1c-0.1-1.4,0.2-2.8,0.7-4.1c0.5-1.1,1.4-1.9,2.4-2.4c1.5-0.6,3.1-0.9,4.7-0.8c1.6-0.1,3.2,0.2,4.7,0.8
	c1.1,0.4,1.9,1.3,2.4,2.4c0.5,1.3,0.8,2.7,0.7,4.1c0.1,1.4-0.2,2.8-0.7,4.1c-0.5,1.1-1.4,1.9-2.4,2.3c-1.5,0.6-3.1,0.8-4.7,0.8
	C11.7,145.9,10.1,145.7,8.7,145.1 M20.8,149.2c1.9-0.8,3.4-2.2,4.4-3.9c1.9-4.2,1.9-9,0-13.2c-1-1.8-2.5-3.2-4.4-4
	c-2.4-0.9-4.9-1.4-7.5-1.3c-2.6-0.1-5.1,0.4-7.5,1.3c-1.9,0.8-3.4,2.2-4.4,4c-1.9,4.2-1.9,9,0,13.2c1,1.8,2.5,3.2,4.4,3.9
	c2.4,1,5,1.4,7.5,1.3C15.9,150.6,18.5,150.1,20.8,149.2"/>
<path class="st0" d="M150.3,56.9l-12.5-0.8l-1.5-0.1c0.1-1.4,0.2-2.8,0.2-4.2C136.4,23.2,113.2,0,84.6,0c-24.1,0-45,16.7-50.4,40.2
	H22.7c-0.6,0-1.2,0.3-1.6,0.8l-2.9,4c-0.4,0.4-0.3,1,0.1,1.4c0.2,0.2,0.4,0.3,0.7,0.2l12.5,0.8l1.6,0.1c-0.1,1.4-0.2,2.8-0.2,4.2
	c0,28.6,23.2,51.8,51.8,51.8c24.2,0,45.1-16.7,50.5-40.3h11.4c0.6,0,1.2-0.3,1.6-0.8l2.9-4c0.3-0.4,0.3-1.1-0.2-1.4
	C150.8,57,150.6,57,150.3,56.9L150.3,56.9z M84.7,6c25.3,0,45.8,20.5,45.8,45.8c0,1.3-0.1,2.6-0.2,3.8l0,0L92,53.2l16.6-11.4
	c0.2-0.2,0.4-0.4,0.4-0.7c0-0.5-0.4-0.9-0.9-0.9H40.3C45.6,20.1,63.8,6,84.7,6z M84.7,97.6c-25.3,0-45.8-20.5-45.8-45.8
	c0-1.3,0.1-2.6,0.2-3.9l38.3,2.4L60.8,61.8c-0.2,0.2-0.4,0.4-0.4,0.7c0,0.5,0.4,0.9,0.9,0.9H129C123.7,83.5,105.5,97.6,84.7,97.6z"
	/>
</svg>
