<?xml version="1.0" encoding="UTF-8"?><svg id="Layer_1" xmlns="http://www.w3.org/2000/svg" viewBox="0 0 955 558"><g><path d="M808.66,432.73v89.18c.89,21.32,13.53,33.18,35.18,34.02,24.72,.98,50.01,1.06,76.88-.04,20.56-.84,32.57-13.62,33.67-34.07v-89.1h-32.46v82.05c-.16,7.56-4.78,10.66-10.79,11.22-19.36,1.49-40.15,1.49-60.24,0-5.45-.48-9.75-5.71-9.98-11.48v-81.79h-32.26Z"/><path d="M38.53,432.7c-16.8,.96-34.68,9.84-37.12,30.58-.53,4.42-.53,7.25-.1,10.77,2.63,22.8,19.3,28.33,32.61,29.47,13.75,1.2,69.86,4.21,76.71,4.75,9.2,.76,10.5,4.39,10.5,9.3,0,5.51-2.55,8.74-10.5,9.2-17.29,1.04-49.78,.72-66.08,.19-5.75-.2-9.89-1.72-10.1-8.64l-.08-5.95H1.85s-.06,2.84-.04,3.6c.15,25.59,8.87,37.44,33.25,39.35,23.55,1.81,59.13,1.55,85.47-.13,23.05-1.47,31.53-17.42,32.38-35.76,.07-.98,0-2.81,0-4.34-.72-21.7-13.34-32.3-30.69-33.94-11.22-.98-71.19-3.71-79.61-4.44-6.43-.57-9.04-3.82-9.04-9.18,0-4.34,2.73-7.74,8.49-8.16,19.21-1.28,52.46-1.01,65.59-.23,6.46,.42,9.03,3.6,9.37,7.35v5.69h32.52v-5.06c-.6-24.44-12.4-33.76-34.85-34.68-24.4-.96-50.89-1.24-76.16,.25Z"/><path d="M328.1,556.36h107.76c25.26-.67,36.54-13.99,36.54-37.91,0-16.82-8.04-25.91-14.11-27.74,5.05-2.21,10.88-9.63,10.88-24.1,0-21.69-13.76-33.07-34.17-33.87-20.96-.03-106.9,0-106.9,0v123.63h0Zm98.66-96.49h0c5.96,.43,11.06,2.91,11.06,9.55s-4.62,10.3-11.64,10.71h-65.6v-20.25h66.18Zm0,45.91h0c5.47,.25,12.93,2.57,12.93,11.51s-6.16,11.55-13.66,11.84h-65.45v-23.35h66.18Z"/><path d="M165.12,432.73v89.18c.89,21.32,13.53,33.18,35.2,34.02,24.71,.98,50.01,1.06,76.91-.04,20.52-.84,32.49-13.62,33.65-34.07v-89.1h-32.44v82.05c-.2,7.56-4.85,10.66-10.84,11.22-19.35,1.49-40.15,1.49-60.2,0-5.48-.48-9.81-5.71-10.01-11.48v-81.79h-32.26Z"/><path d="M650.06,432.7v123.66l32.32-.04v-44.27h67.11c7.67,.15,11.61,5.21,12.06,11.92,.82,12.62,.49,32.3,.49,32.3l32.82,.09s-.12-17.88-.55-31.19c-.41-14.22-7.65-25.3-14.15-27.35,5.38-2.98,12.86-10.73,12.86-27.83,0-25.45-13.4-36.27-34.71-37.29h-108.25Zm99.43,27.16h0c7.64,.62,11.68,4.01,11.68,11.82s-3.95,11.58-11.68,11.96h-67.11v-23.75l67.11-.03Z"/><path d="M519.25,534.38h73.56l11.29,21.94h37.92l-67.37-123.62h-36.32l-67.44,123.62h36.87l11.49-21.94h0Zm60.1-26.18h-46.39l23.4-44.68,22.99,44.68Z"/></g><path d="M125.03,192.02C125.03,86.48,288.7,1,481.09,1s353.06,85.48,353.06,191.02-160.68,191.02-353.06,191.02S125.03,297.5,125.03,192.02h0Zm356.23,170.83h0c178.14,0,326.88-76.5,326.88-170.83S657.8,21.21,481.26,21.21,151.08,96.95,151.08,192.02s146.01,170.83,330.18,170.83h0Zm92.08-67.51h0c5.27,.8,23.83,3.54,31.43,4.93,6.38,1.35,9.54,3.35,12.64,10.92,1.03,2.49,2.58,7.86,3.42,10.97,1.12,3.94,2.57,9.92,2.74,10.45,.19,.72,.9,1.51,2.15,1.51,1.14,0,1.87-.84,2.1-1.55,.37-.87,2-6.96,3.07-10.6,.84-3.12,2.38-8.11,3.51-10.79,1.86-4.43,4.28-9.22,11.92-10.7,7.63-1.36,25.15-3.58,33.83-4.64,6.57-.71,20.82-2.58,22.47-2.74,1.76-.27,2.47-1.29,2.47-2.41,0-1.26-.71-2.22-2.56-2.39-2.69-.22-15.81-1.58-22.39-2.38-10.05-1.2-27.32-3.71-33.12-5-6.08-1.36-9-3.09-11.75-8.73-1.56-3.13-2.66-6.06-3.76-10.12-.63-2.51-3.12-10.77-3.46-12.12-.37-1.61-1.3-2.1-2.27-2.1-1.07,0-1.94,.36-2.4,2.16-.57,1.74-2.57,9.54-3.4,12.21-.98,3.02-1.82,6.02-3.52,9.82-2.09,4.45-5.06,7.57-11.49,8.86-9.84,1.97-27.53,4.77-31.7,5.42-15.94,2.19-19.68,2.64-30.62,1.51-8.38-.77-27.15-3.7-39.57-5.64-7.54-1.12-15.27-1.7-19.45-8.77-2.46-4.21-3.81-8.31-5.46-13.53-1.44-4.48-3.64-12.35-4.12-14.28-.52-1.54-1.14-2.41-2.49-2.41s-2.05,.87-2.51,2.54c-.58,1.71-2.97,10.04-4.12,13.99-1.78,5.84-3.33,10.53-5.56,13.69-4.25,6.18-8.25,6.96-18.52,8.7-10.78,1.81-24.21,3.32-34.64,4.38-9.18,1.07-14.97,1.68-18.34,2.06-1.68,.21-2.68,.76-2.68,2.4s1,2.27,2.68,2.47c3.06,.43,12.08,1.42,18.4,2.06,10.6,1.13,20.17,2.07,34.57,4.35,13.95,2.16,16.4,4.03,20.88,14.57,2.26,5.25,3.09,9.11,3.99,13.2,1,4.43,3.06,13.34,3.38,15.18,.13,1.35,.9,2.46,2.35,2.46s2.19-.98,2.48-2.53c.33-2.06,2.48-11.47,3.48-15.11,1-4.09,1.97-8.18,3.83-13.2,4.48-11.37,8.12-12.6,21.72-14.68,10.45-1.62,29.84-4.56,39.67-5.68,10.95-1.04,15.33-1.04,30.69,1.26h0Zm102.97-71.99h0c5.68,.8,15.35,2.68,26.22,5.12,7.23,1.67,9.69,5.42,11.32,10.02,1.68,4.51,2.86,9.69,4.25,15.15,1.26,4.64,2.09,8.7,2.19,9.44,.35,1.42,1.35,2.18,2.36,2.18,1.09,0,2.12-.66,2.44-2.05,.23-.99,1.06-5.06,2.22-9.65,1.27-4.95,2.71-10.43,4.26-15.13,1.48-4.39,3.96-8.01,10.34-9.58,6.09-1.37,16.08-3.05,24.23-4.25,7.09-1.08,19.3-2.63,21.01-2.89,1.78-.27,2.49-1.35,2.49-2.37,0-1.07-.55-2.27-2.49-2.46-1.77-.29-13.5-1.88-21.11-3-9.31-1.39-18.88-2.93-24.13-4.12-3.93-.94-7.83-3.64-9.6-7.42-2.07-4.28-3-6.92-4.49-11.65-.93-3.5-2.34-8.53-2.75-9.93-.41-1.51-1.54-1.89-2.43-1.89s-1.84,.45-2.29,1.99c-.49,1.77-1.72,6.26-2.84,9.89-1.54,5.41-2.64,8.37-4.34,11.59-1.87,3.64-4.79,6.38-10.66,7.63-10.87,2.3-20.29,4.27-26.21,5.17-12.7,1.93-18.77,2.84-38.03,.13-8.63-1.29-23.2-3.47-34.64-5.67-6.31-1.26-11.98-3.03-15.15-9.25-2.03-4.19-3.37-9.08-4.87-14.07-.97-3.17-2.84-9.59-3.48-12.04-.46-1.66-1.12-2.33-2.48-2.33s-2.02,.68-2.48,2.33c-.64,2.08-2.38,8.3-3.44,11.97-1.45,4.87-2.93,10.01-4.95,14.04-3.08,6.31-8.22,7.83-14.84,9.22-9.5,1.99-24.65,3.61-38.17,5.02-5.99,.77-16.99,2.06-19.55,2.45-1.47,.13-2.27,.9-2.27,2.32s.58,2.18,2.25,2.38c2.35,.36,15.28,1.81,19.48,2.29,7.23,.8,24.58,3.19,38.2,5.12,9.34,1.36,14.37,4.99,17.11,15.98,1.45,5.94,2.74,10.32,3.67,14.89,.84,3.74,2.16,9.7,2.51,10.87,.49,1.73,1.32,2.43,2.4,2.43s2.1-.51,2.56-2.51c.23-1.1,1.88-8.51,2.29-10.54,1-4.33,2.28-9.66,3.74-15.21,2.77-9.87,5.67-13.18,17.46-15.92,9.25-2.16,26.25-4.32,34.48-5.48,20.27-2.93,25.55-1.94,38.19-.22h0Zm81.98-76.73h0c-1,0-15.66-1.99-23.4-3.02-8.96-1.32-20.08-2.58-30.09-4.74-4.04-.81-9.43-2.96-12.23-8.68-1.96-4.02-3.06-8.17-5.44-16.04-.72-2.25-2.37-8.63-2.78-10.18-.48-1.77-1.48-2.16-2.38-2.16s-1.88,.29-2.46,2.16c-.46,1.61-2.06,7.16-2.87,10-2.47,8.34-3.84,12.89-5.48,16.29-2.64,5.35-6.92,7.54-13.98,8.86-6.96,1.16-21.17,3.16-35.39,5-27.71,3.44-28.89,3.36-55.47,.37-7.98-.84-29.06-3.54-36.02-4.49-25.48-3.01-67.83-7.33-93.59-11.88-13.97-2.57-26.47-5.57-34.56-25.45-5.38-13.41-8.64-25.39-11.65-36.24-2.57-9-5.47-21.29-6.43-25.39-.48-1.97-1.29-2.64-2.58-2.64-1.15,0-1.94,.63-2.54,2.64-1.06,4.03-4.41,16.82-6.87,25.33-3.11,10.51-6,23.03-11.47,36.3-7.01,16.78-15.91,21.94-34.15,25.55-26.09,4.96-57.89,8.87-87.36,12.05-14.48,1.55-56.42,6.14-58.16,6.34-1.8,.17-2.39,1.52-2.39,2.33,0,.9,.59,2.2,2.39,2.39,1.74,.25,44.82,4.77,58.33,6.23,30.54,3.29,58.83,6.84,85.9,11.54,26.25,4.54,32.38,17.98,37.41,34.63,3.93,13.18,9.22,36.26,11.05,45.27,1.81,7.92,4.93,24.48,5.32,25.92,.39,1.8,1.19,2.54,2.48,2.54,1.16,0,2.1-.64,2.58-2.54,.33-1.58,3.51-18.6,5.13-25.98,1.97-8.83,7.37-32.92,11.1-45.4,6.66-21.97,13.18-29.64,36.48-33.69,23.44-4.19,67.46-9.39,93.75-12.53,6.6-.81,21.78-2.11,35.86-3.81,26.82-2.96,29.15-2.74,55.59,.52,13.92,1.67,23.46,3.01,34.68,4.9,8.99,1.52,12.4,4.08,15.11,11.88,2.22,6.23,3.93,13.05,5.09,17.72,1.03,4.1,2.37,10.75,2.7,12.17,.42,1.71,1.58,2.03,2.26,2.03s2.09-.48,2.46-2.03c.37-1.74,1.63-8.07,2.63-12.17,.99-4.19,3.38-12.66,5.12-17.72,2.55-7.16,6.57-10.25,13.3-11.63,7.46-1.62,20.38-3.35,29.73-4.73,7.16-1.01,22.16-2.9,23.26-3.06,1.48-.12,2.32-1.06,2.32-2.45,0-1.26-.94-2.16-2.32-2.33Z"/></svg>