<svg id="Layer_1" xmlns="http://www.w3.org/2000/svg" viewBox="0 0 477.43 121.5"><defs><style>.cls-1{fill:#b1b3b6}.cls-2{fill:#003974}.cls-3{fill:#6d6e71}.cls-4{fill:#d1d3d4}</style></defs><path class="cls-1" d="M143.54 78.78h1.94c0-.56.02-1.12.05-1.67l-1.97.02-.02 1.66M103.39 50.25v1.19l3.12.08v-1.24h-.02l-3.1-.02M103.41 78.81c1.32 0 2.26-.02 2.59-.02l.01-1.65-2.6.03v1.64z"/><path class="cls-4" d="M144.1 51.71c1.97.12 3.63.16 5.48.25-.57-.04-2.64-.13-5.48-.25M64.15 48.71c3.66.12 6.42.21 7.08.21l-7.08-.32v.11z"/><path class="cls-1" d="M477.39 61.33c-.07-.75-.09-1.52 0-2.27.17-1.44-.39-1.85-1.84-1.9-9.21-.3-18.42-.71-27.63-1.09l-46.86-1.98-42.14-1.75-17.43-.7V27.41l-127.45-8.83V89.2c-1.82.51-1.64-.63-1.64-1.6V42.33c0-7.75-.03-15.49-.14-23.24a3.77 3.77 0 0 0-1.1-2.36c-5.23-5.17-10.52-10.26-15.8-15.38-.37-.36-.76-.69-1.29-1.17-1.32 5.46-2.56 10.77-3.91 16.05-1.05 4.12-2.02 8.2-1.79 12.53.2 3.65.04 7.33.04 11.21-.98 0-1.72.03-2.47 0-4.02-.18-8.04-.4-12.06-.56l-45.3-1.74-54.92-2.11-44.25-1.67c-.44-.02-.91.1-1.33.24-8.41 2.9-16.8 5.84-25.22 8.7-1.17.4-1.65.88-1.64 2.18.06 13.11.07 26.22.06 39.33 0 1.21.32 1.72 1.62 1.9 4.84.69 9.65 1.56 14.48 2.31 4.19.65 8.4 1.76 12.6 1.76 147.73.09 295.46.08 443.19.08h1.93V63.78c2.35.56 2.44-.83 2.3-2.47M28.1 89.19L2.44 85.1c-.05-.58-.12-1.09-.12-1.6-.03-9.55-.02-19.09-.09-28.64 0-1.3.36-1.9 1.67-2.33 7.54-2.52 15.04-5.18 22.56-7.78.48-.17.98-.29 1.64-.49v44.93zm.06-46.78c0 .31-.48.77-.84.89a5545.7 5545.7 0 0 1-24.71 8.53c-.03.01-.09-.05-.34-.22 0-2.18-.03-4.49.04-6.8.01-.32.47-.79.82-.91 8.17-2.85 16.36-5.66 24.55-8.47.09-.03.21.03.53.08 0 2.27.03 4.58-.04 6.89m166.05-8.23l4.43-.98 4.45-.98v-5.67c2.36.62 4.5 1.14 6.61 1.78.35.1.75.72.76 1.11.06 3.44.05 6.87 0 10.31 0 .34-.37.68-.56 1.02-.18-.36-.52-.72-.52-1.08-.04-3.14-.02-6.28-.02-9.56l-5.14-1.03v11.19h-13.81l-.23-.6q-.32-4.53 4.03-5.51M69.71 88.06c-.02.32-.46.61-.71.91-.19-.3-.55-.59-.55-.89-.04-2.89-.04-5.79 0-8.68 0-.27.4-.54.62-.8.22.26.63.51.64.78.06 1.5.03 3.01.03 4.51 0 1.39.05 2.78-.03 4.16m39.12.05c0 .29-.36.57-.56.85-.21-.28-.61-.55-.61-.83-.05-2.9-.05-5.8 0-8.7 0-.33.45-.65.68-.97l.51.28c0 3.12.01 6.25-.02 9.37m40.15-.03c0 .3-.33.59-.51.89-.19-.28-.55-.56-.56-.85-.06-1.5-.03-2.99-.03-4.49 0-1.38-.03-2.77.02-4.15.01-.3.34-.59.52-.88.19.28.55.56.55.84.04 2.88.04 5.76 0 8.64m4.02 1.16h-2.02V52.02l-1.4-.07-.03 1h.03v24.11l-4.02.04c-.03.56-.04 1.12-.04 1.69h-1.82v.06h4.01v10.39h-28.77V78.98c1.67 0 18.88-.14 24.76-.18l.02-1.68-24.61.24V52.3l24.98.54.01-1.12c-8.68-.36-24.52-.99-26.39-1.09v38.6h-7.12c-.04-.69-.1-1.42-.1-2.15.01-11.59 0-23.19.09-34.78.01-1.63-.49-2.16-2.06-2.07-.67.04-1.34.05-2.02.05h.02v1.24l2.61.06v25.55l-3.11.04v1.61l-2.61.01 4 .01v10.4H78.64V78.98c1.52 0 18.11-.15 24.77-.2v-1.6l-24.74.3V50.81l24.74.61v-1.19c1.06 0 2.09.02 3.1.03-2.39 0-26.67-.91-29.09-.91v39.83h-6.17V48.92c0 4.39-.56 8.55-1.21 12.67v15.52l-1.92.02c-.02.58-.03 1.16-.03 1.75v10.34H39.35V78.91l28.74-.03h-3.92v-1.7l-24.6.32V49.55l24.6.63v-1.47c-9.27-.31-24.38-.87-26.18-.87v41.41h-8.46V43.6l123.49 4.76v40.89zm58.26.03h-11.72c0-6.1.74-29.32.74-35.45 0 2.87-2.14 22.72-2.14 25.69v9.74h-36.26v-9.66l36.26-.08h-5.35v-1.69l-30.57.26V53.89l36.44 1.21-.02.83c.56-1.3 1.11-2.13 1.63-2.13-2.25 0-37.17-1.18-39.51-1.18 0 6.06-.26 30.42-.26 36.58h-5.95V48.41l56.7 2.19v38.67zm.04-39.73L29.53 42.52v-7.56l181.76 6.97v7.59zm129.06-20.77v8.78l-125.17-7.33V19.79m0 11.82l125.18 7.16v12.82l-30.06-1.23v-9.78l-18.2-.96v9.96l-13.94-.54V38.88l-13.45-.65v10.13h-2.94V37.77h-6.4v9.99c-3.04 0-5.89.22-8.7-.05-4.14-.4-8.09.44-12.07 1.22l-18.46 3.68c-.28.06-.58 0-.98 0V31.64zm91.35 9.81l1.61.09v8.17c-.86.2-1.62.43-1.61-.91v-7.35m-4.57-.06l.59-.48c.37.42 1.05.82 1.06 1.25.1 2.43.05 4.86.05 7.33-1.12.24-1.77.17-1.73-1.15.07-2.31.02-4.63.02-6.95m-5.7 6.82c-.02.41-.52.8-.8 1.19-.29-.39-.82-.77-.83-1.16-.08-2.42-.04-4.84-.04-7.33 1.19-.31 1.77-.15 1.73 1.06-.07 2.08.02 4.17-.06 6.24m-19.31-8.52v8.63l-.49.45c-.38-.44-1.06-.86-1.08-1.31-.11-2.49-.05-4.99-.05-7.64l1.62-.13m-8.29.75c-.03-1.25.6-1.31 1.63-1.04v8.82c-1.01.29-1.64.21-1.62-1.01.03-2.26.05-4.52 0-6.77m-9.13 7.27h-1.59v-8.8a14 14 0 0 0 .35-.46c.41.35 1.17.69 1.18 1.06.1 2.71.06 5.42.06 8.2m-18.14 7.03c-.01.35-.55.92-.91.97-8.12 1.13-16.24 2.2-24.37 3.27-.27.04-.56-.04-.93-.06V53.8l26.25-5.16c0 2.17.04 4.12-.04 6.08m18.73 34.51h-2.64V71h-6.65v8.53h5.34v9.67h-36.43v-9.57h5.34v-8.67h-6.61v18.28h-3.27c-.03-.57-.09-1.13-.09-1.69 0-8.56.02-17.12-.03-25.69 0-1.29.29-1.77 1.69-1.94 8.14-1.01 16.27-2.16 24.4-3.26.35-.05.69-.13 1.04-.12l17.92.56v32.13zm14.3-.05h-2.96V60.13h-7.31v29.15h-2.73V57.42h13.01v31.75zm197.64-.31H274.69v-6.28h197.37v6.28zM275.7 81.62V57.56l20.86.69v23.37H275.7zm22.16-.04V58.25l20.87.68v22.65h-20.87zm22.12.05v-22.7l20.97.69v22.01h-20.97zm22.25.03V59.62l20.84.67v21.37h-20.84zm22.13-.06V60.3l20.82.67V81.6h-20.82zm22.09.04V60.99l20.94.65v20h-20.94zm22.2-.01V61.69l20.92.63v19.31h-20.92zm22.25-.05V62.39l20.86.61v18.58H430.9zm22.12.07V63.07l20.85.6v17.98h-20.85zm23.22-18.94l-233.69-7.2v-6.92l233.69 9.64v4.48z"/><path class="cls-1" d="M64.15 50.18l5.87.15v11.26a80.62 80.62 0 0 0 1.21-12.68c-.66 0-3.42-.09-7.08-.21v1.47zM198.64 55.95l-.54 21.83-5.31.05v1.69h5.35c0-2.98 2.14-22.82 2.14-25.69-.53 0-1.07.83-1.63 2.13"/><path class="cls-4" d="M144.09 51.71l-.01 1.12 5.47.12c0-.33.03-.66.03-1-1.86-.09-3.51-.13-5.48-.25z"/><path class="cls-1" d="M64.15 78.85h3.91l.03-1.74-3.94.05v1.69zM215.18 16.75c5.41.26 9.96.65 15.37 1.05 9.07.66 17.12 1.34 26.19 2.01 6.92.51 14.53 1.14 21.45 1.65 8.84.65 16.64.97 25.47 1.63 5.81.43 13.75.98 19.57 1.4 3.87.28 11.13.79 15 1.05-.49-.51-4.21-1.98-4.78-2.2-2.98-1.17-5.94-2.37-8.94-3.46a1.95 1.95 0 0 1-1.29-1.88c.07-3.09.06-6.18-.01-9.26-.01-.5-.38-1.31-.76-1.43-2.29-.78-4.61-1.67-7.01-.16-.77.48-1.8.55-2.58 1.03-.51.32-1.05 1.02-1.11 1.59-.15 1.6-.05 3.22-.05 5.05l-2.15-.77c-1.69-.62-3.33-1.6-5.07-1.82-8.37-1.07-16.77-1.95-25.17-2.89-7.7-.86-15.4-1.71-23.09-2.58l-26.38-3-23.61-2.69c-3.25-.37-6.51-.68-9.76-1.04 4.75 4.56 9.59 9.02 14.24 13.67 1.35 1.36 2.58 2.99 4.45 3.08m103.65-9.13c3.13.11 3.37.32 3.37 2.94v8.01c-2.84-.16-3.37-.69-3.37-3.35V7.63m-1.15.04v9.23c-2.97-.35-4.87-1.47-4.91-2.86-.14-5.12.22-5.6 4.91-6.37"/><g><path class="cls-3" d="M458.41 111.25l-1.67-4.45h-5.43l-1.67 4.45h-2.33l5.74-15.11h1.98l5.74 15.11h-2.35zm-2.43-6.47L454.06 99h-.04l-1.94 5.78h3.9zM472.96 99.94a5.42 5.42 0 0 0-4.12-2.06c-3.14 0-5.59 2.7-5.59 5.86a5.77 5.77 0 0 0 5.62 5.78c.43 0 3.76-.04 5.21-3.76h-7.04v-2.02h9.55a7.75 7.75 0 0 1-7.8 7.8c-4.41 0-7.74-3.57-7.74-7.8s3.37-7.88 7.72-7.88a7.75 7.75 0 0 1 6.78 4.08h-2.57z"/></g><g><path class="cls-2" d="M70.91 81.05h7.59c3.22 0 6 0 8.86 2.41 1.96 1.8 2.86 4.12 2.86 6.94s-.9 5.14-2.86 6.94c-2.86 2.41-5.63 2.41-8.86 2.41h-2v11.51h-5.59V81.05zm5.59 13.47h1.8c2.41 0 6.33-.16 6.33-4.12s-3.84-4.12-6.12-4.12h-2v8.25zM92.67 88.6h4.98v2h.08c1.02-1.47 2.04-2.78 4.86-2.78h.45v5.26c-4.94.2-4.94 4.08-4.94 5.43v12.74h-5.43V88.6zM109.33 102.35c.24 1.47 2.37 4.65 6.24 4.65 2.41 0 4.2-1.02 5.22-2.9h5.71a11.72 11.72 0 0 1-10.94 7.88c-6.9 0-11.96-5.39-11.96-12s4.73-12.16 11.92-12.16 11.71 6.08 11.71 11.8c0 1.06-.16 2-.33 2.73h-17.59zm12.37-4.37c-.61-3.63-3.22-5.18-6.12-5.18a6.3 6.3 0 0 0-6.41 5.18h12.53zM130.43 81.05h5.43v4.98h-5.43v-4.98zm0 7.55h5.43v22.65h-5.43V88.6zM149.33 94.76c-.37-1.8-1.59-1.96-2.16-1.96a1.98 1.98 0 0 0-2.08 1.96c0 1.31.94 1.59 3.84 2.53 2.82.86 6.33 2.21 6.33 6.78 0 5.1-4.04 7.92-7.92 7.92-2.25 0-5.02-.78-6.78-2.98-1.39-1.71-1.59-3.51-1.71-4.9h5.55c.25 1.02.73 2.9 2.98 2.9a2.31 2.31 0 0 0 2.45-2.29c0-1.67-1.22-2.08-5.1-3.39-2.57-.86-5.06-2.78-5.06-6.49 0-4.41 3.96-7.02 7.59-7.02 3.39 0 7.18 2.45 7.39 6.94h-5.31zM158.27 81.05h5.43v4.98h-5.43v-4.98zm0 7.55h5.43v22.65h-5.43V88.6zM191.09 88.6v18.49c0 10.9-8.08 13.39-12.37 13.39-4.65 0-9.43-2.45-11.39-7.51h6.2a6.9 6.9 0 0 0 5.59 2.53c3.06 0 6.65-2.12 6.94-7.06l-.08-.08c-.73 1.02-2.82 3.63-7.43 3.63-5.51 0-11.59-4.69-11.59-12.29 0-7.1 5.8-11.88 11.55-11.88 4.65 0 6.61 2.65 7.22 3.55h.08v-2.78h5.27zm-12.08 4.2a6.73 6.73 0 0 0-6.61 6.94c0 4.61 3.47 7.27 6.78 7.27s6.49-2.78 6.49-7.31c0-3.22-2.61-6.9-6.65-6.9zM216.89 81.05h4.37l12.65 30.21h-6.16l-3.22-7.8h-10.82l-3.22 7.8h-6.16l12.57-30.21zm-1.31 17.14h6.94l-3.43-9.27h-.08l-3.43 9.27zM255.3 88.6v22.65h-4.98v-2.29h-.08a6.57 6.57 0 0 1-5.84 3.02c-4.12 0-6.45-2.04-7.59-3.59-1.67-2.41-1.67-6.08-1.67-7.96V88.59h5.43v11.55c0 1.84 0 6.86 4.73 6.86 3.43 0 4.57-3.22 4.57-6.82V88.59h5.43zM260.98 93.42h-2.65V88.6h2.65v-7.55h5.43v7.55h3.26v4.82h-3.26v17.84h-5.43V93.42zM270.37 99.95c0-6.86 5.59-12.12 12.08-12.12s12 5.1 12 12.04c0 7.43-5.71 12.12-12 12.12a12.12 12.12 0 0 1-12.08-12.04zm18.65.04c0-4.12-3.18-7.18-6.57-7.18a6.93 6.93 0 0 0-6.65 7.14c0 4.29 3.22 7.06 6.65 7.06 3.96 0 6.57-3.43 6.57-7.02zM320.54 88.6v18.49c0 10.9-8.08 13.39-12.37 13.39-4.65 0-9.43-2.45-11.39-7.51h6.2a6.9 6.9 0 0 0 5.59 2.53c3.06 0 6.65-2.12 6.94-7.06l-.08-.08c-.73 1.02-2.82 3.63-7.43 3.63-5.51 0-11.59-4.69-11.59-12.29 0-7.1 5.8-11.88 11.55-11.88 4.65 0 6.61 2.65 7.22 3.55h.08v-2.78h5.26zm-12.08 4.2a6.73 6.73 0 0 0-6.61 6.94c0 4.61 3.47 7.27 6.78 7.27s6.49-2.78 6.49-7.31c0-3.22-2.61-6.9-6.65-6.9zM347.28 111.25h-4.98v-2.82c-1.71 2.04-5.06 3.55-7.92 3.55-5.84 0-11.02-4.65-11.02-12.2 0-6.94 5.06-11.96 11.35-11.96a9.7 9.7 0 0 1 7.51 3.63h.08v-2.86h4.98v22.65zM335.53 92.8c-4.45 0-6.73 3.84-6.73 7.22 0 3.84 2.86 6.98 6.73 6.98s6.61-2.94 6.61-7.14c0-4.69-3.39-7.06-6.61-7.06zM351.65 88.6h4.98v2h.08c1.02-1.47 2.04-2.78 4.86-2.78h.45v5.26c-4.94.2-4.94 4.08-4.94 5.43v12.74h-5.43V88.6zM386.55 111.25h-4.98v-2.82c-1.71 2.04-5.06 3.55-7.92 3.55-5.84 0-11.02-4.65-11.02-12.2 0-6.94 5.06-11.96 11.35-11.96a9.7 9.7 0 0 1 7.51 3.63h.08v-2.86h4.98v22.65zM374.8 92.8c-4.45 0-6.73 3.84-6.73 7.22 0 3.84 2.86 6.98 6.73 6.98s6.61-2.94 6.61-7.14c0-4.69-3.39-7.06-6.61-7.06zM413.78 88.6v18.49c0 10.9-8.08 13.39-12.37 13.39-4.65 0-9.43-2.45-11.39-7.51h6.2a6.9 6.9 0 0 0 5.59 2.53c3.06 0 6.65-2.12 6.94-7.06l-.08-.08c-.74 1.02-2.82 3.63-7.43 3.63-5.51 0-11.59-4.69-11.59-12.29 0-7.1 5.8-11.88 11.55-11.88 4.65 0 6.61 2.65 7.22 3.55h.08v-2.78h5.26zm-12.08 4.2a6.73 6.73 0 0 0-6.61 6.94c0 4.61 3.47 7.27 6.78 7.27s6.49-2.78 6.49-7.31c0-3.22-2.61-6.9-6.65-6.9zM422.31 102.35c.25 1.47 2.37 4.65 6.25 4.65 2.41 0 4.2-1.02 5.22-2.9h5.71a11.72 11.72 0 0 1-10.94 7.88c-6.9 0-11.96-5.39-11.96-12s4.73-12.16 11.92-12.16 11.71 6.08 11.71 11.8c0 1.06-.16 2-.33 2.73H422.3zm12.37-4.37c-.61-3.63-3.22-5.18-6.12-5.18a6.3 6.3 0 0 0-6.41 5.18h12.53z"/></g><g><path class="cls-3" d="M12 111.25l-2.74-10.56h-.04l-2.74 10.56H4.54L.33 96.14h2.28l2.88 11.37h.04l2.92-11.37h1.61l2.88 11.29h.04l2.94-11.29h2.25l-4.23 15.11H12zM28.44 111.25v-1.76h-.04a4.33 4.33 0 0 1-3.84 2.04 5.8 5.8 0 0 1-6-5.9c0-2.76 1.94-6 6-6 1.57 0 3.02.65 3.84 1.9h.04v-1.59h2.12v11.31h-2.12zm-3.88-9.68c-2.61 0-3.88 2.27-3.88 4.04 0 2.04 1.61 3.98 3.86 3.98s3.94-1.82 3.94-3.98a3.86 3.86 0 0 0-3.92-4.04zM35.52 111.25H33.4V96.14h2.12v15.11zM40.89 111.25h-2.12v-9.37h-1.53v-1.94h1.53v-3.8h2.12v3.8h1.86v1.94h-1.86v9.37zM45.56 106.52a3.84 3.84 0 0 0 3.72 3.08c1.57 0 2.72-.92 3.23-1.9h2.12a5.76 5.76 0 0 1-5.43 3.84 5.9 5.9 0 0 1-5.76-5.96c0-3.39 2.61-5.94 5.8-5.94s5.74 2.49 5.76 5.8c0 .37-.04.94-.06 1.08h-9.37zm7.31-1.63a3.67 3.67 0 0 0-7.3 0h7.31zM57.15 111.25V99.94h1.98v1.02h.04c.9-1.27 2.35-1.31 2.88-1.33v2.18a3.9 3.9 0 0 0-1.53.41c-.67.37-1.25 1.23-1.25 2.84v6.19h-2.12z"/></g></svg>