<?xml version="1.0" encoding="UTF-8"?><svg id="Layer_1" xmlns="http://www.w3.org/2000/svg" viewBox="0 0 2000 280"><defs><style>.cls-1{fill:#040404;}.cls-2{fill:blue;}</style></defs><g id="Schwellbrunn"><path class="cls-2" d="M208.42,280.53c-3.9-1.46-8.12-1.36-12.1-2.63-14.82-4.72-23.62-14.62-26.06-29.87-2.67-16.65,.5-32.18,10.82-45.69,11.48-15.03,27-21.7,45.97-20.63,6.15,.35,12.12,1.27,17.67,3.91,13.66,6.5,18.74,19.98,18.93,32.37,.02,1.33-.37,1.91-1.78,1.9-8-.04-16-.03-24-.01-1.22,0-1.97-.25-2-1.73-.13-5.81-2.09-10.6-8.04-12.66-6.81-2.35-13-.8-18.23,3.94-6.28,5.68-8.92,13.22-10.26,21.34-.84,5.12-1.09,10.22,.05,15.34,2.39,10.67,15.45,14.4,24.77,7.06,3.02-2.38,5.28-5.37,6.74-8.86,.8-1.89,1.69-2.66,3.81-2.62,7.76,.13,15.53,.13,23.29,0,2.44-.04,3.05,.46,2.28,2.95-5.92,19-17.85,31.28-38.09,34.72-2.22,.38-4.64-.14-6.7,1.16h-7.06Z"/><path class="cls-2" d="M550.7,236.91c5.93-14.74,11.89-29.46,17.78-44.21,3.46-8.68,3.4-8.71,12.63-8.71,3.88,0,7.77,.09,11.65-.04,1.95-.07,2.63,.44,2.53,2.51-.65,13.82-1.21,27.64-1.73,41.46-.13,3.51-.02,7.03-.02,10.39,4.29-11.65,8.67-23.53,13.03-35.42,2-5.46,4.09-10.89,5.92-16.41,.7-2.09,1.83-2.56,3.86-2.53,7.17,.11,14.36,.18,21.53-.03,3.14-.09,3.88,.43,2.51,3.54-5.87,13.31-11.56,26.71-17.3,40.08-6.61,15.41-13.28,30.79-19.75,46.26-1.07,2.56-2.29,3.52-5.12,3.43-7.05-.23-14.12-.19-21.17-.02-2.48,.06-3.08-.6-3.06-3.08,.1-16.19,.23-32.38,.41-48.69-3.39,8.8-6.78,17.6-10.16,26.4-2.92,7.61-5.87,15.2-8.69,22.84-.66,1.79-1.5,2.56-3.53,2.52-7.53-.13-15.06-.14-22.59,0-2.25,.04-2.71-.7-2.73-2.78-.17-29.33-.4-58.66-.7-87.99-.02-2.07,.6-2.51,2.53-2.49,7.29,.1,14.59,.1,21.88,0,1.94-.03,2.68,.43,2.55,2.49-.65,10.88-1.18,21.76-1.77,32.64-.32,5.95-.66,11.91-.99,17.86,.16,0,.32-.02,.49-.02Z"/><path class="cls-2" d="M1907.26,222.75c-3.11,15.75-6.24,31.49-9.33,47.25-1.4,7.15-1.36,7.16-8.54,7.15-5.65,0-11.3-.14-16.94,.06-2.74,.1-3.58-.5-2.98-3.36,2.5-11.96,4.8-23.95,7.2-35.93,2.77-13.8,5.56-27.59,8.35-41.38,.18-.91,.51-1.79,.64-2.71,.48-3.3,.1-7.83,2.42-9.38,2.37-1.58,6.58-.44,9.99-.45,4.82-.02,9.65,.05,14.47-.04,1.69-.03,2.62,.27,3.35,2.1,6.14,15.45,12.5,30.81,18.64,46.26,1.01,2.53,1.28,5.35,1.83,7.77,2.16-14.5,5.59-29.02,8.29-43.67,.61-3.31,1.32-6.61,1.9-9.93,.3-1.72,.92-2.59,2.94-2.55,7.64,.13,15.29,.1,22.94,.01,2-.02,2.66,.39,2.2,2.56-4.65,21.84-9.22,43.7-13.77,65.56-1.54,7.4-3.02,14.81-4.4,22.24-.38,2.04-1.02,2.96-3.36,2.91-7.41-.18-14.82-.12-22.23-.03-1.88,.02-2.89-.42-3.65-2.32-5.98-15.01-12.11-29.97-18.18-44.94-.93-2.29-1.39-4.7-1.76-7.17Z"/><path class="cls-2" d="M1728.85,221.77c-3.44,17.58-6.88,35.04-10.24,52.51-.43,2.25-1.43,2.97-3.75,2.92-6.93-.16-13.88-.27-20.81,.04-3.34,.15-3.57-1.13-3.03-3.73,1.67-7.97,3.24-15.96,4.87-23.93,3.26-15.95,6.55-31.89,9.8-47.84,1-4.89,1.99-9.79,2.87-14.71,.41-2.3,1.35-3.2,3.9-3.12,7.17,.22,14.34,.07,21.52,.09,1.22,0,2.4-.32,3.1,1.44,6.22,15.68,12.6,31.31,18.84,46.98,.85,2.14,1.21,4.47,1.81,6.81,1.48-7.59,2.97-15.15,4.43-22.72,1.92-9.93,3.81-19.86,5.73-29.78,.32-1.67,.84-2.85,3.1-2.81,7.64,.16,15.29,.11,22.93,.02,2.13-.03,2.52,.57,2.09,2.64-4.22,20.38-8.32,40.78-12.47,61.18-1.83,9-3.78,17.97-5.46,27-.37,1.97-1.07,2.45-2.9,2.43-7.64-.08-15.29-.11-22.93,0-1.88,.03-2.65-.74-3.3-2.33-5.98-14.64-12-29.26-18.07-43.85-1.23-2.95-1.57-6.06-2.03-9.24Z"/><path class="cls-2" d="M411.58,277.15c-4.23,0-8.47-.12-12.7,.04-2.04,.08-2.41-.7-2.06-2.43,2.03-9.91,3.92-19.85,6.12-29.72,.69-3.07,.27-4.11-3.11-4-7.05,.23-14.11,.19-21.16,0-2.31-.06-3.08,.95-3.45,2.83-1.95,9.93-3.98,19.84-5.8,29.79-.47,2.58-1.29,3.66-4.17,3.58-7.87-.22-15.76-.12-23.63-.03-2.14,.02-2.67-.19-2.14-2.69,4.88-23.2,9.55-46.45,14.26-69.69,1.24-6.15,2.44-12.31,3.53-18.49,.3-1.69,.95-2.39,2.73-2.37,8.35,.07,16.7,.12,25.05-.03,2.51-.04,2.33,1.25,2.01,2.82-1.74,8.54-3.42,17.09-5.35,25.59-.69,3.03-.26,4.16,3.17,4.04,7.05-.25,14.11-.16,21.16-.02,2.08,.04,2.82-.66,3.2-2.6,1.7-8.79,3.63-17.54,5.26-26.34,.48-2.61,1.36-3.6,4.21-3.52,7.87,.23,15.76,.08,23.63,.08,1.55,0,2.75-.45,2.18,2.32-4.46,21.39-8.67,42.84-12.9,64.28-1.55,7.87-2.98,15.77-4.45,23.66-.38,2.02-1.09,3.17-3.61,2.99-3.98-.3-7.99-.08-11.99-.08Z"/><path class="cls-2" d="M1558.96,280.01c-7.7,.23-15.15-.91-22.3-3.85-10.8-4.44-17.58-14.94-18.04-26.63-.35-8.92,1.93-17.35,3.61-25.9,2.45-12.55,5.23-25.03,7.7-37.58,.33-1.69,.9-2.09,2.44-2.08,8.47,.04,16.94,.1,25.4-.03,2.33-.04,2.14,1.2,1.85,2.63-1.64,8.21-3.29,16.42-5,24.62-2.04,9.78-4.25,19.53-6.13,29.35-.5,2.59-.34,5.41,.02,8.05,.59,4.33,4.85,7.73,9.44,7.99,11.02,.62,16.27-3.19,18.62-14.11,3.19-14.77,6.1-29.61,9.12-44.42,.79-3.87,1.54-7.75,2.26-11.63,.32-1.72,1.04-2.5,3.01-2.47,8.11,.12,16.23,.13,24.35,0,2.23-.03,2.56,.77,2.17,2.66-2.61,12.64-5.03,25.32-7.79,37.93-2.01,9.19-3.18,18.59-6.27,27.52-5.49,15.82-16.48,24.91-33.23,27.2-3.75,.51-7.47,.57-11.21,.74Z"/><path class="cls-2" d="M743.24,277.15c-11.65,0-23.3-.07-34.94,.05-2.28,.02-2.73-.53-2.28-2.7,3.45-16.74,6.8-33.51,10.21-50.26,2.5-12.3,5.1-24.59,7.48-36.91,.48-2.49,1.22-3.42,3.97-3.41,22,.13,44,.13,66.01,0,2.88-.02,3.38,.84,2.8,3.36-1.25,5.44-2.41,10.89-3.49,16.37-.41,2.06-1.29,2.83-3.52,2.81-12.24-.12-24.47,0-36.71-.09-2.55-.02-4.27,.18-4.33,3.4-.05,2.29-.6,4.65-1.38,6.81-.93,2.57,.23,2.63,2.23,2.62,10.82-.06,21.65,.02,32.47-.06,2.24-.02,3.1,.15,2.36,2.87-1.34,4.93-2.11,10.01-3.05,15.05-.37,2.02-1.23,2.84-3.49,2.81-10.59-.14-21.18,.08-31.76-.15-3.11-.07-4.06,1.02-4.35,3.85-.29,2.88-.86,5.78-1.74,8.54-.79,2.49-.11,3.04,2.3,3.02,13.29-.07,26.59,.02,39.89-.07,2.57-.02,3.71,0,2.81,3.31-1.46,5.37-2.19,10.95-3.06,16.46-.36,2.24-1.66,2.35-3.47,2.34-11.65-.05-23.3-.03-34.94-.03Z"/><path class="cls-2" d="M14.61,247.66c3.88,0,7.76,.05,11.64-.02,1.75-.03,2.86,.2,2.86,2.42,0,3.85,2.19,6.18,5.77,7.44,4.14,1.46,8.11,2.8,12.54,.57,2.61-1.31,4.44-2.81,5.05-5.73,.6-2.82-.73-4.7-2.71-6.36-3.93-3.3-8.83-4.71-13.38-6.77-6.31-2.85-12.58-5.82-17.82-10.36-12.58-10.91-10.16-32.23,4.49-40.78,10.6-6.18,22.19-6.87,34.01-5.79,7.18,.66,13.92,2.75,19.8,7.2,6.85,5.18,9.82,12.19,10.43,20.51,.1,1.37-.37,1.62-1.5,1.62-8.23,0-16.47-.04-24.7,.04-1.5,.02-1.56-.82-1.91-1.85-2.18-6.28-10.09-9.41-16.14-6.47-4.78,2.32-5.33,6.69-1.12,9.95,4.87,3.76,10.68,5.73,16.28,8.06,5.74,2.39,11.13,5.28,16,9.26,12.1,9.9,9.13,30.47-.92,38.97-6.96,5.89-15.01,8.51-23.92,9.65-9.11,1.17-18.08,.75-26.84-1.64-11.18-3.04-19.55-9.35-22.13-21.42-.02-.11-.11-.21-.13-.33-1.49-7.28-.76-8.19,6.59-8.19,2.59,0,5.17,0,7.76,0Z"/><path class="cls-2" d="M903.1,277.15c-11.17,0-22.34-.09-33.51,.07-2.67,.04-2.9-1.01-2.47-3.08,3.27-15.83,6.54-31.65,9.76-47.49,2.71-13.32,5.37-26.66,7.99-40,.4-2.01,1.23-2.77,3.44-2.73,8.11,.16,16.23,.18,24.33,0,2.67-.06,2.89,1.02,2.46,3.07-4.4,21.03-8.78,42.07-13.23,63.1-.5,2.36,.11,2.99,2.53,2.97,12.23-.12,24.45,0,36.68-.1,2.35-.02,2.93,.48,2.41,2.86-1.4,6.47-2.57,12.99-3.75,19.5-.36,1.98-1.7,1.86-3.15,1.85-11.17-.02-22.34-.01-33.51,0Z"/><path class="cls-2" d="M1055.36,277.15c-10.93,0-21.86-.02-32.8,.02-2.14,0-3.25,.24-2.57-2.94,4.28-20,8.17-40.09,12.21-60.14,1.86-9.23,3.85-18.43,5.55-27.68,.37-2.01,1.1-2.46,2.92-2.45,8.23,.06,16.46,.1,24.68-.02,2.17-.03,2.62,.72,2.21,2.64-4.41,21.04-8.76,42.09-13.21,63.12-.55,2.59-.03,3.4,2.79,3.36,12.11-.16,24.21-.02,36.32-.12,2.12-.02,2.94,.35,2.47,2.64-1.34,6.49-2.58,13.01-3.77,19.53-.38,2.06-1.68,2.07-3.32,2.06-11.17-.05-22.33-.02-33.5-.02Z"/><path class="cls-2" d="M1251.04,230.22c10.64-5.64,14.11-14.61,13.67-25.84-.3-7.77-3.87-12.97-10.72-16.26-6.27-3.01-13.07-3.83-19.8-4.01-13.76-.37-27.53-.09-41.29-.15-1.7,0-2.33,.42-2.68,2.25-2.68,13.69-5.55,27.35-8.33,41.02-3.21,15.72-6.32,31.46-9.66,47.16-.61,2.86,.67,2.79,2.68,2.78,17.3-.04,34.59-.05,51.89-.04,5.31,0,10.5-.83,15.55-2.38,11.2-3.44,17.7-11.04,19.19-22.61,1.2-9.33-1.34-17.14-10.48-21.92Zm-16.53-11.23c-1.48,1.18-3.25,2.18-5.05,2.24-5.84,.2-11.68,.08-17.71,.08,1.04-4.72,1.98-9.26,3.06-13.76,.23-.96,.07-2.43,1.94-2.31,4.91,.32,9.84-.36,14.75,.5,2.67,.47,4.87,1.45,5.33,4.22,.54,3.25,.69,6.61-2.32,9.02Zm-4.89,34.88c-4.55,2.75-9.57,1.68-13.43,1.97-3.7,0-6.41-.08-9.11,.03-1.73,.07-1.99-.74-1.72-2.14,.92-4.69,1.85-9.37,2.71-14.06,.14-.78,.28-1.37,1.19-1.35,6.21,.15,12.45-.54,18.64,.38,3.73,.56,5.88,2.84,6.05,6.6,.16,3.58-1.04,6.59-4.33,8.58Z"/><path class="cls-2" d="M1437.57,203.19c-.64-5.35-2.97-9.93-7.62-13.25-6.23-4.43-13.45-5.58-20.63-5.78-15.52-.44-31.06-.15-46.59-.19-1.35,0-2,.24-2.22,1.87-.53,3.79-1.44,7.54-2.2,11.3-2.77,13.69-5.56,27.38-8.3,41.07-2.4,11.98-4.73,23.97-7.15,35.94-.49,2.42,.16,3.13,2.74,3.06,7.41-.2,14.83-.26,22.23,0,2.8,.1,3.52-1.05,3.98-3.36,1.85-9.35,3.87-18.67,5.66-28.04,.28-1.48,.68-1.98,2.15-1.94,3.29,.09,6.65-.37,9.87,.14,8.06,1.28,10.11,1.42,11.01,8.98,.33,2.77-.39,5.55-.81,8.31-.68,4.48-2.31,8.83-2.04,13.45,.07,1.16-.12,2.38,1.72,2.37,9.53-.03,19.06,0,28.59,0,1.75,0,2.33-1.14,1.01-2.09-2.56-1.82-2.2-4.31-1.93-6.66,.43-3.81,1.39-7.56,1.89-11.37,1.4-10.6,.52-16.46-9.83-21.3,.73-.44,1.1-.71,1.51-.91,12.86-6.58,18.7-17.21,16.98-31.62Zm-34.1,19.68c-.51,.21-1.02,.4-1.53,.55-3.58,1.06-7.26,.69-10.92,.77-2.23,0-4.47-.15-6.69,.04-2.29,.2-2.89-.64-2.42-2.78,.95-4.3,1.89-8.62,2.65-12.96,.34-1.91,1.45-2.13,3-2.09,4.57,.1,9.15,.05,13.72,.28,5.41,.26,7.54,2.01,8.17,6.33,.66,4.5-1.61,8.01-5.99,9.87Z"/></g><g id="Auto_Preisig_AG"><path class="cls-1" d="M529.53,.89c12.34-.26,24.25,1.74,35.24,7.47,17.06,8.88,25.58,23.54,27.8,42.23,2.46,20.72-1.35,40.28-12.27,58.01-12.54,20.36-30.95,32.42-54.8,36.14-14.03,2.19-27.87,1.66-41.15-3.29-20.5-7.65-32.59-22.69-35.19-44.33-2.76-23.03,1.21-44.88,15.16-64.07,13.07-17.98,30.7-28.56,52.91-31.49,4.11-.54,8.19-.48,12.28-.66Zm19.88,59.68c0-1.64,.09-3.29-.01-4.92-.66-10.1-7.2-18.35-15.74-20.37-11.33-2.67-23.23,1.63-30.69,12.13-9.58,13.48-12.43,28.74-10.57,44.82,1.01,8.73,5.5,15.49,14.63,18.21,11.13,3.32,23.6-1.27,31.08-11.65,8.23-11.41,10.88-24.49,11.3-38.21Z"/><path class="cls-1" d="M942.6,80.49c2.05,.98,3.53,1.6,4.93,2.38,6.62,3.66,10.37,9.07,10.82,16.81,.48,8.28-1.53,16.23-2.67,24.31-.39,2.77-.74,5.55-.95,8.34-.18,2.36,.58,4.44,2.75,5.68,1.24,.71,1.55,1.59,1.25,2.91-.36,1.6-1.56,1.49-2.75,1.49-14,0-28-.04-41.99,.05-2.18,.01-2.41-.92-2.49-2.73-.33-8.04,2.04-15.69,3.3-23.49,.75-4.63,1.58-9.18,.49-13.88-.94-4.02-3.4-6.6-7.14-7.98-8.18-3.01-16.72-1.59-25.12-1.8-1.93-.05-1.36,2.03-1.56,2.98-2.09,10.01-3.96,20.07-5.9,30.11-.95,4.91-1.95,9.8-2.82,14.72-.29,1.64-1.14,2.05-2.66,2.04-12.82-.04-25.64-.05-38.46,0-1.91,0-1.97-.57-1.62-2.28,6.78-33.72,13.46-67.45,20.18-101.18,2.11-10.6,4.26-21.18,6.36-31.78,.38-1.93,1.1-2.81,3.41-2.8,23.17,.13,46.35,0,69.52,.19,6.42,.05,12.8,1.14,18.96,3.09,16.12,5.11,23.52,15.94,22.61,33.42-.98,18.85-10.46,31.85-28.45,39.4Zm-42.15-17.09v-.03c2.93,0,5.87,.12,8.8-.03,4.53-.24,9.09-.34,13.29-2.48,5.09-2.58,7.81-8.94,6.62-15.67-.68-3.87-4.81-6.79-10.23-7.62-7.83-1.19-15.69-.35-23.52-.65-1.34-.05-2.02,.2-2.33,1.77-1.49,7.5-3.18,14.96-4.79,22.43-.34,1.58,.13,2.36,1.95,2.3,3.4-.11,6.8-.03,10.21-.03Z"/><path class="cls-1" d="M1955.02,131.81c-2.67,1.94-4.75,3.61-6.98,5.03-11.65,7.47-24.43,9.91-38.15,8.77-12.11-1-22.99-4.68-32.22-12.76-10.22-8.95-15.95-20.42-17.82-33.58-2.87-20.25-.1-39.89,9.81-57.95,10.42-18.99,25.59-32.75,47.29-37.73,19.14-4.39,38.18-3.94,56.31,4.42,15.48,7.14,23.61,19.96,26.21,36.44,1.15,7.25,.94,7.29-6.31,7.29-10.35,0-20.71-.09-31.06,.07-2.24,.03-3.16-.77-3.45-2.72-1.16-7.88-9.82-13.71-18.02-14.44-15.82-1.41-26.62,8.78-32.23,21.64-5.43,12.47-7.28,25.55-4.93,38.95,2.37,13.53,13.79,17.93,24.8,16.77,8.88-.94,16.04-5.45,21.16-12.89,.52-.75,1.54-1.45,1.16-2.39-.44-1.08-1.65-.48-2.5-.49-4.59-.06-9.18-.14-13.76,.01-1.92,.06-2.25-.69-1.9-2.25,1.75-7.94,3.52-15.88,5.23-23.83,.31-1.45,1.13-1.72,2.49-1.72,18.59,.04,37.18,.05,55.77,0,1.94,0,2.26,.36,1.84,2.39-4.69,22.88-9.25,45.79-13.79,68.7-.4,2-1.03,2.95-3.36,2.9-7.53-.17-15.06-.17-22.59,0-2.58,.06-3.25-.83-3.06-3.21,.18-2.21,.04-4.45,.04-7.46Z"/><path class="cls-1" d="M1564.89,96.22c-5.03,0-10.28-.05-15.52,.03-1.97,.03-2.61-.21-2.06-2.54,1.73-7.34,3.1-14.77,4.6-22.17,.32-1.59,.35-3.09,2.81-3.08,18.94,.1,37.87,.06,56.81,.08,.33,0,.66,.16,1.08,.27-4.3,21.57-8.56,43.1-12.94,64.61-.6,2.94-.1,7.05-2.29,8.5-2.14,1.42-5.9,.46-8.95,.48-5.29,.03-10.59-.14-15.88,.07-2.57,.1-3.24-.77-3.03-3.15,.2-2.21,.04-4.45,.04-6.6-1.15-.72-1.66,.25-2.2,.68-12.8,10.4-27.53,13.28-43.7,12.2-25.44-1.69-44.07-19.89-48.25-42.08-5.14-27.26-.34-52.71,17.34-74.88,10.95-13.72,25.01-22.7,42.42-25.82,18.56-3.33,36.86-2.72,54.08,5.93,14.62,7.34,22.2,19.87,24.73,35.62,1.18,7.34,.9,7.38-6.56,7.38-10.23,0-20.47-.03-30.7,.03-1.79,0-2.66-.14-3.18-2.37-1.98-8.55-9.38-13.96-18.24-14.69-13.23-1.08-22.62,4.81-29.13,15.62-8.13,13.5-10.4,28.36-8.33,43.8,1.82,13.59,12.19,18.74,24.17,17.97,9.99-.64,17.63-5.7,22.83-14.29,.24-.4,.55-.76,.05-1.59Z"/><path class="cls-1" d="M323.48,4.47c-4.92,24.5-9.87,48.73-14.64,73-2.02,10.26-3.87,20.51-7.7,30.33-8.57,22.01-24.72,33.9-48,36.94-14.46,1.89-28.72,1.69-42.85-2.14-18.27-4.95-29.21-16.75-32.77-35.24-1.96-10.17-.52-20.28,1.53-30.26,4.76-23.22,9.71-46.39,14.46-69.61,.46-2.24,1.11-3.1,3.52-3.08,12.71,.12,25.42,.12,38.12,0,2.47-.02,2.73,.66,2.27,2.89-3.99,18.99-8,37.98-11.71,57.02-1.95,10.03-5.08,19.89-5.22,30.21-.15,10.58,6.07,16.83,16.6,17.04,2.68,.05,5.36,.1,8.06-.41,7.53-1.43,12.11-6.05,14.83-12.94,3.66-9.26,4.86-19.12,6.94-28.75,4.48-20.79,8.58-41.66,12.86-62.5,.27-1.32,.49-2.57,2.54-2.56,13.64,.1,27.27,.05,41.16,.05Z"/><path class="cls-1" d="M989.32,142.27c4.52-22.5,8.96-44.82,13.48-67.12,4.61-22.77,9.34-45.53,13.87-68.32,.4-2.02,1.13-2.4,2.94-2.39,33.99,.04,67.98,.05,101.97,0,2.24,0,2.73,.41,2.21,2.75-1.94,8.85-3.7,17.73-5.3,26.65-.44,2.45-1.3,3.19-3.81,3.17-19.17-.11-38.34-.02-57.51-.11-2.48-.01-3.76,.44-4.16,3.2-.65,4.47-1.64,8.91-2.77,13.29-.55,2.13-.11,2.63,2.01,2.61,8.11-.09,16.23-.04,24.34-.04,9.17,0,18.35,.01,27.52-.01,1.61,0,2.5-.13,1.94,2.23-1.98,8.36-3.61,16.81-5.32,25.23-.46,2.28-1.34,3.34-4.08,3.31-16.58-.18-33.16-.05-49.75-.13-2.5-.01-3.97,.09-4.33,3.3-.64,5.64-1.98,11.21-3.14,16.79-.49,2.35,.96,2.08,2.38,2.08,13.88,0,27.76,0,41.63,0,6.94,0,13.88,.04,20.82-.02,2.02-.02,3.09-.16,2.44,2.75-2.04,9.07-3.58,18.25-5.25,27.4-.44,2.38-1.12,3.63-4.14,3.62-35.05-.14-70.09-.08-105.14-.08-.91,0-1.82-.09-2.86-.14Z"/><path class="cls-1" d="M1246.92,98.27c6.23,0,12.47-.03,18.7,.02,1.01,0,2.12-.51,2.66,1.34,3.37,11.65,6.76,14.3,18.82,14.93,3.76,.2,7.47-.21,10.98-1.77,5.87-2.6,9.16-11.45,1.9-16.81-5.81-4.29-12.48-6.8-18.96-9.7-8.86-3.97-17.52-8.23-25.35-14.06-10.42-7.77-14.92-17.86-13.94-30.97,1.04-13.81,7.16-23.99,18.81-31.29,7.06-4.43,14.75-7.03,22.85-8.09,13.08-1.71,26.21-1.9,39.04,1.92,17.58,5.24,29.18,16.12,32.3,34.78,.02,.12,.07,.23,.09,.34,1.12,6.15,.88,6.44-5.29,6.44-10.59,0-21.17-.11-31.76,.08-2.64,.05-4.06-.45-4.31-3.22-1.04-11.44-20.45-14.1-27.07-7.13-3.91,4.12-3.8,8.16,.69,11.63,6.63,5.11,14.44,7.99,21.97,11.36,8.83,3.96,17.81,7.6,25.39,13.89,10.76,8.92,14.22,20.49,12.37,33.86-2.71,19.55-15.03,30.73-33.13,36.1-20.4,6.06-40.92,5.88-60.94-1.61-14.98-5.6-24.45-16.23-26.89-32.5-1.33-8.92-.96-9.54,8.01-9.54,4.35,0,8.7,0,13.06,0Z"/><path class="cls-1" d="M735.74,4.51c9.99,0,20-.22,29.98,.07,8.77,.25,17.39,1.65,25.7,4.78,12.67,4.76,20.14,13.89,21.82,27.07,1.44,11.21,.47,22.43-4.32,32.92-6.81,14.92-19.25,22.5-34.74,26.02-13.31,3.02-26.83,2.24-40.31,2.34-7.81,.06-7.85,0-9.27,7.53-2.18,11.54-4.37,23.08-6.39,34.65-.34,1.96-1.03,2.54-2.9,2.54-12.93-.04-25.87-.07-38.8,.05-2.43,.02-2.42-1.23-2.09-2.83,2.2-10.94,4.46-21.86,6.65-32.8,4.37-21.75,8.71-43.51,13.06-65.27,2.37-11.85,4.78-23.68,7.01-35.56,.4-2.15,1.74-1.51,2.86-1.52,10.58-.04,21.17-.03,31.75-.03v.04Zm8.4,60.55c2.82,0,5.64,.03,8.45,0,3.53-.05,6.95-.73,10.23-2.05,6.06-2.44,9.42-8.14,8.93-15.12-.42-6.02-3.22-8.95-10.67-10.41-7.19-1.41-14.5-.37-21.75-.66-1.93-.08-1.58,1.55-1.79,2.43-1.82,7.79-3.5,15.61-5.22,23.42-.35,1.58-.23,2.59,1.96,2.45,3.27-.21,6.57-.05,9.86-.06Z"/><path class="cls-1" d="M1701.37,142.41c10.64-19.64,20.94-38.68,31.26-57.7,14.11-26.02,28.25-52.01,42.3-78.06,.92-1.71,1.9-2.23,3.75-2.22,12.94,.08,25.87,.09,38.81,0,2.32-.02,3.15,.57,3.48,3.03,1.62,11.88,3.52,23.73,5.31,35.59,1.75,11.63,3.46,23.27,5.21,34.9,2.02,13.47,4.07,26.94,6.1,40.42,1.04,6.91,2,13.83,3.11,20.73,.4,2.47-.04,3.44-2.94,3.39-11.76-.19-23.52-.12-35.28-.04-1.95,.01-2.97-.22-3.03-2.54-.1-4.09-.63-8.16-.88-12.25-.1-1.65-.77-2.07-2.41-2.06-13.41,.07-26.81,.07-40.22,0-1.72,0-2.38,.68-3.01,2.18-1.75,4.18-3.71,8.28-5.64,12.39-.52,1.11-.9,2.3-2.66,2.29-14.21-.07-28.41-.04-43.26-.04Zm89.21-94.63c-.27,0-.54,0-.81,0-7.7,16.65-15.4,33.3-23.28,50.33,9.32,0,17.88-.05,26.45,.04,1.95,.02,2.22-.54,1.98-2.4-.68-5.44-1.08-10.92-1.57-16.38-.93-10.53-1.85-21.06-2.77-31.59Z"/><path class="cls-1" d="M16.46,142.39c2.18-4.06,4.14-7.72,6.13-11.38C44.84,89.95,67.11,48.9,89.29,7.8c1.32-2.44,2.72-3.46,5.62-3.42,12.7,.19,25.4,.11,38.1,.06,1.73,0,2.5,.13,2.81,2.31,3.59,24.43,7.4,48.83,11.09,73.25,3.05,20.16,5.98,40.34,9.07,60.5,.42,2.75-1.42,1.88-2.55,1.88-10.58,.05-21.17,.03-31.75,0-2.22,0-4.9,.62-6.53-.38-1.62-1-.41-3.91-.91-5.93-.66-2.66-.39-5.37-.44-8.06-.03-1.74-.54-2.44-2.45-2.43-13.52,.08-27.05,.08-40.57,0-1.64-.01-2.23,.78-2.77,1.98-1.91,4.23-3.83,8.46-5.76,12.69-.52,1.13-.87,2.2-2.62,2.19-14.19-.08-28.38-.05-43.16-.05ZM105.1,47.21c-7.71,16.61-15.22,32.8-22.74,48.98-.78,1.67-.07,1.98,1.48,1.97,8.12-.04,16.24-.06,24.35,.01,1.8,.02,2.16-.68,2-2.32-1.22-12.57-2.22-25.16-3.63-37.71-.39-3.45,0-7.04-1.46-10.93Z"/><path class="cls-1" d="M454.78,4.59c-2.38,10.75-4.8,21.16-6.93,31.63-.49,2.41-1.45,2.94-3.69,2.92-10.59-.1-21.18,0-31.77-.07-2.15-.01-3.12,.28-3.62,2.89-6.18,32.67-12.6,65.3-18.91,97.95-.34,1.77-.97,2.55-2.96,2.54-13.06-.08-26.12-.06-39.18,.01-2.1,.01-2.56-.52-2.13-2.64,6.67-32.8,13.21-65.63,19.93-98.43,.57-2.8-.91-2.29-2.38-2.29-11.06-.01-22.12,0-33.18,0-1.16,0-2.32,0-3.63,0,2.39-11.15,4.74-22.03,7.02-32.92,.27-1.31,.86-1.82,2.13-1.7,.35,.03,.71,0,1.06,0,38.83,0,77.65,0,116.48,0,.46,0,.93,.06,1.74,.11Z"/><path class="cls-1" d="M1158.38,142.42c-6.47,0-12.94-.09-19.41,.05-2.18,.05-2.75-.35-2.27-2.66,2.78-13.31,5.38-26.66,8.07-39.98,4.61-22.78,9.27-45.54,13.88-68.32,1.69-8.31,3.33-16.63,4.96-24.96,.29-1.47,.9-2.13,2.57-2.12,13.29,.07,26.59,.06,39.88,0,1.79,0,2.24,.52,1.89,2.23-5.12,25.05-10.22,50.11-15.28,75.18-3.84,19.03-7.7,38.06-11.29,57.14-.56,2.97-1.68,3.53-4.32,3.46-6.23-.15-12.47-.05-18.7-.05v.02Z"/><path class="cls-1" d="M1450.18,4.47c-6.59,32.22-13.13,64.09-19.62,95.97-2.69,13.22-5.28,26.45-7.84,39.69-.33,1.73-1.14,2.32-2.84,2.31-13.18-.05-26.35-.08-39.53-.02-2.05,0-2.29-.65-1.92-2.48,7.28-35.76,14.49-71.53,21.74-107.29,1.78-8.77,3.74-17.5,5.46-26.28,.28-1.41,.55-1.95,2.08-1.94,13.99,.06,27.99,.03,42.47,.03Z"/></g></svg>