<svg xmlns="http://www.w3.org/2000/svg" viewBox="0 0 955 558"><path d="M808.7 432.7V522c.8 21.3 13.5 33.2 35.1 34 24.8 1 50 1 77 0 20.5-.8 32.5-13.6 33.6-34v-89.2h-32.5v82c-.1 7.6-4.8 10.7-10.8 11.3a406.4 406.4 0 0 1-60.2 0c-5.5-.5-9.8-5.7-10-11.5v-81.8h-32.2zM38.5 432.7c-16.8 1-34.6 9.8-37 30.6-.6 4.4-.6 7.2-.2 10.7C4 496.8 20.6 502.4 34 503.5c13.8 1.2 69.9 4.2 76.7 4.8 9.2.7 10.5 4.4 10.5 9.3 0 5.5-2.5 8.7-10.5 9.2a929 929 0 0 1-66 .2c-5.8-.2-10-1.8-10.2-8.7v-6H1.9v3.7c0 25.6 8.8 37.4 33.2 39.3 23.5 1.8 59 1.6 85.4-.1 23-1.5 31.6-17.4 32.4-35.8v-4.3c-.7-21.7-13.3-32.3-30.7-34-11.2-1-71.2-3.7-79.6-4.4-6.4-.6-9-3.8-9-9.2 0-4.3 2.7-7.7 8.5-8.1 19.2-1.3 52.4-1 65.6-.3 6.4.5 9 3.6 9.3 7.4v5.7h32.5v-5c-.6-24.5-12.4-33.8-34.8-34.8-24.4-1-50.9-1.2-76.2.3zM328.1 556.4h107.8c25.2-.7 36.5-14 36.5-38 0-16.8-8-25.9-14.1-27.7 5-2.2 10.9-9.6 10.9-24 0-21.8-13.8-33.2-34.2-34H328.1v123.7zm98.7-96.5c6 .4 11 2.9 11 9.5s-4.6 10.3-11.6 10.7h-65.6V460h66.2zm0 45.9c5.4.2 12.9 2.5 12.9 11.5s-6.2 11.5-13.7 11.8h-65.4v-23.3h66.2zM165.1 432.7V522c1 21.3 13.6 33.2 35.2 34 24.7 1 50 1 77 0 20.5-.8 32.4-13.6 33.6-34v-89.2h-32.5v82c-.2 7.6-4.8 10.7-10.8 11.3a405.9 405.9 0 0 1-60.2 0c-5.5-.5-9.8-5.7-10-11.5v-81.8H165zM650 432.7v123.7h32.4V512h67c7.8.1 11.7 5.2 12.2 11.9.8 12.6.4 32.3.4 32.3H795s-.2-17.8-.6-31.1c-.4-14.3-7.6-25.3-14.1-27.4 5.3-3 12.8-10.7 12.8-27.8 0-25.5-13.4-36.3-34.7-37.3H650.1zm99.5 27.2c7.6.6 11.7 4 11.7 11.8s-4 11.6-11.7 12h-67.1v-23.8h67zM519.3 534.4h73.5l11.3 22h38l-67.5-123.7h-36.3L471 556.3h36.9l11.4-22zm60-26.2H533l23.4-44.7 23 44.7zM125 192C125 86.5 288.7 1 481 1s353.1 85.5 353.1 191-160.6 191-353 191-356-85.5-356-191zM481.3 363C659.4 362.9 808 286.4 808 192S657.8 21.2 481.3 21.2 151 97 151 192 297 363 481.3 363zm92-67.6c5.3.8 23.9 3.6 31.5 5 6.4 1.3 9.5 3.3 12.6 10.9 1 2.5 2.6 7.9 3.4 11l2.8 10.4c.2.7.9 1.5 2.1 1.5 1.2 0 1.9-.8 2.1-1.5.4-.9 2-7 3-10.6 1-3.1 2.5-8.1 3.6-10.8 1.9-4.4 4.3-9.2 12-10.7 7.5-1.4 25-3.6 33.7-4.7l22.5-2.7c1.8-.3 2.5-1.3 2.5-2.4 0-1.3-.7-2.2-2.6-2.4l-22.4-2.4c-10-1.2-27.3-3.7-33-5-6.2-1.3-9-3-11.8-8.7-1.6-3.1-2.7-6-3.8-10.1l-3.4-12.2c-.4-1.6-1.3-2-2.3-2-1 0-2 .3-2.4 2.1-.6 1.7-2.6 9.5-3.4 12.2-1 3-1.8 6-3.5 9.8-2.1 4.5-5.1 7.6-11.5 8.9-9.9 2-27.6 4.8-31.7 5.4a101 101 0 0 1-30.6 1.5c-8.4-.7-27.2-3.7-39.6-5.6-7.6-1.1-15.3-1.7-19.5-8.8a63 63 0 0 1-5.4-13.5c-1.5-4.5-3.7-12.4-4.1-14.3-.6-1.5-1.2-2.4-2.5-2.4s-2 .9-2.5 2.5l-4.2 14a50.6 50.6 0 0 1-5.5 13.7c-4.3 6.2-8.3 7-18.5 8.7a580.5 580.5 0 0 1-34.7 4.4l-18.3 2c-1.7.3-2.7.8-2.7 2.5s1 2.2 2.7 2.4c3 .5 12 1.5 18.4 2 10.6 1.2 20.1 2.2 34.5 4.4 14 2.2 16.4 4 21 14.6 2.2 5.3 3 9.1 4 13.2 1 4.4 3 13.3 3.3 15.2.1 1.3.9 2.5 2.3 2.5s2.2-1 2.5-2.6c.4-2 2.5-11.4 3.5-15 1-4.2 2-8.3 3.8-13.3 4.5-11.4 8.2-12.6 21.8-14.7a1315 1315 0 0 1 39.6-5.6c11-1 15.4-1 30.7 1.2zm103-72a378 378 0 0 1 26.2 5.2c7.3 1.6 9.7 5.4 11.4 10 1.6 4.5 2.8 9.7 4.2 15.1 1.3 4.7 2 8.7 2.2 9.5.3 1.4 1.3 2.2 2.4 2.2 1 0 2-.7 2.4-2 .2-1 1-5.1 2.2-9.7 1.3-5 2.7-10.5 4.3-15.2 1.5-4.4 4-8 10.3-9.5 6.1-1.4 16-3.1 24.2-4.3l21-2.9c1.8-.3 2.5-1.3 2.5-2.4 0-1-.5-2.2-2.4-2.4l-21.2-3c-9.3-1.4-18.8-3-24-4.1-4-1-8-3.7-9.7-7.5-2-4.2-3-6.9-4.5-11.6l-2.7-10c-.4-1.4-1.6-1.8-2.5-1.8s-1.8.4-2.2 2l-2.9 9.9a55 55 0 0 1-4.3 11.5c-1.9 3.7-4.8 6.4-10.7 7.7a560.7 560.7 0 0 1-26.2 5.1c-12.7 2-18.8 2.9-38 .2-8.7-1.3-23.2-3.5-34.7-5.7-6.3-1.3-12-3-15.1-9.2-2-4.2-3.4-9.1-4.9-14.1l-3.5-12c-.4-1.7-1-2.4-2.4-2.4s-2 .7-2.5 2.3l-3.5 12c-1.4 4.9-2.9 10-5 14-3 6.4-8.1 7.9-14.8 9.3a447 447 0 0 1-38.1 5l-19.6 2.4c-1.4.2-2.2 1-2.2 2.4s.5 2.1 2.2 2.3a1797.3 1797.3 0 0 1 57.7 7.4c9.3 1.4 14.4 5 17 16 1.5 6 2.8 10.4 3.8 15 .8 3.7 2.1 9.6 2.5 10.8.5 1.7 1.3 2.4 2.4 2.4s2-.5 2.5-2.5a524.3 524.3 0 0 1 6-25.8c2.8-9.8 5.7-13.1 17.5-15.9 9.3-2.1 26.3-4.3 34.5-5.4 20.3-3 25.6-2 38.2-.3zm82-76.7c-1 0-15.7-2-23.4-3-9-1.3-20-2.6-30.1-4.7-4-.9-9.4-3-12.2-8.7-2-4-3-8.2-5.5-16l-2.8-10.2c-.4-1.8-1.4-2.2-2.3-2.2s-2 .3-2.5 2.2l-2.9 10c-2.4 8.3-3.8 12.8-5.4 16.2-2.7 5.4-7 7.6-14 9l-35.4 5a160.9 160.9 0 0 1-55.5.3l-36-4.5c-25.5-3-67.8-7.3-93.6-11.9-14-2.6-26.5-5.6-34.6-25.4-5.3-13.5-8.6-25.4-11.6-36.3-2.6-9-5.5-21.3-6.4-25.4-.5-2-1.3-2.6-2.6-2.6-1.2 0-2 .6-2.6 2.6l-6.8 25.4c-3.1 10.5-6 23-11.5 36.3-7 16.7-15.9 21.9-34.1 25.5-26.1 5-58 8.9-87.4 12l-58.2 6.4c-1.8.2-2.4 1.5-2.4 2.3 0 1 .6 2.2 2.4 2.4 1.8.3 44.9 4.8 58.4 6.2a1346 1346 0 0 1 85.9 11.6c26.2 4.5 32.3 18 37.4 34.6a685 685 0 0 1 11 45.3c1.8 8 5 24.5 5.3 26 .4 1.7 1.2 2.4 2.5 2.4 1.2 0 2.1-.6 2.6-2.5a860.6 860.6 0 0 1 16.2-71.4c6.7-22 13.2-29.6 36.5-33.7 23.5-4.2 67.5-9.4 93.8-12.5 6.6-.8 21.8-2.1 35.8-3.8 26.9-3 29.2-2.7 55.6.5 14 1.7 23.5 3 34.7 5 9 1.4 12.4 4 15.1 11.8 2.2 6.2 4 13 5.1 17.7l2.7 12.2c.4 1.7 1.6 2 2.3 2s2-.5 2.4-2l2.7-12.2c1-4.2 3.3-12.6 5-17.7 2.6-7.2 6.6-10.3 13.4-11.6 7.4-1.7 20.4-3.4 29.7-4.8l23.3-3c1.4-.1 2.3-1 2.3-2.5 0-1.2-1-2.1-2.3-2.3z"/></svg>