<svg id="Layer_1" xmlns="http://www.w3.org/2000/svg" viewBox="0 0 2000 280"><defs><style>.cls-1{fill:#040404}.cls-2{fill:#00f}</style></defs><g id="Schwellbrunn"><path class="cls-2" d="M208.4 280.5c-3.9-1.4-8.1-1.3-12-2.6a35.3 35.3 0 0 1-26.1-29.9 57.5 57.5 0 0 1 10.8-45.7 51 51 0 0 1 46-20.6c6.1.4 12 1.3 17.6 4 13.7 6.4 18.8 19.9 19 32.3 0 1.3-.4 1.9-1.8 1.9h-24c-1.3 0-2-.3-2-1.8-.2-5.8-2.1-10.5-8-12.6-6.9-2.4-13-.8-18.3 4a35 35 0 0 0-10.3 21.3 40 40 0 0 0 0 15.3c2.5 10.7 15.5 14.4 24.9 7a22 22 0 0 0 6.7-8.8c.8-1.9 1.7-2.7 3.8-2.6H258c2.4 0 3 .5 2.3 3-6 19-17.9 31.2-38.1 34.7-2.2.3-4.6-.2-6.7 1.1h-7zM550.7 237l17.8-44.3c3.4-8.7 3.4-8.7 12.6-8.7h11.7c2-.1 2.6.4 2.5 2.5a4419 4419 0 0 0-1.7 41.4c-.2 3.5 0 7 0 10.4l13-35.4 5.9-16.4c.7-2.1 1.8-2.6 3.8-2.6 7.2.2 14.4.2 21.6 0 3.1 0 3.9.4 2.5 3.6-5.9 13.3-11.6 26.7-17.3 40-6.6 15.4-13.3 30.8-19.8 46.3-1 2.6-2.3 3.5-5 3.4-7.1-.2-14.2-.2-21.3 0-2.4 0-3-.6-3-3 0-16.3.2-32.4.4-48.8l-10.2 26.4-8.7 22.9c-.6 1.8-1.5 2.5-3.5 2.5h-22.6c-2.2 0-2.7-.7-2.7-2.8l-.7-88c0-2 .6-2.5 2.5-2.5h22c1.8 0 2.6.5 2.5 2.5l-1.8 32.7-1 17.8h.5zM1907.3 222.8l-9.4 47.2c-1.4 7.2-1.3 7.2-8.5 7.2-5.7 0-11.3-.2-17 0-2.7.1-3.5-.5-3-3.4 2.6-12 4.9-23.9 7.3-35.9l8.3-41.4.7-2.7c.4-3.3 0-7.8 2.4-9.4 2.4-1.5 6.6-.4 10-.4h14.4c1.7 0 2.7.2 3.4 2 6.1 15.5 12.5 30.9 18.6 46.3 1 2.5 1.3 5.4 1.9 7.8 2.1-14.5 5.6-29 8.3-43.7l1.9-10c.3-1.6.9-2.5 2.9-2.5 7.6.2 15.3.1 23 0 2 0 2.6.4 2.1 2.6a14669.3 14669.3 0 0 0-18.1 87.8c-.4 2-1 3-3.4 3-7.4-.3-14.8-.2-22.2-.1-2 0-3-.4-3.7-2.3-6-15-12-30-18.2-45a31 31 0 0 1-1.7-7.1zM1728.8 221.8l-10.2 52.5c-.4 2.2-1.4 3-3.7 2.9-7-.2-14-.3-20.9 0-3.3.2-3.5-1-3-3.7l4.9-24 9.8-47.8 2.9-14.7c.4-2.3 1.3-3.2 3.9-3h21.5c1.2 0 2.4-.3 3 1.4l19 47c.8 2.2 1.1 4.5 1.7 6.8l4.5-22.7 5.7-29.8c.3-1.6.8-2.8 3-2.8 7.7.2 15.4.1 23 0 2.1 0 2.5.6 2.1 2.7l-12.5 61.2-5.4 27c-.4 2-1 2.4-3 2.4h-22.9c-1.8 0-2.6-.7-3.3-2.3l-18-43.9c-1.3-3-1.6-6-2-9.2zM411.6 277.1h-12.7c-2 .2-2.4-.6-2-2.3 2-10 3.8-19.9 6-29.8.7-3 .3-4-3-4-7.1.3-14.2.2-21.2 0-2.3 0-3.1 1-3.5 2.9-2 9.9-4 19.8-5.8 29.8-.5 2.5-1.3 3.6-4.2 3.5-7.8-.2-15.7 0-23.6 0-2.1 0-2.7-.2-2.1-2.7 4.9-23.2 9.5-46.4 14.2-69.7 1.3-6.1 2.5-12.3 3.6-18.5.3-1.6 1-2.3 2.7-2.3h25c2.6-.1 2.4 1.2 2 2.8-1.7 8.5-3.4 17-5.3 25.6-.7 3-.3 4.1 3.2 4 7-.3 14-.2 21.1 0 2.1 0 2.9-.7 3.2-2.6 1.7-8.8 3.7-17.6 5.3-26.4.5-2.6 1.4-3.6 4.2-3.5 7.9.2 15.8 0 23.6 0 1.6 0 2.8-.4 2.2 2.4-4.4 21.4-8.7 42.8-12.9 64.3l-4.4 23.7c-.4 2-1.1 3.1-3.6 3-4-.4-8-.1-12-.1zM1559 280c-7.7.2-15.2-.9-22.3-3.8a29.7 29.7 0 0 1-18-26.7c-.4-8.9 1.9-17.3 3.5-25.9 2.5-12.5 5.3-25 7.7-37.6.4-1.6 1-2 2.5-2h25.4c2.3-.1 2.1 1.1 1.8 2.6l-5 24.6c-2 9.8-4.2 19.5-6.1 29.3-.5 2.6-.3 5.4 0 8 .6 4.4 4.9 7.8 9.4 8 11 .7 16.3-3.1 18.7-14 3.2-14.8 6-29.6 9-44.5.9-3.8 1.6-7.7 2.3-11.6.4-1.7 1-2.5 3-2.5 8.2.2 16.3.2 24.4 0 2.2 0 2.6.8 2.2 2.7-2.6 12.6-5 25.3-7.8 38-2 9.1-3.2 18.5-6.3 27.5a38.2 38.2 0 0 1-33.2 27.2c-3.8.5-7.5.5-11.2.7zM743.2 277.1l-34.9.1c-2.3 0-2.7-.5-2.3-2.7 3.5-16.7 6.8-33.5 10.2-50.3 2.5-12.3 5.1-24.5 7.5-36.9.5-2.5 1.2-3.4 4-3.4 22 .2 44 .2 66 0 2.9 0 3.4.9 2.8 3.4-1.3 5.4-2.4 10.9-3.5 16.4-.4 2-1.3 2.8-3.5 2.8-12.3-.2-24.5 0-36.7-.1-2.6 0-4.3.2-4.4 3.4 0 2.3-.6 4.6-1.3 6.8-1 2.6.2 2.6 2.2 2.6h32.5c2.2 0 3 0 2.3 2.8-1.3 5-2 10-3 15-.4 2-1.3 2.9-3.5 2.9-10.6-.2-21.2 0-31.8-.2-3 0-4 1-4.3 3.9-.3 2.9-.9 5.8-1.8 8.5-.8 2.5 0 3 2.3 3h40c2.5 0 3.6 0 2.7 3.3-1.4 5.3-2.2 11-3 16.4-.4 2.3-1.7 2.4-3.5 2.4h-35zM14.6 247.7h11.7c1.7 0 2.8.1 2.8 2.4 0 3.8 2.2 6.1 5.8 7.4 4.1 1.5 8 2.8 12.5.6 2.6-1.3 4.5-2.8 5-5.8.7-2.8-.7-4.7-2.6-6.3-4-3.3-8.9-4.7-13.4-6.8a71.2 71.2 0 0 1-17.8-10.4C6 218 8.4 196.6 23 188.1a55.3 55.3 0 0 1 34-5.8c7.2.6 14 2.7 19.9 7.2A26.6 26.6 0 0 1 87.3 210c0 1.4-.4 1.6-1.5 1.6H61c-1.5 0-1.6-.8-2-1.8a12 12 0 0 0-16-6.5c-4.8 2.3-5.4 6.7-1.2 10 4.9 3.7 10.7 5.7 16.3 8a63.2 63.2 0 0 1 16 9.3c12.1 9.9 9.1 30.5-1 39-6.9 5.9-15 8.5-23.8 9.6a68 68 0 0 1-26.9-1.6c-11.2-3-19.5-9.4-22.1-21.4l-.1-.4c-1.5-7.3-.8-8.2 6.5-8.2h7.8zM903.1 277.1l-33.5.1c-2.7 0-3-1-2.5-3l9.8-47.6a6017 6017 0 0 0 8-40c.4-2 1.2-2.7 3.4-2.7 8.1.2 16.2.2 24.3 0 2.7 0 3 1 2.5 3l-13.2 63.2c-.5 2.3 0 3 2.5 3 12.2-.2 24.5 0 36.7-.1 2.3 0 3 .4 2.4 2.8-1.4 6.5-2.6 13-3.8 19.5-.3 2-1.7 1.9-3.1 1.9H903zM1055.4 277.1h-32.8c-2.2 0-3.3.3-2.6-2.9 4.3-20 8.2-40 12.2-60.1 1.9-9.2 3.8-18.4 5.5-27.7.4-2 1.1-2.5 3-2.4h24.6c2.2 0 2.7.7 2.3 2.6l-13.2 63.1c-.6 2.6 0 3.4 2.7 3.4 12.1-.2 24.2 0 36.4-.2 2 0 2.9.4 2.4 2.7-1.3 6.5-2.6 13-3.7 19.5-.4 2-1.7 2-3.4 2h-33.5zM1251 230.2c10.7-5.6 14.1-14.6 13.7-25.8-.3-7.8-3.9-13-10.7-16.3a48 48 0 0 0-19.8-4c-13.8-.4-27.5 0-41.3-.1-1.7 0-2.3.4-2.7 2.2l-8.3 41c-3.2 15.8-6.3 31.5-9.7 47.2-.6 2.9.7 2.8 2.7 2.8h51.9c5.3 0 10.5-.9 15.6-2.5a25.5 25.5 0 0 0 19.1-22.6c1.2-9.3-1.3-17.1-10.4-21.9zm-16.5-11.2a9 9 0 0 1-5 2.2c-5.9.2-11.7.1-17.7.1l3-13.7c.2-1 0-2.5 2-2.4 4.9.4 9.8-.3 14.7.5 2.7.5 4.9 1.5 5.3 4.3.6 3.2.7 6.6-2.3 9zm-4.9 34.9c-4.5 2.7-9.6 1.6-13.4 2h-9.1c-1.7 0-2-.8-1.7-2.2l2.7-14c.1-.8.3-1.4 1.2-1.4 6.2.2 12.4-.5 18.6.4 3.7.6 5.9 2.8 6 6.6.2 3.6-1 6.6-4.3 8.6zM1437.6 203.2c-.7-5.4-3-10-7.6-13.3a36.1 36.1 0 0 0-20.7-5.7c-15.5-.5-31-.2-46.6-.2-1.3 0-2 .2-2.2 1.8-.5 3.8-1.4 7.6-2.2 11.3l-8.3 41.1-7.1 36c-.5 2.4.1 3 2.7 3 7.4-.2 14.8-.3 22.2 0 2.8.1 3.5-1 4-3.4 1.9-9.3 3.9-18.6 5.7-28 .3-1.5.7-2 2.1-2 3.3.2 6.7-.3 9.9.2 8 1.3 10.1 1.4 11 9 .3 2.8-.4 5.5-.8 8.3-.7 4.5-2.3 8.8-2 13.4 0 1.2-.2 2.4 1.7 2.4h28.6c1.7 0 2.3-1.1 1-2-2.6-1.9-2.2-4.4-2-6.7.5-3.8 1.4-7.6 2-11.4 1.3-10.6.5-16.5-9.9-21.3l1.5-1a29 29 0 0 0 17-31.5zm-34.1 19.7l-1.6.5c-3.5 1-7.2.7-10.9.8-2.2 0-4.5-.2-6.7 0-2.3.2-2.9-.6-2.4-2.7 1-4.3 1.9-8.7 2.7-13 .3-2 1.4-2.1 3-2.1 4.5.1 9.1 0 13.7.3 5.4.2 7.5 2 8.2 6.3.6 4.5-1.7 8-6 9.9z"/></g><g id="Auto_Preisig_AG"><path class="cls-1" d="M529.5.9a71.6 71.6 0 0 1 35.3 7.5 51.2 51.2 0 0 1 27.8 42.2 88 88 0 0 1-12.3 58 75.2 75.2 0 0 1-54.8 36.1 80.5 80.5 0 0 1-41.1-3.2A51.3 51.3 0 0 1 449.2 97a87.5 87.5 0 0 1 15.1-64 75 75 0 0 1 53-31.5c4-.6 8.1-.5 12.2-.7zm20 59.7l-.1-5c-.7-10-7.2-18.3-15.7-20.3A29.1 29.1 0 0 0 503 47.4a62.5 62.5 0 0 0-10.6 44.8c1 8.8 5.5 15.5 14.6 18.2a28.7 28.7 0 0 0 31.1-11.6 66.5 66.5 0 0 0 11.3-38.2zM942.6 80.5l5 2.4c6.5 3.6 10.3 9 10.7 16.8.5 8.3-1.5 16.2-2.6 24.3-.4 2.8-.8 5.5-1 8.3-.2 2.4.6 4.5 2.8 5.7 1.2.7 1.5 1.6 1.2 3-.3 1.5-1.5 1.4-2.7 1.4h-42c-2.2 0-2.4-.9-2.5-2.7-.3-8 2-15.7 3.3-23.5.8-4.6 1.6-9.1.5-13.8-1-4-3.4-6.6-7.1-8-8.2-3-16.8-1.6-25.2-1.8-1.9 0-1.3 2-1.5 3l-6 30-2.7 14.8c-.3 1.6-1.2 2-2.7 2h-38.5c-1.9 0-2-.5-1.6-2.2L850.2 39l6.3-31.8c.4-2 1.1-2.8 3.5-2.8 23.1.1 46.3 0 69.5.2 6.4 0 12.8 1.1 19 3 16 5.2 23.5 16 22.5 33.5a42.4 42.4 0 0 1-28.4 39.4zm-42.1-17.1h8.8c4.5-.3 9-.4 13.2-2.5 5.1-2.6 7.8-9 6.7-15.7-.7-3.9-4.9-6.8-10.3-7.6-7.8-1.2-15.7-.4-23.5-.7-1.3 0-2 .2-2.3 1.8-1.5 7.5-3.2 15-4.8 22.4-.3 1.6.1 2.4 2 2.3h10.2zM1955 131.8c-2.7 2-4.7 3.6-7 5a59.3 59.3 0 0 1-38.1 8.8c-12.1-1-23-4.7-32.2-12.7-10.3-9-16-20.5-17.9-33.6a91.2 91.2 0 0 1 9.9-58 71.2 71.2 0 0 1 47.2-37.7c19.2-4.4 38.2-4 56.4 4.4a45.2 45.2 0 0 1 26.2 36.5c1.1 7.2 1 7.2-6.3 7.2l-31.1.1c-2.2 0-3.2-.8-3.5-2.7-1.1-7.9-9.8-13.7-18-14.4-15.8-1.5-26.6 8.7-32.2 21.6a67 67 0 0 0-5 39c2.4 13.5 13.9 17.9 24.9 16.7 8.8-1 16-5.4 21.1-12.9.5-.7 1.6-1.4 1.2-2.4-.4-1-1.7-.4-2.5-.5h-13.8c-1.9.1-2.2-.6-1.9-2.2l5.3-23.8c.3-1.5 1-1.7 2.4-1.7h55.8c2 0 2.3.3 1.9 2.3a10699 10699 0 0 0-13.8 68.7c-.4 2-1 3-3.4 3-7.5-.2-15-.2-22.6 0-2.6 0-3.2-.9-3-3.3v-7.4zM1564.9 96.2h-15.5c-2 0-2.6-.2-2-2.5 1.6-7.3 3-14.8 4.5-22.2.3-1.6.4-3 2.8-3h56.8c.4 0 .7.2 1.1.3l-13 64.6c-.5 3 0 7-2.2 8.5-2.2 1.4-6 .5-9 .5h-15.9c-2.5.2-3.2-.7-3-3 .2-2.3 0-4.5 0-6.7-1-.7-1.6.3-2.1.7a59.6 59.6 0 0 1-43.7 12.2 52 52 0 0 1-48.3-42 88.6 88.6 0 0 1 17.3-75c11-13.7 25-22.7 42.5-25.8a84.1 84.1 0 0 1 54 6 45.3 45.3 0 0 1 24.8 35.6c1.2 7.3.9 7.3-6.6 7.3h-30.7c-1.8 0-2.6 0-3.2-2.3-2-8.5-9.3-14-18.2-14.7-13.2-1-22.6 4.8-29.1 15.6a65.8 65.8 0 0 0-8.4 43.8c1.9 13.6 12.2 18.8 24.2 18 10-.6 17.6-5.7 22.8-14.3.3-.4.6-.7 0-1.6zM323.5 4.5l-14.7 73c-2 10.2-3.8 20.5-7.7 30.3a55.4 55.4 0 0 1-48 37 108.2 108.2 0 0 1-42.8-2.2 42.4 42.4 0 0 1-32.8-35.2 77 77 0 0 1 1.6-30.3l14.4-69.6c.5-2.2 1.1-3.1 3.5-3h38.2c2.4-.1 2.7.6 2.2 2.8-4 19-8 38-11.7 57-2 10-5 20-5.2 30.2-.2 10.6 6 16.9 16.6 17 2.7.1 5.4.2 8-.3 7.6-1.5 12.2-6 14.9-13 3.6-9.2 4.8-19.1 7-28.7 4.4-20.8 8.5-41.7 12.8-62.5.3-1.4.5-2.6 2.5-2.6h41.2zM989.3 142.3l13.5-67.2 13.9-68.3c.4-2 1.1-2.4 3-2.4h101.9c2.2 0 2.7.5 2.2 2.8a709 709 0 0 0-5.3 26.6c-.4 2.5-1.3 3.2-3.8 3.2l-57.5-.1c-2.5 0-3.8.4-4.2 3.2-.6 4.5-1.6 9-2.8 13.3-.5 2.1 0 2.6 2 2.6h51.9c1.6 0 2.5-.2 2 2.2-2 8.3-3.7 16.8-5.4 25.2-.4 2.3-1.3 3.4-4 3.3-16.6-.2-33.2 0-49.8-.1-2.5 0-4 0-4.3 3.3-.7 5.6-2 11.2-3.2 16.8-.5 2.3 1 2 2.4 2h62.5c2 0 3-.1 2.4 2.8-2 9-3.6 18.2-5.2 27.4-.5 2.4-1.2 3.6-4.2 3.6H992.2l-2.9-.2zM1247 98.3h18.6c1 0 2.1-.5 2.7 1.3 3.4 11.7 6.7 14.3 18.8 15 3.8.2 7.5-.2 11-1.8 5.9-2.6 9.1-11.5 1.9-16.8-5.8-4.3-12.5-6.8-19-9.7-8.8-4-17.5-8.2-25.3-14a33 33 0 0 1-14-31 38 38 0 0 1 18.8-31.3c7.1-4.5 14.8-7 22.9-8.1a93 93 0 0 1 39 1.9c17.6 5.2 29.2 16.1 32.3 34.8l.1.3c1.1 6.2.9 6.5-5.3 6.5-10.6 0-21.1-.2-31.7 0-2.7 0-4-.4-4.3-3.2-1-11.4-20.5-14-27.1-7.1-4 4.1-3.8 8.1.7 11.6 6.6 5.1 14.4 8 22 11.4 8.8 4 17.8 7.6 25.3 13.9a34.9 34.9 0 0 1 12.4 33.8c-2.7 19.6-15 30.8-33.1 36.1a94 94 0 0 1-61-1.6 39.1 39.1 0 0 1-26.9-32.5c-1.3-9-1-9.5 8-9.5h13.1zM735.7 4.5c10 0 20-.2 30 0 8.8.3 17.4 1.7 25.7 4.9a31.7 31.7 0 0 1 21.8 27c1.5 11.2.5 22.5-4.3 33-6.8 14.9-19.2 22.4-34.7 26-13.3 3-26.8 2.2-40.3 2.3-7.8 0-7.9 0-9.3 7.5-2.2 11.6-4.4 23.1-6.4 34.7-.3 2-1 2.5-2.9 2.5h-38.8c-2.4.1-2.4-1.2-2-2.8l6.6-32.8 13-65.2c2.4-11.9 4.8-23.7 7-35.6.4-2.1 1.8-1.5 2.9-1.5h31.8zm8.4 60.6h8.5c3.5 0 7-.8 10.2-2 6-2.5 9.4-8.2 9-15.2-.5-6-3.3-9-10.7-10.4-7.2-1.4-14.5-.4-21.8-.7-1.9 0-1.5 1.6-1.8 2.5l-5.2 23.4c-.3 1.6-.2 2.6 2 2.4 3.3-.2 6.6 0 9.8 0zM1701.4 142.4l31.2-57.7 42.3-78c1-1.8 2-2.3 3.8-2.3h38.8c2.3 0 3.1.6 3.5 3 1.6 12 3.5 23.8 5.3 35.6l5.2 35 6 40.4c1.1 6.9 2 13.8 3.2 20.7.4 2.5 0 3.4-3 3.4-11.7-.2-23.5-.1-35.2 0-2 0-3-.3-3-2.6-.2-4-.7-8.2-1-12.2 0-1.7-.7-2.1-2.3-2.1h-40.3c-1.7 0-2.3.7-3 2.2-1.7 4.2-3.7 8.3-5.6 12.4-.5 1-1 2.3-2.7 2.3h-43.2zm89.2-94.6h-.8L1766.5 98h26.4c2 0 2.3-.5 2-2.3-.7-5.5-1-11-1.6-16.4l-2.7-31.6zM16.5 142.4l6-11.4L89.4 7.8c1.3-2.4 2.7-3.5 5.6-3.4 12.7.2 25.4 0 38.1 0 1.7 0 2.5.2 2.8 2.3 3.6 24.5 7.4 48.9 11.1 73.3l9 60.5c.5 2.8-1.3 1.9-2.5 1.9h-31.7c-2.2 0-5 .6-6.5-.4-1.7-1-.5-4-1-6-.6-2.6-.3-5.3-.4-8 0-1.7-.5-2.4-2.4-2.4H70.8c-1.7 0-2.2.8-2.8 2l-5.7 12.6c-.6 1.2-1 2.3-2.7 2.2H16.5zM105 47.2l-22.7 49c-.8 1.7-.1 2 1.4 2h24.4c1.8 0 2.1-.7 2-2.4-1.2-12.5-2.2-25.1-3.6-37.7-.4-3.4 0-7-1.5-10.9zM454.8 4.6c-2.4 10.7-4.8 21.1-7 31.6-.4 2.4-1.4 3-3.6 3-10.6-.2-21.2 0-31.8-.1-2.2 0-3.1.2-3.6 2.9-6.2 32.6-12.6 65.3-19 98-.3 1.7-1 2.5-2.9 2.4h-39.2c-2 0-2.5-.5-2.1-2.6 6.7-32.8 13.2-65.6 20-98.4.5-2.8-1-2.3-2.5-2.3H326.3c2.4-11.2 4.8-22 7-33 .3-1.2 1-1.7 2.2-1.6h119.3zM1158.4 142.4H1139c-2.2.1-2.8-.3-2.3-2.6 2.8-13.3 5.4-26.7 8-40l14-68.3 5-25c.2-1.4.8-2 2.5-2h39.9c1.8 0 2.2.5 1.9 2.2-5.2 25-10.3 50-15.3 75.1-3.9 19-7.7 38.1-11.3 57.2-.6 3-1.7 3.5-4.3 3.4h-18.7zM1450.2 4.5l-19.6 96-7.9 39.6c-.3 1.8-1.1 2.4-2.8 2.3h-39.5c-2.1 0-2.3-.6-2-2.5l21.8-107.3 5.4-26.2c.3-1.4.6-2 2.1-2h42.5z"/></g></svg>