<?xml version="1.0" encoding="UTF-8"?><svg id="Layer_1" xmlns="http://www.w3.org/2000/svg" viewBox="0 0 1024 1024"><path d="M328.39,741.72h-19.66c1.6-6.6,6.6-8.13,10.05-8.13,4.55,0,8.65,2.43,9.61,8.13Zm335.45-8.13c-6.98,0-10.57,6.02-10.57,11.33,0,6.02,4.48,10.95,10.57,10.95s10.37-4.61,10.37-11.2c0-7.36-5.32-11.08-10.37-11.08Zm-83.26,0c-4.42,0-10.44,3.78-10.44,11.21,0,6.72,5.06,11.08,10.44,11.08,6.21,0,10.31-5.38,10.31-11.01,0-6.47-4.99-11.27-10.31-11.27Zm-319.95-10.25h-3.14v12.93h2.82c3.78,0,9.92-.26,9.92-6.47s-6.02-6.47-9.6-6.47Zm157.67,10.25c-5.12,0-10.37,4.16-10.37,10.88,0,7.24,5.44,11.4,10.63,11.4s10.18-4.35,10.18-11.46c0-5.06-4.1-10.82-10.44-10.82Zm203.07,0c-5.12,0-10.37,4.16-10.37,10.88,0,7.24,5.44,11.4,10.63,11.4s10.18-4.35,10.18-11.46c0-5.06-4.1-10.82-10.44-10.82Zm146.27,0c-5.12,0-10.38,4.16-10.38,10.88,0,7.24,5.44,11.4,10.63,11.4s10.18-4.35,10.18-11.46c0-5.06-4.1-10.82-10.44-10.82Zm42.14,0c-3.46,0-8.45,1.54-10.05,8.13h19.66c-.96-5.7-5.06-8.13-9.61-8.13Zm-328.59-6.08h-.13l-5.38,14.54h10.89l-5.38-14.54Zm-305.19,19.84c-4.1,0-6.09,3.55-6.09,6.34,0,3.2,2.53,6.25,6.05,6.25s6.18-2.85,6.18-6.25c0-3.78-2.72-6.34-6.15-6.34Zm673.72-4.04l-3.04,9.07h6.12l-3.01-9.07h-.06Zm-124.28-9.73c-6.98,0-10.56,6.02-10.56,11.33,0,6.02,4.48,10.95,10.56,10.95s10.37-4.61,10.37-11.2c0-7.36-5.32-11.08-10.37-11.08Zm-510.76,13.76c-3.2,0-5.57,2.59-5.73,5.19h11.47c-.16-2.59-2.53-5.19-5.73-5.19Zm239.14-409.17c0-16.9,27.31-30.36,58.69-30.36s58.11,13.6,58.11,30.36-26.44,30.37-58.11,30.37-58.69-13.47-58.69-30.37Zm98.48,17.54c0-.22-.13-.39-.46-.42-.48-.04-2.81-.28-3.98-.42-1.79-.21-4.86-.66-5.89-.89-1.08-.24-1.6-.55-2.09-1.55-.28-.56-.47-1.08-.67-1.8-.11-.45-.55-1.91-.62-2.15-.07-.29-.23-.37-.4-.37-.19,0-.34,.06-.43,.38-.1,.31-.46,1.7-.6,2.17-.17,.54-.32,1.07-.63,1.75-.37,.79-.9,1.35-2.04,1.57-1.75,.35-4.89,.85-5.64,.96-2.83,.39-3.5,.47-5.44,.27-1.49-.14-4.83-.66-7.03-1-1.34-.2-2.71-.3-3.46-1.56-.44-.75-.68-1.48-.97-2.41-.26-.8-.65-2.2-.73-2.54-.09-.27-.2-.43-.44-.43s-.36,.15-.45,.45c-.1,.3-.53,1.78-.73,2.49-.32,1.04-.59,1.87-.99,2.43-.76,1.1-1.47,1.24-3.29,1.55-1.92,.32-4.3,.59-6.16,.78-1.63,.19-2.66,.3-3.26,.37-.3,.04-.48,.14-.48,.43s.18,.4,.48,.44c.54,.08,2.15,.25,3.27,.37,1.88,.2,3.59,.37,6.15,.77,2.48,.38,2.92,.72,3.71,2.59,.4,.93,.55,1.62,.71,2.35,.18,.79,.54,2.37,.6,2.7,.02,.24,.16,.44,.42,.44s.39-.17,.44-.45c.06-.37,.44-2.04,.62-2.69,.18-.73,.35-1.45,.68-2.35,.8-2.02,1.44-2.24,3.86-2.61,1.86-.29,5.3-.81,7.05-1.01,1.95-.18,2.73-.18,5.46,.22h0c.94,.15,4.24,.63,5.59,.88,1.13,.24,1.7,.6,2.25,1.94,.18,.44,.46,1.4,.61,1.95,.2,.7,.46,1.76,.49,1.86,.03,.13,.16,.27,.38,.27,.2,0,.33-.15,.37-.28,.07-.15,.36-1.24,.55-1.88,.15-.55,.42-1.44,.62-1.92,.33-.79,.76-1.64,2.12-1.9,1.36-.24,4.47-.64,6.01-.82,1.17-.13,3.7-.46,3.99-.49,.31-.05,.44-.23,.44-.43Zm10.83-13.65c-1.65-.25-3.36-.52-4.29-.73-.7-.17-1.39-.65-1.71-1.32-.37-.76-.53-1.23-.8-2.07-.17-.62-.42-1.52-.49-1.77-.07-.27-.27-.34-.43-.34s-.33,.08-.41,.35c-.09,.31-.31,1.11-.5,1.76-.27,.96-.47,1.49-.77,2.06-.33,.65-.85,1.13-1.89,1.36-1.93,.41-3.61,.76-4.66,.92-2.26,.34-3.34,.5-6.76,.02-1.53-.23-4.12-.62-6.16-1.01-1.12-.22-2.13-.54-2.69-1.64-.36-.74-.6-1.61-.87-2.5-.17-.56-.5-1.7-.62-2.14-.08-.3-.2-.41-.44-.41s-.36,.12-.44,.41c-.11,.37-.42,1.48-.61,2.13-.26,.87-.52,1.78-.88,2.5-.55,1.12-1.46,1.39-2.64,1.64-1.69,.35-4.38,.64-6.79,.89-1.06,.14-3.02,.37-3.48,.44-.26,.02-.4,.16-.4,.41s.1,.39,.4,.42c.42,.06,2.72,.32,3.46,.41,1.29,.14,4.37,.57,6.79,.91,1.66,.24,2.55,.89,3.04,2.84,.26,1.06,.49,1.83,.65,2.65,.15,.66,.38,1.72,.45,1.93,.09,.31,.23,.43,.43,.43s.37-.09,.46-.45c.04-.2,.33-1.51,.41-1.87,.18-.77,.41-1.72,.66-2.7,.49-1.75,1.01-2.34,3.1-2.83,1.64-.38,4.67-.77,6.13-.97,3.6-.52,4.54-.34,6.79-.04h0c1.01,.14,2.73,.48,4.66,.91,1.29,.3,1.72,.96,2.01,1.78,.3,.8,.51,1.72,.76,2.69,.22,.82,.37,1.55,.39,1.68,.06,.25,.24,.39,.42,.39,.19,0,.38-.12,.43-.36,.04-.18,.19-.9,.39-1.72,.23-.88,.48-1.85,.76-2.69,.26-.78,.7-1.42,1.84-1.7,1.08-.24,2.86-.54,4.31-.76,1.26-.19,3.43-.47,3.73-.51,.32-.05,.44-.24,.44-.42,0-.19-.1-.4-.44-.44-.31-.05-2.4-.33-3.75-.53Zm-104.01-11.12c.31,.04,7.97,.85,10.37,1.11,5.43,.58,10.46,1.22,15.27,2.05,4.67,.81,5.76,3.2,6.65,6.16,.7,2.34,1.64,6.45,1.96,8.05,.32,1.41,.88,4.35,.95,4.61,.07,.32,.21,.45,.44,.45,.21,0,.37-.11,.46-.45,.06-.28,.62-3.31,.91-4.62,.35-1.57,1.31-5.85,1.97-8.07,1.18-3.91,2.34-5.27,6.48-5.99,4.17-.74,11.99-1.67,16.66-2.23,1.17-.14,3.87-.38,6.37-.68,4.77-.53,5.18-.49,9.88,.09,2.47,.3,4.17,.54,6.16,.87,1.6,.27,2.2,.73,2.69,2.11,.39,1.11,.7,2.32,.9,3.15,.18,.73,.42,1.91,.48,2.16,.07,.3,.28,.36,.4,.36s.37-.09,.44-.36c.07-.31,.29-1.43,.47-2.16,.18-.74,.6-2.25,.91-3.15,.45-1.27,1.17-1.82,2.36-2.07,1.33-.29,3.62-.6,5.28-.84,1.27-.18,3.94-.52,4.13-.54,.26-.02,.41-.19,.41-.44,0-.22-.17-.38-.41-.41h0c-.18,0-2.78-.35-4.16-.53-1.59-.23-3.57-.46-5.35-.84-.72-.14-1.68-.53-2.17-1.54-.35-.71-.54-1.45-.97-2.85-.13-.4-.42-1.53-.49-1.81-.09-.31-.26-.38-.42-.38s-.33,.05-.44,.38c-.08,.29-.37,1.27-.51,1.78-.44,1.48-.68,2.29-.97,2.9-.47,.95-1.23,1.34-2.49,1.57-1.24,.21-3.76,.56-6.29,.89-4.93,.61-5.14,.6-9.86,.07-1.42-.15-5.17-.63-6.4-.8-4.53-.54-12.06-1.3-16.64-2.11-2.48-.46-4.71-.99-6.14-4.52-.96-2.38-1.54-4.51-2.07-6.44-.46-1.6-.97-3.78-1.14-4.51-.09-.35-.23-.47-.46-.47-.2,0-.34,.11-.45,.47-.19,.72-.78,2.99-1.22,4.5-.55,1.87-1.07,4.09-2.04,6.45-1.25,2.98-2.83,3.9-6.07,4.54-4.64,.88-10.29,1.58-15.53,2.14-2.57,.28-10.03,1.09-10.34,1.13-.32,.03-.42,.27-.42,.41,0,.16,.1,.39,.42,.42Zm43.7,63.01h-11.76v4.15h11.63c1.33-.05,2.43-.52,2.43-2.1s-1.33-2-2.3-2.05Zm18.88,.43h8.25l-4.09-7.94-4.16,7.94Zm-16.91-6.89c0-1.18-.91-1.62-1.97-1.7h0s-11.76,0-11.76,0v3.6h11.66c1.25-.07,2.07-.72,2.07-1.9Zm55.4-1.7h-11.93v4.23h11.93c1.37-.07,2.08-.74,2.08-2.13s-.72-1.99-2.08-2.1Zm-55.7,451.54c-15.86,0-29.67,10.7-33.69,25.95h51.45c.38,0,.68,.3,.68,.68,0,.23-.15,.38-.3,.53l-12.6,8.65,29.07,1.82c.08-.91,.15-1.9,.15-2.88,0-19.2-15.56-34.76-34.76-34.76Zm-18.44,42.88c0-.23,.15-.38,.3-.53l12.6-8.73-29.07-1.82c-.08,.99-.15,1.97-.15,2.96,0,19.2,15.56,34.76,34.76,34.76,15.78,0,29.6-10.7,33.62-25.95h-51.38c-.38,0-.68-.3-.68-.68Zm-31.05,54.64c-.38-.83-.99-1.52-1.82-1.82-1.14-.46-2.35-.68-3.57-.61-1.21-.08-2.43,.15-3.57,.61-.76,.38-1.44,.99-1.82,1.82-.38,.99-.61,2.05-.53,3.11-.08,1.06,.15,2.12,.53,3.11,.3,.83,.99,1.44,1.82,1.82,1.06,.46,2.28,.61,3.57,.53,1.21,0,2.43-.15,3.57-.61,.76-.3,1.44-.91,1.82-1.75,.38-.99,.61-2.05,.53-3.11,.08-1.06-.15-2.12-.53-3.11Zm36.58-1.97c-.61-.23-1.21-.3-1.9-.3h-5.69v5.39h5.69c.83,.08,1.75-.15,2.43-.61,.53-.61,.83-1.37,.76-2.12,0-.46-.08-.99-.3-1.44s-.61-.76-.99-.91Zm105.02-707.4c-2.3-.34-4.61-.09-6.92-.14-.34,0-.39,.21-.44,.5-.32,1.74-.67,3.48-1.01,5.22-.1,.52,0,.82,.64,.8,1-.04,2.01-.01,3.38-.01,1.43-.11,3.3,.29,4.99-.73,1.22-.74,1.67-1.86,1.61-3.19-.06-1.39-.86-2.24-2.25-2.45Zm1.34-12.23c-1.82-.32-3.65-.07-5.48-.19-.69-.04-.63,.5-.72,.86-.4,1.67-.75,3.35-1.14,5.11,2.24,0,4.41,.05,6.58-.03,.67-.02,1.33-.39,1.88-.83,1.12-.89,1.06-2.14,.86-3.35-.17-1.03-.99-1.39-1.98-1.57Zm-184.58-52.2c1.22-.08,2.44-.02,3.66-.02,1.05,0,2.09,.01,3.14,0,1.31-.02,2.58-.27,3.8-.76,2.25-.9,3.5-3.02,3.32-5.61-.16-2.24-1.19-3.32-3.96-3.87-2.67-.52-5.38-.14-8.08-.25-.72-.03-.59,.58-.66,.9-.68,2.89-1.3,5.79-1.94,8.7-.13,.59-.08,.96,.73,.91Zm57.89-.63c1.26-.04,2.53-.01,3.79-.01h0c1.09-.01,2.18,.04,3.27-.02,1.68-.09,3.38-.13,4.93-.92,1.89-.96,2.9-3.32,2.46-5.82-.25-1.44-1.78-2.52-3.8-2.83-2.91-.44-5.82-.13-8.73-.24-.5-.02-.75,.07-.86,.66-.55,2.78-1.18,5.55-1.78,8.33-.13,.59,.05,.87,.72,.85Zm335.25,5.92c-.35-3.91-.69-7.82-1.03-11.73h-.3c-2.86,6.18-5.72,12.37-8.64,18.69,3.46,0,6.64-.02,9.82,.01,.73,0,.82-.2,.74-.89-.25-2.02-.4-4.05-.58-6.08Zm-467.62-16.37c-4.21-.99-8.62,.61-11.39,4.5-3.56,5-4.62,10.67-3.92,16.64,.38,3.24,2.04,5.75,5.43,6.76,4.13,1.23,8.76-.47,11.54-4.33,3.05-4.24,4.04-9.09,4.19-14.18,0-.61,.03-1.22,0-1.83-.25-3.75-2.67-6.81-5.84-7.56Zm685.1,132.74v225.3H0v-225.3C0,127.21,127.21,0,282.7,0h458.6c155.48,0,282.7,127.21,282.7,282.7Zm-460.4-92.95c2.4-.05,4.8-.02,7.21-.02h0c2.31,0,4.63-.05,6.94,0,.98,.02,1.4-.18,1.6-1.29,1.33-7.08,2.77-14.15,4.19-21.21,1.88-9.31,3.77-18.61,5.67-27.91,.13-.63-.04-.83-.7-.83-4.93,.02-9.87,.03-14.8,0-.62,0-.85,.24-.95,.79-.61,3.09-1.22,6.18-1.84,9.26-1.71,8.45-3.44,16.91-5.15,25.36-1,4.95-1.96,9.9-3,14.84-.18,.85,.03,1,.84,.99Zm-88.01,39.95c1.65-7.8,3.28-15.61,4.91-23.42,.16-.76,.08-1.16-.91-1.14-3.01,.07-6.02,.06-9.03,0-.82-.02-1.13,.27-1.28,1.01-.97,4.95-1.96,9.9-2.97,14.85-1.19,5.88-2.41,11.75-3.62,17.63-.16,.77-.07,1.16,.92,1.14,4.15-.06,8.29-.03,12.44-.03,4.15,0,8.29,0,12.44,0,.54,0,1.04,.05,1.17-.69,.44-2.42,.87-4.84,1.39-7.24,.19-.88-.02-1.07-.9-1.06-4.54,.04-9.08,0-13.62,.04-.9,0-1.13-.22-.94-1.1Zm-26.39,108.48c0,18.75,29.1,33.96,63.29,33.96s62.76-15.19,62.76-33.96-28.56-33.96-62.76-33.96-63.29,15.19-63.29,33.96Zm83-108.62c1.65-7.81,3.27-15.62,4.9-23.43,.15-.71-.02-.99-.82-.98-3.05,.04-6.11,.03-9.16,0-.68,0-.95,.16-1.09,.91-.63,3.44-1.37,6.85-2.06,10.28-1.5,7.44-2.94,14.9-4.53,22.32-.25,1.18,.16,1.1,.95,1.09,4.06-.02,8.12,0,12.17,0s8.29,0,12.44,0c.61,0,1.09,0,1.23-.77,.44-2.42,.9-4.84,1.4-7.25,.18-.85-.13-.99-.92-.98-4.49,.04-8.99-.01-13.48,.04-1.05,.01-1.24-.29-1.04-1.25Zm-24.15-39.88c.38,.02,.72,.05,1.06,.05,13.01,0,26.02-.02,39.03,.03,1.12,0,1.37-.46,1.54-1.34,.62-3.4,1.2-6.8,1.95-10.17,.24-1.08-.15-1.03-.9-1.02-2.58,.02-5.15,0-7.73,0-5.15,0-10.3,0-15.46,0-.53,0-1.07,.1-.89-.77,.43-2.07,.93-4.14,1.16-6.23,.14-1.19,.68-1.23,1.61-1.23,6.16,.03,12.31-.02,18.47,.05,1.02,.01,1.34-.38,1.51-1.23,.64-3.13,1.24-6.26,1.98-9.37,.21-.88-.12-.83-.72-.83-3.41,.01-6.81,0-10.22,0-3.01,0-6.03-.02-9.04,.01-.79,0-.95-.18-.75-.97,.42-1.63,.79-3.27,1.03-4.93,.15-1.02,.63-1.19,1.54-1.19,7.12,.03,14.23,0,21.35,.04,.93,0,1.25-.27,1.41-1.18,.59-3.31,1.25-6.61,1.97-9.89,.19-.87,.01-1.02-.82-1.02-12.62,.02-25.23,.02-37.85,0-.67,0-.94,.14-1.09,.89-1.68,8.46-3.44,16.91-5.15,25.36-1.68,8.28-3.33,16.56-5,24.92Zm-58.54,.06c4.76-.02,9.52-.01,14.28,0,.56,0,.88-.15,.99-.76,.32-1.83,.7-3.64,1.05-5.47,.72-3.73,1.41-7.46,2.19-11.18,.07-.35-.14-1.12,.58-1.11,3.12,.08,6.29-.45,9.32,.67,1.39,.51,2.3,1.47,2.65,2.96,.41,1.75,.1,3.44-.18,5.15-.47,2.9-1.35,5.74-1.23,8.72,.03,.67,.11,1.02,.92,1.01,5.2-.03,10.39-.02,15.59-.02,.44,0,.89,.04,1.02-.55,.11-.49,0-.82-.46-1.08-.81-.46-1.09-1.23-1.02-2.11,.08-1.03,.21-2.07,.35-3.09,.42-3,1.17-5.95,.99-9.02-.17-2.87-1.56-4.88-4.02-6.24-.52-.29-1.07-.52-1.83-.88,6.68-2.8,10.2-7.63,10.56-14.63,.34-6.49-2.41-10.51-8.39-12.41-2.29-.73-4.66-1.13-7.04-1.15-8.6-.07-17.2-.02-25.81-.07-.85,0-1.12,.32-1.26,1.04-.78,3.93-1.58,7.86-2.36,11.8-2.49,12.52-4.97,25.04-7.49,37.56-.13,.64-.1,.85,.6,.85Zm-276.31,25.08c-.22-3.09-1.33-5.69-3.87-7.61-2.19-1.65-4.69-2.43-7.35-2.67-4.39-.4-8.69-.15-12.63,2.15-5.44,3.17-6.34,11.09-1.67,15.14,1.95,1.69,4.27,2.79,6.62,3.85,1.69,.76,3.51,1.29,4.97,2.51,.74,.62,1.23,1.31,1.01,2.36-.23,1.09-.91,1.64-1.88,2.13-1.64,.83-3.12,.33-4.65-.21-1.33-.47-2.14-1.33-2.14-2.76,0-.82-.41-.91-1.06-.9-1.44,.02-2.88,0-4.32,0-.96,0-1.92,0-2.88,0-2.73,0-3,.34-2.45,3.04,0,.04,.04,.08,.05,.12,.95,4.48,4.06,6.82,8.21,7.95,3.25,.88,6.58,1.04,9.97,.61,3.31-.42,6.3-1.4,8.88-3.58,3.73-3.16,4.83-10.79,.34-14.47-1.81-1.48-3.81-2.55-5.94-3.44-2.08-.87-4.24-1.6-6.04-2.99-1.56-1.21-1.36-2.83,.42-3.69,2.25-1.09,5.18,.07,5.99,2.4,.13,.38,.15,.69,.71,.69,3.06-.03,6.11-.02,9.17-.02,.42,0,.59-.09,.56-.6Zm25.5-25.8c-1.15-7.48-2.23-14.97-3.37-22.46-1.37-9.06-2.79-18.12-4.12-27.19-.12-.81-.4-.86-1.04-.86-4.71,.02-9.43,.05-14.14-.02-1.08-.02-1.6,.36-2.09,1.27-8.23,15.26-16.5,30.49-24.76,45.74-.74,1.36-1.46,2.72-2.27,4.22,5.48,0,10.75-.01,16.02,.02,.65,0,.78-.4,.97-.81,.72-1.57,1.43-3.14,2.14-4.71,.2-.45,.42-.74,1.03-.73,5.02,.03,10.04,.03,15.06,0,.71,0,.9,.26,.91,.9,.02,1-.08,2.01,.16,2.99,.19,.75-.26,1.83,.34,2.2,.61,.37,1.6,.14,2.42,.14,3.93,0,7.86,.02,11.79,0,.42,0,1.1,.32,.95-.7Zm39.96,28.77c-.07-4.6-1.96-9.6-7.03-12.02-2.06-.98-4.27-1.32-6.56-1.45-7.04-.4-12.8,2.08-17.06,7.66-3.83,5.02-5.01,10.78-4.02,16.96,.91,5.66,4.17,9.34,9.67,11.09,1.48,.47,3.05,.43,4.49,.98h2.62c.76-.48,1.66-.29,2.49-.43,7.51-1.28,11.94-5.84,14.14-12.89,.29-.92,.06-1.11-.84-1.1-2.88,.05-5.76,.05-8.64,0-.79-.01-1.12,.27-1.42,.97-.54,1.29-1.38,2.4-2.5,3.29-3.46,2.72-8.31,1.34-9.19-2.62-.43-1.9-.33-3.79-.02-5.69,.5-3.01,1.48-5.81,3.81-7.92,1.94-1.76,4.24-2.33,6.77-1.46,2.21,.76,2.94,2.54,2.98,4.7,.01,.55,.29,.64,.74,.64,2.97,0,5.94-.01,8.91,0,.53,0,.67-.21,.66-.71Zm22.21-79.26c-5.15,0-10.22,.02-15.28-.02-.76,0-.84,.46-.94,.95-1.59,7.73-3.11,15.48-4.77,23.2-.77,3.57-1.22,7.23-2.57,10.67-1.01,2.56-2.71,4.27-5.5,4.8-1,.19-2,.17-2.99,.15-3.91-.08-6.22-2.4-6.16-6.33,.05-3.83,1.21-7.49,1.94-11.21,1.38-7.07,2.87-14.12,4.35-21.17,.17-.83,.08-1.08-.84-1.07-4.72,.05-9.43,.04-14.15,0-.89,0-1.14,.31-1.31,1.14-1.76,8.62-3.6,17.22-5.37,25.84-.76,3.71-1.29,7.46-.57,11.23,1.32,6.86,5.38,11.24,12.16,13.08,5.24,1.42,10.54,1.49,15.91,.79,8.64-1.13,14.64-5.54,17.82-13.71,1.42-3.65,2.11-7.45,2.86-11.26,1.77-9.01,3.61-18,5.43-27.1Zm44.13,66.64c-2.92,0-5.85,.06-8.77-.03-1.06-.03-1.38,.34-1.56,1.31-.61,3.27-1.32,6.51-1.95,9.78-.14,.72-.41,.98-1.19,.97-2.62-.05-5.24-.08-7.86,0-1.27,.04-1.43-.38-1.18-1.5,.72-3.15,1.34-6.33,1.98-9.5,.12-.59,.19-1.06-.75-1.05-3.1,.06-6.2,.04-9.3,.01-.66,0-.9,.25-1.01,.88-.41,2.29-.85,4.58-1.31,6.86-1.75,8.63-3.48,17.26-5.29,25.87-.2,.93,0,1.01,.8,1,2.92-.03,5.85-.07,8.77,.01,1.07,.03,1.37-.37,1.55-1.33,.67-3.69,1.43-7.37,2.15-11.06,.14-.7,.42-1.07,1.28-1.05,2.62,.07,5.24,.08,7.86,0,1.25-.04,1.41,.35,1.15,1.49-.82,3.66-1.52,7.35-2.27,11.03-.13,.64,0,.93,.76,.9,1.57-.06,3.14-.02,4.71-.02,1.48,0,2.97-.08,4.45,.03,.93,.07,1.2-.36,1.34-1.11,.54-2.93,1.07-5.86,1.65-8.78,1.57-7.96,3.13-15.92,4.79-23.86,.21-1.03-.23-.86-.81-.86Zm2.04-54.85c.79-3.89,1.69-7.75,2.57-11.74-.3-.02-.47-.04-.65-.04-14.41,0-28.83,0-43.24,0-.13,0-.26,.01-.39,0-.47-.05-.69,.14-.79,.63-.85,4.04-1.72,8.08-2.61,12.22,.48,0,.92,0,1.35,0,4.11,0,8.21,0,12.32,0,.55,0,1.1-.19,.88,.85-2.5,12.17-4.92,24.36-7.4,36.54-.16,.79,.01,.99,.79,.98,4.85-.03,9.7-.03,14.54,0,.74,0,.97-.29,1.1-.94,2.34-12.12,4.72-24.23,7.02-36.36,.18-.97,.54-1.08,1.34-1.07,3.93,.03,7.86,0,11.79,.03,.83,0,1.19-.19,1.37-1.08Zm28.83,40.28c8.85-1.38,15.69-5.86,20.34-13.41,4.05-6.58,5.47-13.84,4.55-21.53-.82-6.94-3.99-12.38-10.32-15.68-4.08-2.13-8.5-2.87-13.08-2.77-1.52,.07-3.03,.05-4.56,.25-8.25,1.09-14.79,5.01-19.64,11.69-5.18,7.12-6.65,15.24-5.63,23.79,.96,8.03,5.45,13.62,13.06,16.46,4.93,1.84,10.07,2.03,15.27,1.22Zm41.71,14.54c-2.66,.08-5.33,.05-7.99,.01-.75-.01-1.18,.16-1.43,.94-.68,2.05-1.45,4.06-2.2,6.09-1.62,4.41-3.25,8.83-4.84,13.15,0-1.25-.04-2.55,0-3.86,.19-5.13,.4-10.26,.64-15.39,.04-.77-.22-.96-.94-.93-1.44,.05-2.88,.02-4.32,.02-3.43,0-3.4,0-4.69,3.23-2.18,5.48-4.4,10.94-6.6,16.41-.06,0-.12,0-.18,0,.12-2.21,.25-4.42,.37-6.63,.22-4.04,.41-8.08,.66-12.12,.05-.77-.23-.93-.95-.92-2.71,.04-5.42,.04-8.12,0-.72,0-.95,.16-.94,.92,.11,10.89,.2,21.78,.26,32.66,0,.77,.18,1.05,1.01,1.03,2.79-.06,5.59-.05,8.38,0,.76,.01,1.07-.27,1.31-.94,1.05-2.84,2.14-5.66,3.23-8.48,1.25-3.27,2.51-6.53,3.77-9.8-.07,6.06-.12,12.06-.15,18.07,0,.92,.21,1.17,1.14,1.14,2.62-.07,5.24-.08,7.86,0,1.05,.03,1.5-.32,1.9-1.27,2.4-5.74,4.88-11.45,7.33-17.17,2.13-4.96,4.24-9.94,6.42-14.88,.51-1.15,.23-1.35-.93-1.31Zm28.74-15.4c.69,0,.95-.22,1.08-.94,.75-4.29,1.56-8.58,2.37-12.86,.53-2.79,.54-2.77,3.44-2.79,5-.04,10.02,.25,14.96-.87,5.75-1.3,10.37-4.12,12.9-9.66,1.78-3.89,2.14-8.06,1.6-12.22-.63-4.89-3.4-8.28-8.1-10.05-3.08-1.16-6.28-1.68-9.54-1.77-3.71-.11-7.42-.02-11.13-.02v-.02c-3.93,0-7.86,0-11.79,0-.41,0-.91-.23-1.06,.56-.83,4.41-1.72,8.8-2.6,13.2-1.61,8.08-3.23,16.15-4.85,24.23-.82,4.06-1.65,8.11-2.47,12.17-.12,.59-.13,1.06,.78,1.05,4.8-.04,9.6-.03,14.4-.02Zm10.37,50.01c4.32,0,8.65,0,12.97,.01,.67,0,1.16-.04,1.29-.87,.32-2.05,.6-4.12,1.14-6.11,.33-1.23-.09-1.23-1.04-1.23-4.94,.03-9.87,0-14.81,.03-.9,0-1.15-.2-.86-1.12,.33-1.02,.54-2.1,.64-3.17,.11-1.05,.46-1.46,1.61-1.43,3.93,.08,7.86,0,11.79,.06,.84,.01,1.16-.29,1.3-1.04,.35-1.87,.63-3.76,1.13-5.59,.27-1.01-.04-1.07-.88-1.07-4.02,.03-8.04,0-12.05,.02-.74,0-1.17-.02-.83-.97,.29-.8,.5-1.68,.51-2.53,.02-1.2,.66-1.27,1.61-1.26,4.54,.03,9.08-.01,13.63,.03,.83,0,1.16-.28,1.31-1.04,.4-2.03,.83-4.06,1.3-6.08,.21-.94,.03-1.25-1.04-1.25-8.17,.05-16.33,.05-24.5,0-1.02,0-1.29,.34-1.47,1.26-.88,4.58-1.85,9.14-2.78,13.7-1.26,6.22-2.51,12.44-3.79,18.66-.17,.8,0,1.01,.85,1,4.32-.05,8.65-.02,12.97-.02Zm37.45,155.86c-.13-3.86-2.37-5.74-5.46-6.03-1.99-.17-12.65-.66-14.15-.79-1.14-.1-1.61-.68-1.61-1.63,0-.77,.49-1.38,1.51-1.45,3.41-.23,9.33-.18,11.66-.04,1.15,.07,1.61,.64,1.67,1.31v1.01h5.78v-.9c-.11-4.34-2.2-6-6.19-6.16-4.34-.17-9.05-.22-13.54,.04h0c-2.99,.17-6.16,1.75-6.6,5.44-.09,.79-.09,1.29-.02,1.91,.47,4.05,3.43,5.04,5.8,5.24,2.44,.21,12.42,.75,13.64,.84,1.64,.14,1.87,.78,1.87,1.65,0,.98-.45,1.55-1.87,1.64-3.07,.18-8.85,.13-11.75,.03-1.02-.04-1.76-.31-1.8-1.54v-1.06h-5.79s-.01,.5,0,.64c.03,4.55,1.58,6.66,5.91,6.99,4.19,.32,10.51,.28,15.19-.02,4.1-.26,5.6-3.1,5.76-6.36,.01-.17,0-.5,0-.77Zm28.08-14.64h-5.77v14.59c-.04,1.34-.86,1.89-1.93,1.99-3.44,.26-7.14,.26-10.7,0-.97-.09-1.74-1.01-1.78-2.04v-14.54h-5.74v15.85c.16,3.79,2.41,5.9,6.26,6.05,4.39,.17,8.89,.19,13.67,0,3.65-.15,5.78-2.42,5.98-6.06v-15.84Zm28.71,15.24c0-2.99-1.43-4.61-2.51-4.93,.9-.39,1.93-1.71,1.93-4.28,0-3.86-2.45-5.88-6.07-6.02-3.73,0-19,0-19,0v21.97h0s0,0,0,0h19.16c4.49-.12,6.5-2.49,6.5-6.74Zm30.15,6.73l-11.98-21.97h-6.46l-11.99,21.97h6.55l2.04-3.9h13.08l2.01,3.9h6.74Zm27.17,0s-.02-3.18-.1-5.54c-.07-2.53-1.36-4.5-2.52-4.86,.96-.53,2.29-1.91,2.29-4.95,0-4.52-2.38-6.45-6.17-6.63h-19.24v21.98h5.75v-7.88h11.93c1.36,.03,2.06,.93,2.14,2.12,.15,2.24,.09,5.74,.09,5.74l5.83,.02Zm28.36-21.98h-5.77v14.59c-.03,1.34-.85,1.89-1.92,1.99-3.44,.26-7.14,.26-10.71,0-.97-.09-1.73-1.01-1.77-2.04v-14.54h-5.73v15.85c.16,3.79,2.41,5.9,6.25,6.05,4.39,.17,8.89,.19,13.67,0,3.65-.15,5.79-2.42,5.99-6.06v-15.84Zm8.58-158.64c3.95-2.09,5.24-5.42,5.07-9.59-.11-2.88-1.43-4.81-3.98-6.04-2.33-1.12-4.85-1.42-7.35-1.49-5.11-.14-10.22-.03-15.33-.05-.63,0-.86,.16-1,.83-.99,5.08-2.06,10.15-3.09,15.23-1.19,5.84-2.35,11.68-3.58,17.51-.23,1.06,.25,1.03,.99,1.03,6.42-.02,12.84-.02,19.26-.01,1.97,0,3.9-.31,5.77-.88,4.16-1.28,6.57-4.1,7.12-8.39,.45-3.46-.5-6.36-3.89-8.14Zm35.55-46.18c.69-4.96-.6-9.26-4.59-12.57-2.81-2.33-6.15-3.69-9.42-5.16-2.8-1.25-5.7-2.32-8.16-4.22-1.67-1.29-1.71-2.79-.26-4.32,2.45-2.58,9.66-1.6,10.05,2.65,.09,1.03,.62,1.21,1.6,1.19,3.93-.07,7.86-.03,11.79-.03,2.29,0,2.38-.11,1.96-2.39,0-.04-.03-.08-.03-.13-1.16-6.93-5.46-10.97-11.99-12.91-4.76-1.42-9.64-1.35-14.49-.71-3,.39-5.86,1.36-8.48,3-4.32,2.71-6.6,6.49-6.98,11.62-.37,4.86,1.31,8.61,5.17,11.49,2.9,2.17,6.12,3.74,9.41,5.22,2.4,1.08,4.88,2.01,7.04,3.6,2.7,1.99,1.47,5.27-.71,6.24-1.3,.58-2.68,.73-4.08,.66-4.48-.23-5.73-1.22-6.99-5.54-.2-.69-.61-.49-.99-.5-2.31-.02-4.63,0-6.94,0-1.62,0-3.23,0-4.85,0-3.33,0-3.47,.23-2.97,3.54,.9,6.04,4.42,9.98,9.98,12.06,7.43,2.78,15.05,2.85,22.62,.6,6.72-1.99,11.29-6.15,12.3-13.4Zm33.69,36.14c-.24-1.99-1.1-3.69-2.83-4.92-2.31-1.65-4.99-2.07-7.66-2.15-5.76-.16-11.53-.06-17.29-.07-.5,0-.74,.09-.83,.69-.2,1.41-.53,2.8-.82,4.19-1.03,5.08-2.06,10.16-3.08,15.25-.89,4.45-1.75,8.9-2.65,13.34-.18,.9,.06,1.16,1.02,1.14,2.75-.07,5.5-.1,8.25,0,1.04,.04,1.31-.39,1.48-1.25,.69-3.47,1.44-6.93,2.1-10.41,.11-.55,.25-.73,.8-.72,1.22,.03,2.47-.14,3.66,.05,2.99,.48,3.75,.53,4.09,3.33,.12,1.03-.14,2.06-.3,3.08-.25,1.66-.86,3.28-.76,4.99,.02,.43-.04,.88,.64,.88,3.54-.01,7.08,0,10.61,0,.65,0,.87-.42,.37-.78-.95-.68-.82-1.6-.72-2.47,.16-1.42,.51-2.81,.7-4.22,.52-3.93,.19-6.11-3.65-7.91,.27-.16,.41-.26,.56-.34,4.77-2.44,6.94-6.39,6.3-11.74Zm4.68-73.77c-5.38,0-10.57,0-15.77-.01-.57,0-.67,.2-.77,.72-.64,3.26-1.37,6.5-2.03,9.76-2.69,13.28-5.37,26.56-8.07,39.83-.14,.68-.05,.92,.71,.92,4.89-.02,9.78-.01,14.67,0,.63,0,.93-.22,1.05-.86,.95-4.92,1.91-9.83,2.91-14.73,2.41-11.84,4.84-23.67,7.28-35.63Zm27.27,52.39c6,.4,11.47-.67,16.22-4.53,.2-.16,.39-.52,.82-.25,0,.8,.06,1.63-.02,2.45-.08,.89,.17,1.21,1.12,1.17,1.96-.08,3.93-.02,5.89-.03,1.13,0,2.53,.35,3.32-.18,.81-.54,.63-2.06,.85-3.15,1.63-7.98,3.21-15.98,4.8-23.98-.15-.04-.28-.1-.4-.1-7.03,0-14.06,0-21.09-.03-.91,0-.92,.55-1.04,1.14-.56,2.75-1.06,5.5-1.71,8.23-.2,.86,.03,.96,.76,.94,1.95-.03,3.89-.01,5.76-.01,.19,.31,.07,.44-.02,.59-1.93,3.19-4.77,5.07-8.47,5.31-4.45,.29-8.3-1.63-8.97-6.67-.77-5.73,.07-11.25,3.09-16.26,2.42-4.01,5.9-6.2,10.81-5.8,3.29,.27,6.04,2.28,6.77,5.45,.19,.83,.52,.88,1.18,.88,3.8-.02,7.6,0,11.4,0,2.77,0,2.87-.02,2.43-2.74-.94-5.84-3.75-10.5-9.18-13.22-6.39-3.21-13.19-3.44-20.08-2.2-6.46,1.16-11.68,4.49-15.75,9.59-6.57,8.23-8.35,17.68-6.44,27.8,1.55,8.24,8.47,14.99,17.91,15.62Zm34.02,14.24c-3.01,.05-6.03,.05-9.04,0-.73-.01-1,.28-1.12,.92-.27,1.44-.55,2.88-.84,4.32-1.12,5.5-2.2,11-3.38,16.49-.87,4.05-2.82,5.47-6.91,5.24-1.7-.1-3.28-1.36-3.5-2.97-.13-.98-.19-2.02,0-2.99,.7-3.64,1.52-7.26,2.27-10.89,.63-3.04,1.25-6.09,1.86-9.14,.11-.53,.18-.99-.69-.98-3.14,.05-6.29,.03-9.43,.01-.57,0-.78,.14-.9,.77-.92,4.66-1.95,9.29-2.86,13.95-.62,3.18-1.47,6.3-1.34,9.61,.17,4.34,2.69,8.24,6.7,9.88,2.65,1.09,5.42,1.51,8.28,1.43,1.39-.06,2.77-.09,4.16-.28,6.22-.85,10.3-4.23,12.34-10.1,1.15-3.32,1.58-6.8,2.33-10.22,1.03-4.68,1.92-9.39,2.89-14.08,.14-.7,.02-1-.81-.99Zm66.31,0c-2.84,.04-5.68,.05-8.51,0-.84-.02-1.03,.42-1.15,1.04-.71,3.68-1.42,7.37-2.13,11.06-.54,2.81-1.09,5.61-1.65,8.43-.23-.87-.36-1.73-.67-2.53-2.32-5.82-4.68-11.62-6.99-17.44-.26-.65-.7-.53-1.15-.54-2.66,0-5.33,.05-7.99-.03-.95-.03-1.3,.31-1.45,1.16-.33,1.83-.69,3.64-1.07,5.46-1.21,5.92-2.43,11.84-3.64,17.76-.61,2.96-1.19,5.93-1.81,8.88-.2,.97-.12,1.44,1.12,1.39,2.57-.12,5.15-.07,7.72-.01,.86,.02,1.23-.25,1.39-1.08,1.25-6.49,2.53-12.97,3.8-19.49,.17,1.18,.3,2.33,.75,3.43,2.25,5.42,4.49,10.85,6.71,16.28,.24,.59,.53,.87,1.23,.87,2.84-.04,5.67-.03,8.51,0,.68,0,.94-.17,1.08-.9,.62-3.35,1.35-6.68,2.03-10.02,1.54-7.57,3.06-15.14,4.63-22.71,.16-.77,.02-.99-.77-.98Zm17.36-16.65c-.41-2.56-.77-5.13-1.15-7.7-.75-5-1.51-10-2.26-15-.65-4.32-1.28-8.64-1.93-12.95-.66-4.4-1.37-8.8-1.97-13.21-.12-.91-.43-1.13-1.29-1.12-4.8,.04-9.6,.03-14.41,0-.69,0-1.05,.19-1.39,.82-5.21,9.67-10.46,19.32-15.7,28.98-3.83,7.06-7.65,14.13-11.6,21.42,5.51,0,10.79-.01,16.06,.01,.65,0,.79-.44,.99-.85,.72-1.52,1.44-3.05,2.09-4.6,.23-.56,.48-.81,1.12-.81,4.98,.03,9.95,.03,14.93,0,.61,0,.86,.15,.89,.77,.09,1.52,.29,3.03,.33,4.55,.02,.86,.4,.95,1.12,.94,4.37-.03,8.73-.06,13.1,.01,1.07,.02,1.24-.34,1.09-1.26Zm48.9,16.66c-2.84,.03-5.68,.04-8.52,0-.75-.01-.98,.31-1.09,.95-.21,1.23-.48,2.46-.7,3.69-1,5.44-2.27,10.83-3.08,16.21-.21-.9-.31-1.95-.68-2.89-2.28-5.73-4.64-11.44-6.92-17.17-.27-.68-.62-.79-1.24-.78-1.79,.03-3.58,0-5.37,.01-1.26,0-2.83-.42-3.71,.17-.86,.58-.72,2.26-.9,3.48-.05,.34-.17,.67-.24,1.01-1.04,5.12-2.07,10.24-3.1,15.36-.89,4.45-1.74,8.9-2.67,13.34-.22,1.06,.09,1.29,1.11,1.25,2.09-.08,4.19-.02,6.29-.02,2.66,0,2.65,0,3.17-2.66,1.15-5.85,2.31-11.69,3.46-17.54,.14,.92,.31,1.81,.65,2.66,2.25,5.56,4.53,11.11,6.75,16.68,.28,.71,.66,.87,1.36,.86,2.75-.03,5.5-.06,8.25,0,.87,.02,1.11-.32,1.25-1.08,.51-2.76,1.06-5.51,1.63-8.26,1.69-8.11,3.39-16.23,5.11-24.34,.17-.8-.07-.96-.82-.95Zm10.04-51.78c-.97-6.12-3.98-10.88-9.73-13.53-6.73-3.1-13.8-3.27-20.9-1.64-8.06,1.85-13.69,6.96-17.56,14-3.68,6.7-4.71,13.99-3.64,21.51,.69,4.88,2.82,9.14,6.61,12.46,3.43,3,7.46,4.37,11.96,4.74,5.09,.42,9.84-.48,14.16-3.26,.83-.53,1.6-1.15,2.59-1.87,0,1.12,.05,1.95-.01,2.77-.07,.88,.18,1.21,1.13,1.19,2.79-.07,5.59-.07,8.38,0,.86,.02,1.1-.33,1.25-1.07,1.68-8.51,3.38-17.01,5.12-25.5,.15-.75,.03-.89-.68-.89-6.9,.02-13.8,.01-20.7,0-.5,0-.81,.1-.92,.64-.64,2.95-1.29,5.9-1.94,8.85-.13,.58,0,.86,.71,.84,1.7-.06,3.41-.03,5.11,0,.32,0,.77-.22,.93,.18,.14,.35-.24,.61-.43,.89-1.9,2.76-4.56,4.44-7.86,4.79-4.09,.43-8.32-1.21-9.2-6.23-.87-4.98-.19-9.83,1.83-14.46,2.08-4.77,6.09-8.56,11.96-8.03,3.05,.27,6.26,2.43,6.69,5.36,.11,.72,.45,1.02,1.28,1.01,3.84-.06,7.69-.03,11.53-.03,2.69,0,2.77-.01,2.34-2.71Zm-702.68,5.08c-.14-1.28,0-2.61-.54-4.06-2.86,6.17-5.65,12.18-8.44,18.18-.29,.62-.03,.73,.55,.73,3.01-.02,6.03-.02,9.04,0,.67,0,.8-.25,.74-.86-.45-4.67-.83-9.34-1.35-14Zm480.62,55.14c-1.7-.08-3.39-.06-5.09-.1-.57-.01-.99,.07-1.11,.78-.28,1.61-.63,3.21-.99,4.81-.18,.79,.05,1.1,.9,1.03,.82-.07,1.65-.02,2.48-.01,1.36-.03,2.73,.11,4.05-.29,.19-.06,.38-.12,.57-.2,1.62-.69,2.47-1.99,2.22-3.66-.24-1.6-1.02-2.25-3.03-2.35Zm-232.1,517.76h.13v-1.55c-.45,0-.91,0-1.36,0,.58,.62,.98,1.18,1.23,1.55Zm-124.31-64.48s0,0,0,0c0,0-.01,0-.02,0h.02Zm-4.89-.04c1.1,0,2.17,.01,3.23,.02-1.06-.01-2.13-.03-3.23-.03h0Zm4.89,1.98c0-.65,.01-1.28,.01-1.94h-.01s.01,0,.01,0c0,.66,0,1.29-.01,1.94Zm-1.66-1.96c.55,0,1.1,.01,1.64,.01-.09,0-.21,0-.34,0-.43,0-.87,0-1.3-.01Zm1.66,1.96h0s0,0,0,0h0Zm-4.89-.12h0s-38.82-.95-38.82-.95v41.84l38.82-.47v2.51s.02,0,.03,0v-2.54l4.09-.05s0,.02,0,.04l4.87-.06v-40.09l-4.1-.1h0s-4.89-.12-4.89-.12Zm-50.88,4.6c-.24,2.58-.56,5.12-.92,7.65,.37-2.53,.69-5.07,.92-7.65Zm114.74-4.17c0,.59-.01,1.17-.02,1.76h0c0-.59,.02-1.17,.02-1.76h0Zm-179.77-12.72c64.54,2.49,129.06,4.97,193.73,7.46v64.15h-2.09c-.35-.25-.71-.48-1.08-.69v-57.71c-.77-.05-1.48-.08-2.2-.11,0,.53-.03,1.04-.04,1.56h.04v37.82l-6.31,.06c-.04,.87-.07,1.76-.07,2.64-.43,0-1.44,0-2.85,.01,0,0,0,0,0-.01,1.38,0,2.37-.01,2.8-.01,0-.88,.03-1.75,.07-2.62l-2.85,.03s0-.01,0-.02l-38.6,.37v-39.32l39.19,.86h0s8.57,.19,8.57,.19c.02-.52,.04-1.04,.04-1.56-2.91-.14-5.51-.2-8.6-.39,3.09,.18,5.69,.25,8.6,.39v-.02c-.89-.05-4.15-.19-8.6-.37h0c-13.62-.56-38.46-1.55-41.4-1.71v58.68c-1.09-.19-2.22-.31-3.41-.31-2.87,0-5.48,.59-7.79,1.63-.06-.91-.13-1.85-.13-2.8,.02-18.19,0-36.38,.14-54.56,.02-2.56-.77-3.39-3.23-3.24-1.05,.06-2.1,.07-3.16,.07,0,0-.01,0-.02,0-.11,0-.22,0-.34,0-5.19-.07-41.59-1.42-45.3-1.42v49.7h-9.69v-50.37s0-.02,0-.03c-1.04,0-5.36-.13-11.11-.33v2.31l9.21,.24v17.66s0,0,0,0v24.34l-3,.04c-.03,.91-.05,1.82-.05,2.74h-6.15v-2.66l-38.6,.49v-43.85l38.6,.99v-2.31c-14.55-.49-38.25-1.36-41.08-1.36v64.96h-13.27v-71.62Zm54.35,8.02c5.75,.19,10.07,.33,11.11,.33-3.79-.17-7.31-.33-11.11-.5v.17Zm0,47.28h6.13c0-.92,.02-1.82,.05-2.73l-6.18,.08v2.65Zm153.31,1.17v2.28h2.87v7.81h-2.87v4.03h2.87v1.03h14.75c2.63-1.45,5.56-2.25,8.49-2.25,3.64,0,6.23,1.03,8.03,2.25h3.43v-1.03h8.26v1.03h11.05v-15.28h-1c-7.78,.01-53.25,.12-55.88,.12Zm-192.25,15.11h45.09v-16.22c-3.11,0-42.1,.05-45.09,.05v16.17Zm48.15-43.34c.19-1.23,.38-2.46,.56-3.69-.18,1.23-.36,2.46-.56,3.69h0Zm1.48-11.34c.26-2.79,.42-5.62,.42-8.51v-.03c0,2.91-.16,5.74-.42,8.55Zm-67.91-29.69c-12.84,4.41-25.69,8.81-38.51,13.28-.55,.19-1.27,.93-1.28,1.43-.11,3.62-.06,7.25-.06,10.66,.39,.25,.49,.36,.54,.34,12.93-4.44,25.86-8.88,38.76-13.38,.55-.19,1.3-.91,1.31-1.4,.11-3.62,.06-7.24,.06-10.8-.5-.08-.69-.18-.83-.13Zm255.29,7.61h21.66v-17.55c2.81,.56,5.36,1.07,8.07,1.62,0,5.15-.03,10.07,.04,14.99,0,.57,.53,1.13,.82,1.69,.31-.53,.87-1.07,.88-1.6,.07-5.39,.08-10.78-.01-16.17-.01-.61-.65-1.57-1.2-1.74-3.3-1-6.66-1.82-10.36-2.79v8.9c-2.53,.56-4.75,1.04-6.98,1.54-2.31,.51-4.63,1.01-6.94,1.53q-6.82,1.53-6.32,8.64c0,.08,.06,.16,.36,.94Zm-132.42,60.38c-.53,0-1.99,0-4.06,.02v.02h.04c2.05-.02,3.5-.02,4.03-.02,0-.86,.01-1.7,.02-2.56h-.01c0,.85-.02,1.68-.02,2.53Zm332.08-97.09v-14.48c-7.35,1.22-7.92,1.96-7.7,10,.06,2.18,3.04,3.94,7.7,4.48Zm7.08,2.65v-12.56c0-4.11-.37-4.45-5.28-4.62v11.92c0,4.17,.82,5.01,5.28,5.26Zm-396.09,95.4c-.02-.42-.66-.82-1.01-1.23-.34,.42-.96,.83-.97,1.26-.07,4.54-.07,9.08,0,13.62,0,.47,.57,.93,.87,1.39,.39-.47,1.08-.93,1.11-1.43,.12-2.17,.05-4.35,.05-6.53,0-2.36,.05-4.72-.05-7.08Zm-103.23-42.15c-2.06,.69-2.63,1.62-2.62,3.66,.1,14.98,.1,29.95,.14,44.93,0,.8,.12,1.59,.19,2.5,13.45,2.14,26.74,4.26,40.26,6.42v-70.49c-1.05,.31-1.82,.51-2.58,.77-11.79,4.09-23.55,8.25-35.39,12.21Zm156.1,41.23h-.03v-.02c-10.44,.08-36.47,.31-38.85,.31v3.22c4.98,0,9.28,.05,13.71,3.78,2.63,2.41,4.04,5.44,4.39,9.04h3.94v-.97h7.81v.97h1.85c1.27-1.28,2.96-2.18,5.89-2.18h.7v2.18h6.82v-16.32h-6.2s-.03,0-.04,0h0Zm24.36,.25c2.62,0,29.62-.23,38.85-.29,0,.03,0,.06,0,.09h6.29v14.11c-.24-.02-.48-.03-.71-.03-2.47,0-5.04,.77-7.16,2.21h-10.71v-1h-8.52v1h-14.48c-1.1-.6-2.29-1.09-3.56-1.46v-14.64Zm18.04,11.07h8.52v-7.81h-8.52v7.81Zm29.09-10.32c0-.44-.56-.88-.86-1.32-.28,.46-.79,.91-.81,1.38-.09,2.16-.04,4.34-.04,6.5,0,2.21-.03,4.41,.03,6.62,.56,.05,1.12,.15,1.68,.28,.06-4.49,.06-8.98,0-13.47Zm-80.51,17.49h.13c.09-.13,.18-.25,.27-.38-.13,0-.26,0-.39,0v.38Zm17.52-3.88c.06-4.9,.04-9.8,.04-14.7-.27-.14-.53-.29-.8-.43-.37,.51-1.06,1.01-1.07,1.52-.08,4.55-.08,9.1,0,13.64,0,.44,.63,.87,.96,1.31,.3-.45,.86-.89,.87-1.34Zm209.77-51.14c122.31,3.77,244.38,7.53,366.6,11.3v-7.03c-122.39-5.05-244.49-10.09-366.6-15.13v10.86Zm156.37,56.37h.13v-1.65c-.54,0-1.09,0-1.63,0,.9,.82,1.42,1.48,1.51,1.65Zm-126.78-16.33h4.28v-32.79h11.47v45.57h4.65v-49.82h-20.4v37.03Zm84.38,16.2h.13v-1.52c-.45,0-.89,0-1.34,0,.57,.61,.96,1.16,1.21,1.52Zm104,.13h.13v-1.65h-1.63c.9,.82,1.42,1.48,1.5,1.65Zm-39-1.34h.13c.07-.1,.14-.2,.21-.31-.11,0-.23,0-.34,0v.31Zm-221.91-49.71c.58,.05,1.03,.16,1.46,.1,12.75-1.68,25.49-3.36,38.23-5.13,.56-.08,1.4-.97,1.42-1.52,.14-3.06,.07-6.14,.07-9.53-14.09,2.77-27.63,5.43-41.17,8.09v7.99Zm86.44-16.77v-13.84c-1.63-.41-2.61-.33-2.56,1.64,.09,3.54,.06,7.08,.01,10.62-.03,1.92,.96,2.04,2.55,1.58Zm-18.82-15.32c-.18,.24-.37,.48-.55,.72v13.81h2.49c0-4.37,.07-8.62-.09-12.87-.02-.58-1.21-1.11-1.85-1.66Zm235.56,83.02h.13v-1.52c-.44,0-.89,0-1.33,0,.57,.61,.96,1.16,1.2,1.52Zm-208.75-68.9c.03,.71,1.1,1.37,1.69,2.05,.26-.24,.51-.47,.77-.7v-13.54c-.91,.08-1.66,.13-2.54,.21,0,4.15-.09,8.07,.08,11.98Zm-23.93,64.55v-49.38c-9.48-.3-18.8-.6-28.12-.88-.54-.02-1.09,.12-1.63,.19-12.75,1.73-25.5,3.53-38.27,5.11-2.2,.27-2.67,1.02-2.65,3.05,.07,12.29,.05,24.58,.05,36.87l2.83-6.81h2.44v-15.81h10.37v13.61h-8.37v2.2h2.4l5.37,12.82h16.41v-.97h8.52v.97h14.6v-.97h8.52v.97h1.33v-15.17h-8.38v-13.38h10.44v28.6h1.35v-1.02h2.79Zm-30.65,18.12c0,2.88,0,10.76,7.43,10.76,5.38,0,7.17-5.06,7.17-10.69v-15.36c-4.87,0-9.73,0-14.6,0v15.3Zm53.51-17.67h4.5c2.37-1.06,4.98-1.66,7.69-1.66s5.32,.6,7.7,1.66h25c2.32-1.07,4.82-1.66,7.32-1.66,3.03,0,5.33,.72,7.06,1.66h4.41v-.45h8.26v.45h14.74c2.28-1.07,4.8-1.66,7.48-1.66s5.01,.73,6.83,1.66h5.08v-.45h7.81v.45h6.86v-.45h7.81v.45h2.42c1.21-1,2.81-1.66,5.33-1.66h.7v1.66h11.28c2.28-1.07,4.8-1.66,7.48-1.66s5.01,.73,6.83,1.66h5.08v-.45h7.81v.45h15.67c2.32-1.07,4.82-1.66,7.32-1.66,3.04,0,5.33,.72,7.06,1.66h4.41v-.45h8.26v.45h15.25c2.33-1.06,4.97-1.66,7.87-1.66s5.57,.61,7.85,1.66h60.44v-9.85h-309.63v9.85Zm210.15-42.64v31.29h32.82v-30.3c-11.04-.33-21.87-.66-32.82-.99Zm34.9,1.09v30.11h32.72v-29.15c-11.07-.32-21.91-.64-32.72-.96Zm210.55-168.89v224.3c0,155.48-127.21,282.7-282.7,282.7H282.7C127.21,1024,0,896.79,0,741.3v-224.3H1024Zm-578.27,71c7.45,7.15,15.05,14.15,22.34,21.45,2.13,2.13,4.05,4.69,6.98,4.84,8.49,.41,15.63,1.03,24.11,1.65,14.23,1.04,26.86,2.11,41.09,3.15,10.85,.8,22.8,1.78,33.65,2.58,13.86,1.02,26.1,1.52,39.96,2.56,9.12,.68,21.58,1.53,30.7,2.19,6.07,.44,17.46,1.24,23.53,1.65-.77-.8-6.6-3.1-7.5-3.45-4.67-1.83-9.32-3.72-14.03-5.43-1.24-.45-2.06-1.63-2.03-2.96,.11-4.84,.09-9.69-.02-14.53-.02-.79-.59-2.05-1.19-2.25-3.6-1.22-7.23-2.62-10.99-.25-1.21,.76-2.83,.86-4.04,1.61-.81,.5-1.65,1.59-1.73,2.49-.23,2.51-.08,5.06-.08,7.92-1.34-.48-2.36-.84-3.36-1.21-2.65-.98-5.22-2.51-7.95-2.86-13.14-1.69-26.31-3.06-39.48-4.54-12.07-1.35-24.15-2.68-36.23-4.05-13.8-1.56-27.59-3.13-41.39-4.71-12.34-1.41-24.69-2.83-37.03-4.22-5.1-.58-10.21-1.07-15.31-1.63Zm-279.74,150.83h-3.52l-4.61,17.71h-.06l-4.52-17.71h-2.53l-4.58,17.84h-.06l-4.52-17.84h-3.59l6.63,23.7h3.04l4.29-16.56h.06l4.29,16.56h3.04l6.63-23.7Zm19.43,5.96h-3.33v2.5h-.06c-1.28-1.95-3.55-2.98-6.02-2.98-6.37,0-9.42,5.09-9.42,9.42,0,4.68,3.43,9.26,9.42,9.26,2.4,0,4.74-1.03,6.02-3.2h.06v2.75h3.33v-17.74Zm7.78-5.96h-3.33v23.7h3.33v-23.7Zm11.34,5.96h-2.91v-5.96h-3.33v5.96h-2.4v3.04h2.4v14.7h3.33v-14.7h2.91v-3.04Zm19.21,8.62c-.03-5.19-4.23-9.1-9.03-9.1s-9.1,4-9.1,9.32c0,5.03,4,9.35,9.03,9.35,2.75,0,6.82-1.44,8.52-6.02h-3.33c-.8,1.54-2.59,2.98-5.06,2.98-2.24,0-5-1.41-5.83-4.84h14.7c.03-.22,.1-1.12,.1-1.7Zm11.08-9.1c-.83,.03-3.11,.1-4.52,2.08h-.06v-1.6h-3.11v17.74h3.33v-9.71c0-2.53,.9-3.87,1.95-4.45,.8-.42,1.89-.64,2.4-.64v-3.43Zm223.75,188.72c-.76-1.37-1.9-2.43-3.34-3.04-1.82-.68-3.72-1.06-5.69-.99-1.97-.08-3.87,.3-5.69,.99-1.44,.61-2.58,1.67-3.34,3.04-1.44,3.19-1.44,6.83,0,10.02,.76,1.37,1.9,2.43,3.34,2.96,1.82,.76,3.79,1.06,5.69,.99,1.97,.08,3.95-.3,5.69-.99,1.44-.61,2.58-1.67,3.34-2.96,1.44-3.19,1.44-6.83,0-10.02Zm38.17,2.28c.08-1.21-.23-2.5-.76-3.57-.53-.91-1.29-1.52-2.28-1.9-1.21-.38-2.5-.61-3.79-.53h-9.87v17.38h3.95v-5.39h5.92c2.28,0,4.02-.46,5.16-1.44,1.14-.99,1.67-2.43,1.67-4.55Zm34.76,7.97h-11v-3.72h9.87v-3.19h-9.87v-3.57h10.93v-3.41h-14.87v17.3h14.95v-3.41Zm23.38-66.17c.23-.3,.23-.83-.15-1.06-.08,0-.23,0-.46-.08l-9.49-.61-1.14-.08c.08-1.06,.15-2.12,.15-3.19-.08-21.7-17.68-39.31-39.39-39.31-18.29,0-34.15,12.67-38.25,30.51h-8.73c-.46,0-.91,.23-1.21,.61l-2.2,3.04c-.3,.3-.23,.76,.08,1.06,.15,.15,.3,.23,.53,.15l9.49,.61,1.21,.08c-.08,1.06-.15,2.12-.15,3.19,0,21.7,17.61,39.31,39.31,39.31,18.36,0,34.23-12.67,38.32-30.58h8.65c.46,0,.91-.23,1.21-.61l2.2-3.04Zm14.56,66.02h-10.47v-13.81h-3.95v17.38h14.42v-3.57Zm290.84-180.59l-9-23.7h-3.11l-9,23.7h3.65l2.63-6.98h8.52l2.63,6.98h3.68Zm24.82-11.79h-14.99v3.17h11.05c-2.27,5.83-7.5,5.89-8.17,5.89-4.49,0-8.81-3.84-8.81-9.06s3.84-9.19,8.78-9.19c3.49,0,5.48,2.15,6.47,3.24h4.04c-2.31-4.26-6.6-6.41-10.63-6.41-6.82,0-12.11,5.54-12.11,12.36s5.22,12.23,12.14,12.23c5.77,0,12.11-4.29,12.23-12.23Zm1.28-66.54c-.1-1.18-.13-2.39,0-3.56,.27-2.27-.61-2.91-2.89-2.98-14.45-.48-28.9-1.11-43.35-1.71-24.51-1.03-49.01-2.08-73.52-3.11-22.04-.93-44.08-1.84-66.11-2.75-9.03-.37-18.06-.73-27.34-1.11v-37.98c-66.71-4.62-133.17-9.23-199.95-13.86v108.76l-.92,2.21c-1.87,.18-1.66-1.36-1.66-2.7,0-23.67,.02-47.34,0-71.01-.01-12.15-.05-24.3-.23-36.45-.02-1.26-.8-2.79-1.72-3.7-8.2-8.1-16.5-16.1-24.78-24.12-.58-.56-1.2-1.08-2.03-1.83-2.08,8.57-4.01,16.89-6.13,25.18-1.65,6.46-3.17,12.87-2.8,19.66,.31,5.73,.07,11.5,.07,17.59-1.53,0-2.7,.05-3.87,0-6.31-.28-12.61-.63-18.92-.88-23.69-.93-47.38-1.82-71.06-2.73-28.72-1.1-57.44-2.21-86.15-3.31-23.14-.88-46.28-1.76-69.42-2.62-.69-.03-1.43,.15-2.09,.38-13.19,4.55-26.35,9.16-39.56,13.65-1.83,.62-2.59,1.39-2.58,3.41,.1,20.57,.11,41.14,.09,61.7,0,1.89,.51,2.7,2.55,2.99,7.59,1.08,15.14,2.45,22.71,3.62,6.58,1.02,13.18,2.76,19.77,2.76,21.41,.01,42.82,.02,64.23,.03v32.8h8.77v-18.06h3.14c5.06,0,9.41,0,13.9-3.78,3.07-2.82,4.48-6.47,4.48-10.88,0-.02,0-.04,0-.06,1.28,0,2.57,0,3.85,0v32.78h8.52v-19.98c0-2.11,0-8.2,7.75-8.52v-4.28c2.66,0,5.32,0,7.98,0-4.46,3.57-7.08,9.15-7.08,15.1,0,10.37,7.94,18.83,18.76,18.83,8.39,0,15.11-5.96,17.16-12.36h-8.96c-1.6,2.94-4.42,4.54-8.2,4.54-6.08,0-9.41-4.99-9.8-7.3h27.6c.26-1.15,.51-2.62,.51-4.29,0-5.36-2.42-10.9-6.83-14.51,3.94,0,7.89,0,11.83,0v32.76h8.52v-32.75c2.88,0,5.77,0,8.65,0-1.63,1.8-2.7,4.16-2.7,7.01,0,5.83,3.9,8.84,7.94,10.18,6.08,2.05,8,2.69,8,5.31,0,1.47-1.09,3.58-3.84,3.58-3.52,0-4.29-2.95-4.67-4.54h-8.71c.19,2.18,.51,4.99,2.69,7.68,2.75,3.46,7.11,4.67,10.63,4.67,6.08,0,12.42-4.42,12.42-12.42,0-7.17-5.51-9.29-9.93-10.63-4.55-1.47-6.02-1.92-6.02-3.97,0-1.47,1.15-3.07,3.27-3.07,.9,0,2.82,.26,3.39,3.07h8.33c-.13-2.82-1.17-5.12-2.71-6.87,2.8,0,5.6,0,8.41,0v32.74h8.52v-32.74c4.03,0,8.06,0,12.08,0-4.1,3.27-6.96,8.37-6.96,14.62,0,11.91,9.54,19.27,18.19,19.27,7.24,0,10.5-4.1,11.65-5.7l.13,.13c-.45,7.75-6.08,11.08-10.89,11.08-1.34,0-5.44,0-8.77-3.97h-9.73c3.07,7.94,10.57,11.78,17.87,11.78,6.72,0,19.4-3.91,19.4-21v-26.2c11.46,0,22.92,0,34.37,0l-13.62,32.73h9.67l5.06-12.23h16.97l5.06,12.23h9.67l-13.71-32.72c5.21,0,10.42,0,15.64,0v15.75c0,2.94,0,8.71,2.62,12.49,1.79,2.43,5.44,5.63,11.91,5.63,5.44,0,7.75-2.82,9.16-4.74h.13v3.59h7.81v-32.71c1.58,0,3.16,0,4.74,0v4.73h4.16v27.98h8.52v-27.98h5.12v-4.73c2.8,0,5.6,0,8.4,0-4.4,3.44-7.31,8.79-7.31,14.97,0,10.18,8.39,18.89,18.95,18.89,9.86,0,18.83-7.36,18.83-19.02,0-6.2-2.85-11.46-7.16-14.85,5.72,0,11.45,0,17.17,0-4.08,3.28-6.93,8.36-6.93,14.59,0,11.91,9.54,19.27,18.19,19.27,7.24,0,10.5-4.1,11.65-5.7l.13,.13c-.45,7.75-6.08,11.08-10.89,11.08-1.34,0-5.44,0-8.77-3.97h-9.73c3.07,7.94,10.56,11.78,17.86,11.78,6.72,0,19.4-3.91,19.4-21v-26.18c3.66,0,7.32,0,10.98,0-4,3.35-6.55,8.55-6.55,14.71,0,11.85,8.13,19.15,17.29,19.15,4.48,0,9.73-2.37,12.42-5.57v4.42h7.81v-32.71c2.29,0,4.57,0,6.86,0v32.71h8.52v-19.98c0-2.11,0-8.2,7.75-8.52v-4.21c2.5,0,5.01,0,7.51,0-4,3.35-6.55,8.55-6.55,14.71,0,11.85,8.13,19.15,17.29,19.15,4.48,0,9.73-2.37,12.42-5.57v4.42h7.81v-32.71c3.93,0,7.86,0,11.8,0-4.08,3.28-6.92,8.36-6.92,14.58,0,11.91,9.54,19.27,18.18,19.27,7.24,0,10.5-4.1,11.65-5.7l.13,.13c-.45,7.75-6.08,11.08-10.88,11.08-1.35,0-5.44,0-8.77-3.97h-9.73c3.07,7.94,10.56,11.78,17.86,11.78,6.73,0,19.4-3.91,19.4-21v-26.17c3.81,0,7.61,0,11.42,0-4.41,3.58-7,9.12-7,15.03,0,10.37,7.94,18.83,18.76,18.83,8.39,0,15.11-5.96,17.16-12.36h-8.96c-1.6,2.94-4.42,4.54-8.2,4.54-6.08,0-9.41-4.99-9.8-7.3h27.6c.26-1.15,.51-2.62,.51-4.29,0-5.33-2.39-10.85-6.77-14.46,19.48,0,38.96,0,58.43,0h3.02v-41.74c3.69,.88,3.83-1.3,3.61-3.87Zm-38.25,31.91h32.72v-28.21c-11.03-.32-21.91-.63-32.72-.94v29.14Zm-104.42-32.4v32.39h32.84v-31.38c-11.05-.34-21.88-.68-32.84-1.01Zm-173.74-5.39v37.74h32.72v-36.66c-10.95-.36-21.77-.72-32.72-1.08Zm34.76,1.08v36.6h32.75v-35.54c-11.14-.36-21.96-.71-32.75-1.06Zm69.61,2.15v34.57h32.7v-33.53c-11.01-.35-21.85-.7-32.7-1.05Zm34.72,1.06v33.42h32.67v-32.37c-10.92-.35-21.67-.7-32.67-1.05Zm-69.63-2.15v35.61h32.9v-34.53c-11.03-.36-21.93-.72-32.9-1.08Zm-25.61-14.85c0-3.88,.08-7.7-.08-11.51-.03-.68-1.09-1.31-1.67-1.96-.31,.25-.62,.51-.93,.76,0,3.63,.08,7.27-.03,10.9-.06,2.07,.95,2.18,2.71,1.81Zm-233.89,62.35h5.83v-.98h3.5c0-1.11,0-2.47,.02-4.03h-3.52v-7.81h3.57c.12-15.27,.34-37.61,.34-44.56,3.67,0,58.44,1.85,61.98,1.85,0,0,0,0,0,0,0,.03,0,.07,0,.1,0,9.76-1.16,45.98-1.16,55.52h18.39v-60.66c-29.72-1.15-59.3-2.29-88.95-3.44v64.02Zm-196.13-73.24c95.15,3.67,190.09,7.33,285.14,10.99v-11.91c-95.26-3.65-190.21-7.29-285.14-10.94v11.85Zm267.85,17.7h0c-.1,0-.21,.02-.31,.06,.1-.04,.21-.06,.31-.06Zm219.75-39.29l-196.37-14.06v16.34l196.37,11.5v-13.78Zm-222.18,42.35c.72-1.62,1.44-2.73,2.12-3-.69,.26-1.4,1.37-2.12,3Zm-.13,.28c.04-.1,.08-.19,.13-.28-.04,.09-.08,.18-.13,.28h0Zm-.79,36.97h0c0-4.64,3.31-35.4,3.35-40.21,0-.03,0-.07,0-.1,0,4.5-3.35,35.64-3.35,40.31Zm-56.35-40.18v37.93l47.96-.4h0s8.33-.07,8.33-.07l.85-34.25h0l.03-1.3-57.17-1.9Zm47.96,40.18h0s7.39,0,7.39,0c.49,0,.83,0,1,0h-8.39Zm159.68-60.58c0,3.91-.06,7.71,.06,11.5,.02,.62,.85,1.22,1.31,1.82,.44-.62,1.23-1.23,1.25-1.87,.13-3.26-.02-6.53,.09-9.79,.06-1.91-.84-2.15-2.71-1.66Zm21.26,13.81v-12.82c-.8-.04-1.49-.08-2.53-.14,0,4.09,0,7.81,0,11.53,0,2.09,1.19,1.74,2.53,1.42Zm-144.3,4.57c9.65-1.91,19.3-3.86,28.96-5.77,6.25-1.24,12.45-2.55,18.94-1.92,4.4,.43,8.88,.08,13.64,.08v-15.66h10.04v16.62h4.61v-15.89c7.18,.35,13.98,.68,21.09,1.02v15.94c7.4,.29,14.49,.56,21.87,.85v-15.63c9.65,.51,19,1,28.55,1.51v15.34c15.84,.65,31.49,1.29,47.15,1.94v-20.11c-65.64-3.75-130.95-7.48-196.38-11.22v32.92c.63,0,1.1,.08,1.53-.01Z"/></svg>