<svg xmlns="http://www.w3.org/2000/svg" viewBox="0 0 1024 1024"><path d="M328.4 741.7h-19.7a9.9 9.9 0 0 1 10-8.1c4.6 0 8.7 2.4 9.7 8.1zm335.4-8.1c-7 0-10.5 6-10.5 11.3 0 6 4.4 11 10.5 11s10.4-4.6 10.4-11.2c0-7.4-5.3-11.1-10.4-11.1zm-83.2 0c-4.4 0-10.5 3.8-10.5 11.2 0 6.7 5.1 11 10.5 11 6.2 0 10.3-5.3 10.3-11 0-6.4-5-11.2-10.3-11.2zm-320-10.3h-3.1v13h2.8c3.8 0 10-.3 10-6.5s-6-6.5-9.7-6.5zm157.7 10.3c-5.1 0-10.4 4.2-10.4 10.9 0 7.2 5.5 11.4 10.7 11.4s10.1-4.4 10.1-11.5c0-5-4-10.8-10.4-10.8zm203 0c-5 0-10.3 4.2-10.3 10.9 0 7.2 5.4 11.4 10.6 11.4s10.2-4.4 10.2-11.5c0-5-4-10.8-10.4-10.8zm146.3 0c-5 0-10.3 4.2-10.3 10.9 0 7.2 5.4 11.4 10.6 11.4s10.2-4.4 10.2-11.5c0-5-4.1-10.8-10.5-10.8zm42.2 0a9.9 9.9 0 0 0-10 8.1h19.6c-1-5.7-5-8.1-9.6-8.1zm-328.6-6h-.1l-5.4 14.4h10.9l-5.4-14.5zM176 747.2c-4.1 0-6 3.6-6 6.4 0 3.2 2.4 6.2 6 6.2s6.1-2.8 6.1-6.2a6 6 0 0 0-6.1-6.3zm673.7-4l-3 9h6.1l-3-9zm-124.3-9.7c-7 0-10.5 6-10.5 11.3 0 6 4.5 11 10.5 11s10.4-4.6 10.4-11.2c0-7.4-5.3-11.1-10.4-11.1zm-510.7 13.7a5.8 5.8 0 0 0-5.8 5.2h11.5a5.8 5.8 0 0 0-5.7-5.2zm239.1-409.1c0-17 27.3-30.4 58.7-30.4s58.1 13.6 58.1 30.4-26.4 30.3-58 30.3-58.8-13.4-58.8-30.3zm98.5 17.5c0-.2-.1-.4-.5-.4a194.1 194.1 0 0 1-9.8-1.3c-1.1-.3-1.6-.6-2.1-1.6-.3-.5-.5-1-.7-1.8l-.6-2.1c0-.3-.2-.4-.4-.4s-.4 0-.4.4l-.6 2.2-.7 1.7c-.3.8-.9 1.4-2 1.6l-5.6 1a18 18 0 0 1-5.5.2c-1.5-.1-4.8-.7-7-1-1.4-.2-2.7-.3-3.5-1.6a49.7 49.7 0 0 1-1.7-5c0-.2-.2-.3-.4-.3s-.4.1-.5.4l-.7 2.5a9 9 0 0 1-1 2.4c-.8 1.1-1.5 1.3-3.3 1.6l-6.1.8-3.3.3c-.3 0-.5.2-.5.5s.2.4.5.4l3.3.4c1.8.2 3.6.3 6.1.7 2.5.4 3 .8 3.7 2.6a144.5 144.5 0 0 1 1.3 5c0 .3.2.5.5.5s.3-.1.4-.4l.6-2.7.7-2.4c.8-2 1.4-2.2 3.9-2.6l7-1c2-.2 2.7-.2 5.5.2l5.6 1c1 .2 1.7.5 2.2 1.9l.6 2 .5 1.8.4.2.4-.2.5-2 .6-1.8c.4-.8.8-1.7 2.1-2l6-.8c1.2 0 3.8-.4 4-.5.4 0 .5-.2.5-.4zm10.8-13.6l-4.3-.8c-.7-.1-1.3-.6-1.7-1.3l-.8-2-.5-1.8c0-.3-.2-.4-.4-.4s-.3.1-.4.4l-.5 1.7-.8 2.1c-.3.7-.8 1.1-1.9 1.4l-4.6.9c-2.3.3-3.4.5-6.8 0l-6.1-1c-1.2-.2-2.2-.5-2.7-1.6-.4-.8-.6-1.7-.9-2.5l-.6-2.2c-.1-.3-.2-.4-.5-.4s-.3.1-.4.4l-.6 2.1c-.3 1-.5 1.8-.9 2.5-.5 1.2-1.5 1.4-2.6 1.7l-6.8.9-3.5.4c-.3 0-.4.2-.4.4s.1.4.4.4l3.5.5c1.3 0 4.3.5 6.8.9 1.6.2 2.5.9 3 2.8l.6 2.7.5 1.9c0 .3.2.4.4.4s.4 0 .5-.4a253.2 253.2 0 0 1 1-4.6c.5-1.8 1-2.3 3.1-2.8 1.7-.4 4.7-.8 6.2-1 3.6-.5 4.5-.3 6.8 0 1 0 2.7.4 4.6.9 1.3.3 1.7 1 2 1.7l.8 2.7.4 1.7c0 .3.2.4.4.4s.4-.1.4-.4l.4-1.7.8-2.7c.2-.7.7-1.4 1.8-1.7l4.3-.7 3.8-.5c.3 0 .4-.3.4-.5 0-.1 0-.4-.4-.4l-3.8-.5zm-104-11.2l10.4 1.2c5.4.5 10.5 1.2 15.3 2 4.6.8 5.7 3.2 6.6 6.2.7 2.3 1.6 6.4 2 8 .3 1.4.8 4.4 1 4.6 0 .3.1.5.4.5.2 0 .3-.1.4-.5a155.9 155.9 0 0 1 2.9-12.7c1.2-3.9 2.3-5.2 6.5-6 4.1-.7 12-1.6 16.6-2.2l6.4-.7c4.8-.5 5.2-.5 9.9.1l6.2.9c1.5.3 2.1.7 2.6 2.1l1 3.2.4 2.1c0 .3.3.4.4.4s.4-.1.5-.4l.4-2.1c.2-.8.6-2.3 1-3.2a2.9 2.9 0 0 1 2.3-2c1.3-.4 3.6-.7 5.3-1 1.3 0 4-.4 4.1-.4.3 0 .4-.2.4-.5 0-.2-.2-.4-.4-.4l-4.2-.5-5.3-.9a3 3 0 0 1-2.2-1.5l-1-2.9a44 44 0 0 1-.4-1.8c-.1-.3-.3-.3-.4-.3s-.4 0-.5.3l-.5 1.8-1 3c-.4.9-1.2 1.3-2.5 1.5l-6.3.9c-4.9.6-5 .6-9.8 0l-6.4-.8c-4.5-.5-12-1.3-16.6-2-2.5-.5-4.8-1-6.2-4.6-1-2.4-1.5-4.5-2-6.4l-1.2-4.5c0-.4-.2-.5-.5-.5-.2 0-.3.1-.4.5l-1.2 4.5c-.6 1.8-1.1 4-2 6.4-1.3 3-2.9 4-6.1 4.5-4.7 1-10.3 1.6-15.6 2.2l-10.3 1.1c-.3 0-.4.3-.4.4 0 .2 0 .4.4.5zm43.7 63h-11.7v4.2h11.6c1.3 0 2.4-.5 2.4-2.1s-1.3-2-2.3-2zm18.9.5h8.3l-4.1-8-4.2 8zm-17-7c0-1-.8-1.5-1.9-1.6s-11.7 0-11.7 0v3.6h11.6c1.3 0 2-.7 2-2zm55.5-1.6h-12v4.2h12c1.4 0 2-.7 2-2.1s-.6-2-2-2.1zm-55.7 451.5a34.8 34.8 0 0 0-33.7 26h51.5c.3 0 .6.3.6.7 0 .2-.1.3-.3.5L510 873l29.1 1.9.2-3a34.8 34.8 0 0 0-34.8-34.7zm-18.4 43c0-.3.1-.5.3-.6L499 871l-29.1-1.9-.2 3a34.8 34.8 0 0 0 68.4 8.8h-51.4a.7.7 0 0 1-.6-.7zM455 934.8c-.4-.9-1-1.6-1.8-1.9a8.3 8.3 0 0 0-3.6-.6c-1.2 0-2.4.2-3.6.6-.7.4-1.4 1-1.8 1.9-.4 1-.6 2-.5 3 0 1.1.1 2.2.5 3.2.3.8 1 1.4 1.8 1.8 1.1.5 2.3.6 3.6.5 1.2 0 2.4-.1 3.6-.6.7-.3 1.4-.9 1.8-1.7.4-1 .6-2 .5-3.1.1-1.1-.1-2.2-.5-3.2zm36.6-2c-.6-.2-1.2-.3-2-.3H484v5.4h5.7c.8 0 1.7-.2 2.4-.6.5-.6.8-1.4.8-2.2 0-.4-.1-1-.3-1.4s-.6-.8-1-1zm105-707.4c-2.3-.4-4.6-.1-7-.2-.3 0-.3.3-.4.5l-1 5.3c0 .5 0 .8.7.8h3.4c1.4-.2 3.3.2 5-.8 1.2-.7 1.6-1.8 1.6-3.2-.1-1.4-1-2.2-2.3-2.4zm1.3-12.2c-1.8-.4-3.6-.1-5.4-.2-.7 0-.7.5-.8.8l-1.1 5.1h6.6c.7 0 1.3-.4 1.9-.8 1-1 1-2.2.8-3.4-.1-1-1-1.4-2-1.5zM413.4 161H420.2c1.3 0 2.5-.3 3.8-.8 2.2-1 3.5-3 3.3-5.6-.2-2.3-1.2-3.4-4-4-2.6-.4-5.4 0-8-.2-.8 0-.6.6-.7 1l-2 8.6c0 .6 0 1 .8 1zm57.9-.7h7c1.7-.1 3.4-.1 5-1 1.8-.9 2.8-3.2 2.4-5.7-.3-1.5-1.8-2.6-3.8-2.9-3-.4-5.8-.1-8.7-.2-.5 0-.8 0-.9.6l-1.8 8.4c-.1.6 0 .8.7.8zm335.2 6l-1-11.8h-.3l-8.7 18.7h9.9c.7 0 .8-.2.7-.9l-.6-6zM338.9 150c-4.2-1-8.6.6-11.4 4.5-3.6 5-4.6 10.6-4 16.6.4 3.3 2.1 5.8 5.5 6.8 4.1 1.2 8.8-.5 11.5-4.4 3-4.2 4-9 4.2-14.1v-1.9c-.2-3.7-2.6-6.8-5.8-7.5zm685 132.7V508H0V282.7A283.5 283.5 0 0 1 282.7 0h458.6A283.5 283.5 0 0 1 1024 282.7zm-460.3-93h14.2c1 0 1.3-.1 1.5-1.2l4.2-21.3 5.7-27.9c.1-.6 0-.8-.7-.8h-14.8c-.6 0-.9.2-1 .8l-1.8 9.3-5.1 25.3-3 14.9c-.2.8 0 1 .8 1zm-88 40l4.9-23.4c.1-.8 0-1.2-1-1.1h-9c-.8 0-1 .2-1.2 1l-3 14.8-3.6 17.6c-.2.8-.1 1.2.9 1.2h24.9c.5 0 1 0 1.1-.7l1.4-7.3c.2-.9 0-1-.9-1h-13.6c-.9 0-1.1-.2-1-1.1zm-26.4 108.5c0 18.7 29 34 63.3 34s62.7-15.2 62.7-34-28.5-34-62.7-34-63.3 15.2-63.3 34zm83-108.6L537 206c.1-.7 0-1-.8-1H527c-.7 0-1 .2-1 1l-2.2 10.3c-1.4 7.4-2.9 14.9-4.5 22.3-.2 1.2.2 1 1 1H545c.6 0 1 0 1.2-.7l1.4-7.3c.2-.8-.1-1-1-1l-13.4.1c-1 0-1.2-.3-1-1.2zm-24.2-40l1 .1h39.1c1.1 0 1.4-.4 1.6-1.3.6-3.4 1.2-6.8 2-10.1.2-1.1-.2-1-1-1h-23.2c-.5 0-1 0-.9-.8.5-2.1 1-4.2 1.2-6.3.1-1.1.7-1.2 1.6-1.2h18.5c1 0 1.3-.3 1.5-1.2.6-3.1 1.2-6.2 2-9.3.2-1-.2-.9-.8-.9h-19.2c-.8 0-1-.1-.8-1 .5-1.6.8-3.2 1-4.9.2-1 .7-1.1 1.6-1.1h21.4c.9 0 1.2-.3 1.4-1.2.6-3.3 1.2-6.6 2-9.9.1-.8 0-1-.9-1h-37.8c-.7 0-1 .1-1.1.9l-5.2 25.4-5 24.9zm-58.5.2h14.3c.5 0 .9-.2 1-.8l1-5.5 2.2-11.2c0-.3-.1-1 .6-1 3.1 0 6.3-.5 9.3.6a4 4 0 0 1 2.7 3c.4 1.7 0 3.4-.2 5.1-.5 3-1.4 5.8-1.3 8.7 0 .7.1 1 1 1h15.5c.5 0 1 0 1-.5.2-.5 0-.8-.4-1.1-.8-.5-1-1.2-1-2.1l.3-3.1c.5-3 1.2-6 1-9a7.2 7.2 0 0 0-4-6.3l-1.8-.8a15.7 15.7 0 0 0 10.5-14.7c.4-6.5-2.4-10.5-8.3-12.4-2.3-.7-4.7-1.1-7-1.1l-25.9-.1c-.8 0-1.1.3-1.3 1l-2.3 11.8-7.5 37.6c-.1.6-.1.8.6.8zm-276.3 25c-.2-3-1.3-5.7-3.9-7.6a14 14 0 0 0-7.3-2.6c-4.4-.4-8.7-.2-12.7 2.1-5.4 3.2-6.3 11-1.6 15.1 2 1.7 4.2 2.8 6.6 3.9 1.7.8 3.5 1.3 5 2.5.7.6 1.2 1.3 1 2.4-.3 1-1 1.6-2 2-1.6 1-3 .4-4.6-.1-1.3-.5-2.1-1.3-2.1-2.8 0-.8-.4-.9-1-.9H143.2c-2.7 0-3 .4-2.4 3v.2c1 4.5 4 6.8 8.2 8 3.3.8 6.6 1 10 .5 3.3-.4 6.3-1.4 8.9-3.5 3.7-3.2 4.8-10.8.3-14.5a23.5 23.5 0 0 0-6-3.4c-2-1-4.1-1.6-6-3-1.5-1.2-1.3-2.9.5-3.7 2.2-1.1 5.2 0 6 2.4 0 .4.1.7.7.7h9.1c.5 0 .6-.1.6-.7zm25.5-25.8l-3.4-22.4-4.1-27.2c-.1-.8-.4-.9-1-.9H176c-1 0-1.6.4-2 1.3l-24.8 45.7-2.3 4.2h16c.7 0 .8-.3 1-.8l2.1-4.7c.2-.4.4-.7 1-.7h15.1c.7 0 1 .3 1 .9 0 1-.2 2 0 3 .3.7-.2 1.8.4 2.2.6.4 1.6.1 2.4.1h11.8c.5 0 1.1.4 1-.7zm40 28.8c-.1-4.6-2-9.6-7-12-2.1-1-4.4-1.3-6.6-1.5A19 19 0 0 0 208 212c-3.8 5-5 10.8-4 17 .9 5.6 4.1 9.3 9.6 11 1.5.5 3 .5 4.5 1h2.7c.7-.5 1.6-.3 2.4-.4 7.6-1.3 12-5.8 14.2-12.9.3-1 0-1.1-.9-1.1H228c-.8 0-1.1.3-1.4 1a8.2 8.2 0 0 1-2.5 3.3c-3.5 2.7-8.3 1.3-9.2-2.7-.4-1.9-.3-3.7 0-5.6a13 13 0 0 1 3.8-8c2-1.7 4.2-2.3 6.8-1.4 2.2.7 2.9 2.5 3 4.7 0 .5.2.6.7.6h8.9c.5 0 .7-.2.6-.7zm22.2-79.3h-15.3c-.8 0-.9.5-1 1-1.6 7.7-3 15.5-4.7 23.2-.8 3.5-1.3 7.2-2.6 10.6-1 2.6-2.7 4.3-5.5 4.8-1 .2-2 .2-3 .2-4 0-6.2-2.4-6.2-6.3s1.3-7.5 2-11.2l4.3-21.2c.2-.8.1-1.1-.8-1h-14.2c-.8 0-1.1.2-1.3 1l-5.3 25.9c-.8 3.7-1.3 7.5-.6 11.2a15.7 15.7 0 0 0 12.2 13.1 40.2 40.2 0 0 0 15.9.8 20.6 20.6 0 0 0 17.8-13.7c1.4-3.7 2-7.5 2.8-11.3l5.5-27zm44 66.7h-8.7c-1 0-1.4.3-1.5 1.3l-2 9.7c-.1.8-.4 1-1.2 1h-7.8c-1.3 0-1.5-.4-1.2-1.5l2-9.5c0-.6.1-1-.8-1h-9.3c-.7 0-.9.2-1 .9l-1.3 6.8-5.3 25.9c-.2 1 0 1 .8 1h8.8c1 0 1.3-.4 1.5-1.3l2.2-11.1c.1-.7.4-1 1.2-1h7.9c1.3 0 1.4.3 1.2 1.4-.9 3.7-1.6 7.4-2.3 11-.1.7 0 1 .7 1h9.2c1 0 1.2-.4 1.3-1.1l1.7-8.8c1.6-8 3.1-16 4.8-23.9.2-1-.3-.8-.8-.8zm2.1-54.9l2.6-11.7H265.3c-.5-.1-.7 0-.8.6l-2.6 12.2H275.6c.5 0 1-.2.9.9l-7.4 36.5c-.2.8 0 1 .8 1h14.5c.7 0 1-.3 1-1l7.1-36.3c.2-1 .6-1.1 1.4-1.1h11.7c.9 0 1.2-.2 1.4-1zm28.9 40.3a28 28 0 0 0 20.3-13.4c4-6.6 5.5-13.8 4.5-21.5a19 19 0 0 0-10.3-15.7c-4-2.1-8.5-2.9-13-2.8-1.6 0-3 0-4.6.3-8.3 1-14.8 5-19.7 11.7a32.5 32.5 0 0 0-5.6 23.8 19 19 0 0 0 13 16.4c5 1.9 10.1 2 15.3 1.2zm41.7 14.6h-8c-.8 0-1.2.1-1.5.9-.6 2-1.4 4-2.2 6l-4.8 13.2v-3.8l.6-15.4c0-.8-.2-1-.9-1h-4.3c-3.4 0-3.4 0-4.7 3.3l-6.6 16.4h-.2l.4-6.6.6-12.1c0-.8-.2-1-1-1h-8c-.7 0-1 .2-1 1l.3 32.6c0 .8.2 1 1 1h8.4c.7 0 1-.2 1.3-.9l3.2-8.5 3.8-9.8-.2 18.1c0 1 .3 1.2 1.2 1.2h7.8c1 0 1.5-.4 2-1.3 2.3-5.8 4.8-11.5 7.3-17.2l6.4-14.9c.5-1.1.2-1.3-1-1.3zm28.7-15.4c.7 0 1-.3 1-1l2.5-12.8c.5-2.8.5-2.8 3.4-2.8 5 0 10 .2 15-1 5.7-1.2 10.3-4 12.9-9.6 1.7-3.9 2-8 1.5-12.2-.6-4.9-3.3-8.3-8-10-3.1-1.2-6.3-1.7-9.6-1.8h-22.9c-.4 0-1-.3-1 .5l-2.7 13.2-4.8 24.2-2.5 12.2c-.1.6-.1 1 .8 1h14.4zm10.4 50h13c.6 0 1.1 0 1.2-.9.4-2 .6-4.1 1.2-6.1.3-1.2-.1-1.2-1-1.2h-14.9c-.9 0-1.1-.2-.8-1.1.3-1 .5-2.1.6-3.2.1-1 .5-1.5 1.6-1.4h11.8c.8 0 1.2-.3 1.3-1 .4-1.9.6-3.8 1.1-5.6.3-1 0-1-.8-1h-12.1c-.7 0-1.2 0-.8-1 .3-.8.5-1.7.5-2.5 0-1.2.6-1.3 1.6-1.3h13.6c.9 0 1.2-.3 1.3-1l1.3-6.1c.2-1 0-1.2-1-1.2h-24.5c-1 0-1.3.3-1.5 1.2l-2.8 13.7-3.7 18.7c-.2.8 0 1 .8 1h13zM454 395.6c-.1-3.8-2.3-5.7-5.4-6l-14.2-.8c-1.1-.1-1.6-.7-1.6-1.6 0-.8.5-1.4 1.5-1.5 3.4-.2 9.3-.2 11.7 0 1.1 0 1.6.6 1.6 1.3v1h5.8v-.9c0-4.3-2.2-6-6.2-6.2-4.3-.1-9-.2-13.5 0-3 .3-6.2 1.8-6.6 5.5v2c.4 4 3.4 5 5.8 5.2l13.6.8c1.7.2 1.9.8 1.9 1.7 0 1-.5 1.5-1.9 1.6-3 .2-8.8.1-11.7 0-1 0-1.8-.3-1.8-1.5v-1h-5.8v.6c0 4.5 1.6 6.6 5.9 7 4.2.3 10.5.2 15.2 0 4-.3 5.6-3.2 5.7-6.4v-.8zm28.1-14.6h-5.8v14.6c0 1.3-.8 1.9-1.9 2-3.4.2-7.1.2-10.7 0-1-.1-1.7-1-1.8-2V381h-5.7v15.8c.1 3.8 2.4 6 6.2 6 4.4.3 9 .3 13.7 0 3.7 0 5.8-2.3 6-6V381zm28.7 15.2c0-3-1.4-4.6-2.5-5 .9-.3 2-1.6 2-4.2 0-3.8-2.5-5.9-6.1-6h-19v22h19.1c4.5-.2 6.5-2.5 6.5-6.8zm30.2 6.8l-12-22h-6.5l-12 22h6.6l2-4h13.1l2 4h6.7zm27.1 0v-5.6c-.1-2.5-1.4-4.5-2.6-4.8 1-.6 2.3-2 2.3-5 0-4.5-2.4-6.4-6.2-6.6h-19.2v22h5.7v-8h12c1.3.1 2 1 2.1 2.2.2 2.2.1 5.7.1 5.7h5.8zm28.4-22h-5.8v14.6c0 1.3-.8 1.9-1.9 2-3.4.2-7.1.2-10.7 0-1-.1-1.7-1-1.8-2V381h-5.7v15.8c.2 3.8 2.4 6 6.2 6 4.4.2 9 .3 13.7 0 3.7 0 5.8-2.3 6-6V381zm8.6-158.7c4-2 5.2-5.4 5-9.6a6.5 6.5 0 0 0-4-6 17.8 17.8 0 0 0-7.3-1.5h-15.3c-.6 0-.9.1-1 .8l-3.1 15.2-3.6 17.5c-.2 1 .3 1 1 1h19.3c2 0 3.9-.3 5.7-.8a9.5 9.5 0 0 0 7.1-8.4c.5-3.5-.5-6.4-3.8-8.2zm35.5-46.1c.7-5-.6-9.3-4.6-12.6-2.8-2.3-6.1-3.7-9.4-5.2-2.8-1.2-5.7-2.3-8.2-4.2-1.6-1.3-1.7-2.8-.2-4.3 2.4-2.6 9.7-1.6 10 2.6.1 1 .7 1.2 1.6 1.2h11.8c2.3 0 2.4-.1 2-2.4v-.1c-1.2-7-5.5-11-12-13a34.4 34.4 0 0 0-14.5-.6 21 21 0 0 0-8.5 3 14.1 14.1 0 0 0-7 11.6c-.4 4.8 1.3 8.6 5.2 11.5 2.9 2.1 6.1 3.7 9.4 5.2 2.4 1 4.9 2 7 3.6 2.7 2 1.5 5.3-.7 6.2-1.3.6-2.7.8-4 .7-4.5-.2-5.8-1.2-7-5.6-.2-.6-.7-.4-1-.5h-11.8c-3.4 0-3.5.3-3 3.6 1 6 4.4 10 10 12 7.4 2.8 15 2.9 22.6.6 6.7-2 11.3-6.1 12.3-13.4zm33.7 36c-.2-1.9-1-3.6-2.8-4.8-2.3-1.7-5-2.1-7.7-2.2h-17.3c-.5 0-.7 0-.8.6l-.8 4.2-3.1 15.3-2.6 13.3c-.2 1 0 1.2 1 1.2h8.2c1 0 1.3-.4 1.5-1.3l2.1-10.4c.1-.5.3-.7.8-.7 1.2 0 2.5-.2 3.7 0 3 .5 3.7.6 4 3.4.2 1 0 2-.3 3-.2 1.7-.8 3.3-.7 5 0 .5 0 1 .6 1h10.6c.7 0 1-.5.4-.9-1-.6-.8-1.6-.7-2.4l.7-4.3c.5-3.9.2-6-3.7-7.9l.6-.3c4.8-2.4 7-6.4 6.3-11.7zm4.7-73.7h-15.8c-.5 0-.6.2-.7.7l-2 9.8-8.1 39.8c-.2.7-.1 1 .7 1h14.6c.7 0 1-.3 1-1l3-14.6 7.3-35.7zm27.3 52.4c6 .4 11.4-.7 16.2-4.5.2-.2.4-.5.8-.3v2.5c-.1.9.2 1.2 1.1 1.2h5.9c1.1 0 2.5.3 3.3-.3.8-.5.6-2 .9-3.1l4.8-24h-.4l-21.1-.1c-1 0-1 .5-1 1.1l-1.8 8.3c-.2.8 0 1 .8.9h5.7c.2.3.1.4 0 .6-2 3.2-4.7 5-8.4 5.3-4.5.3-8.3-1.6-9-6.7-.8-5.7 0-11.2 3-16.2 2.5-4 6-6.2 10.9-5.8 3.3.2 6 2.2 6.8 5.4.1.8.5.9 1.1.9h11.4c2.8 0 2.9 0 2.5-2.8-1-5.8-3.8-10.5-9.2-13.2a31.2 31.2 0 0 0-20.1-2.2 25.5 25.5 0 0 0-15.8 9.6 32.9 32.9 0 0 0-6.4 27.8c1.6 8.3 8.5 15 18 15.6zm34 14.3h-9c-.8 0-1 .2-1.2.9l-.8 4.3-3.4 16.5c-.9 4-2.8 5.5-7 5.2-1.6 0-3.2-1.3-3.4-3-.1-1-.2-2 0-3l2.3-10.8 1.8-9.2c.1-.5.2-1-.7-1h-9.4c-.6 0-.8.2-.9.8l-2.9 14c-.6 3.2-1.4 6.3-1.3 9.6a11 11 0 0 0 6.7 9.9 20 20 0 0 0 8.3 1.4c1.4 0 2.8 0 4.1-.3 6.3-.8 10.3-4.2 12.4-10 1.1-3.4 1.6-6.9 2.3-10.3l2.9-14c.1-.8 0-1-.8-1zm66.3 0h-8.5c-.9 0-1 .4-1.2 1a22360.9 22360.9 0 0 0-3.7 19.5l-.7-2.5-7-17.5c-.3-.6-.7-.5-1.2-.5h-8c-.9 0-1.2.3-1.4 1.1l-1 5.5-3.7 17.7-1.8 8.9c-.2 1-.1 1.4 1.1 1.4h7.7c.9 0 1.3-.3 1.4-1.1l3.8-19.5c.2 1.2.3 2.3.8 3.4L790 239c.2.6.5.9 1.2.9h8.5c.7 0 1-.2 1-1l2.1-10c1.6-7.5 3-15 4.7-22.6.1-.8 0-1-.8-1zm17.4-16.7l-1.2-7.7-2.3-15-1.9-13-2-13.2c0-.9-.4-1-1.2-1H801c-.6 0-1 .1-1.3.7l-15.7 29-11.6 21.4h16c.7 0 .8-.4 1-.8l2-4.6c.3-.6.6-.8 1.2-.8h15c.6 0 .8.1.8.8l.4 4.5c0 .9.4 1 1 1H823c1 0 1.2-.4 1-1.3zm48.9 16.7h-8.6c-.7 0-1 .3-1 1l-.8 3.6c-1 5.4-2.2 10.8-3 16.2l-.7-2.9-7-17.1c-.2-.7-.6-.8-1.2-.8h-5.4c-1.2 0-2.8-.4-3.7.2-.8.5-.7 2.2-.9 3.4l-.2 1-3.1 15.4c-.9 4.5-1.7 8.9-2.7 13.3-.2 1.1.1 1.3 1.1 1.3h6.3c2.7 0 2.7 0 3.2-2.7l3.5-17.5c.1.9.3 1.8.6 2.6l6.8 16.7c.2.7.6.9 1.3.9h8.3c.8 0 1-.3 1.2-1.1l1.6-8.3 5.2-24.3c.1-.8-.1-1-.9-1zm10-51.8c-1-6.1-4-10.9-9.7-13.5a31.8 31.8 0 0 0-21-1.7c-8 1.9-13.6 7-17.5 14-3.7 6.7-4.7 14-3.6 21.5.7 4.9 2.8 9.2 6.6 12.5a20 20 0 0 0 12 4.7c5 .4 9.8-.5 14-3.2 1-.6 1.7-1.2 2.7-2v2.9c-.1.8.2 1.2 1.1 1.2h8.4c.8 0 1-.4 1.2-1.1l5.2-25.5c.1-.8 0-1-.7-1H861c-.5 0-.8.2-1 .7l-1.9 8.9c-.1.6 0 .8.7.8h5.1c.4 0 .8-.2 1 .2.1.4-.3.6-.5.9a10.7 10.7 0 0 1-7.8 4.8c-4.1.4-8.3-1.2-9.2-6.2-.9-5-.2-9.9 1.8-14.5 2-4.8 6-8.6 12-8 3 .2 6.2 2.4 6.7 5.3 0 .7.4 1 1.2 1h11.6c2.7 0 2.7 0 2.3-2.7zm-702.7 5c-.1-1.2 0-2.5-.5-4l-8.5 18.2c-.3.6 0 .7.6.7h9c.7 0 .8-.2.8-.8l-1.4-14zM661 213.7l-5-.1c-.6 0-1 0-1.2.8a100 100 0 0 1-1 4.8c-.1.8 0 1 1 1h2.4c1.4 0 2.7.1 4-.3l.6-.2c1.7-.7 2.5-2 2.3-3.6-.3-1.6-1-2.3-3-2.4zM429 731.4v-1.6h-1.3c.6.6 1 1.2 1.2 1.6zm-124.4-64.5zm-4.9 0h3.3-3.3zm5 2v-2 2zm-1.7-2h1.3-1.3zm1.6 2zm-4.9-.2l-38.8-1v41.9l38.8-.5v2.5-2.5h9v-40.2h-4l-5-.2zm-50.8 4.6zm114.7-4.2v0zm-179.8-12.7l193.8 7.5V728h-2.1l-1.1-.7v-57.7H372v39.3h-6.3l-.1 2.7h-2.8 2.8V709H363l-38.6.3V670l39.2.9 8.5.2v-1.6l-8.5-.4 8.6.4-8.6-.4-41.4-1.7v58.7a19.7 19.7 0 0 0-11.2 1.3l-.2-2.8c0-18.2 0-36.4.2-54.5 0-2.6-.8-3.4-3.2-3.3H304c-5.2 0-41.6-1.3-45.3-1.3v49.7h-9.7v-50.4l-11-.4v2.3l9.1.3v42h-3v2.8H238V709l-38.6.5v-43.9l38.6 1v-2.3l-41-1.3v65h-13.3v-71.7zm54.4 8l11 .4-11-.5v.1zm0 47.3h6.1V709h-6.1v2.7zm153.3 1.2v2.3h2.9v7.8h-3v4h3v1H409c2.6-1.4 5.6-2.2 8.5-2.2 3.6 0 6.2 1 8 2.2h3.5v-1h8.2v1h11v-15.3h-1l-55.8.2zm-192.3 15h45.1v-16.1h-45V728zm48.2-43.2l.5-3.7-.5 3.7zm1.5-11.4a92.4 92.4 0 0 1 0 0zm-68-29.7L142.4 657c-.5.2-1.2 1-1.2 1.4L141 669l.5.3 38.8-13.4c.6-.1 1.3-.9 1.3-1.4v-10.8c-.4 0-.6-.1-.8 0zm255.3 7.6h21.7v-17.5l8 1.6.1 15c0 .6.5 1.1.8 1.7.3-.5.9-1 1-1.6l-.1-16.2c0-.6-.6-1.6-1.2-1.7-3.3-1-6.7-1.8-10.4-2.8v8.9l-7 1.5-6.9 1.6q-6.8 1.5-6.3 8.6l.4 1zm-132.4 60.4h-4 4v-2.5 2.5zm332.1-97V600c-7.3 1.3-8 2-7.7 10 0 2.2 3 4 7.7 4.5zm7 2.6v-12.6c0-4.1-.3-4.4-5.2-4.6v12c0 4 .8 5 5.3 5.2zm-396 95.4c0-.5-.7-.9-1-1.3-.4.5-1 .9-1 1.3v13.6c0 .5.6 1 .9 1.4.4-.5 1-1 1-1.4.2-2.2.1-4.4.1-6.6v-7zm-103.2-42.2c-2.1.7-2.7 1.6-2.7 3.7l.2 45 .2 2.4 40.2 6.4v-70.5l-2.6.8c-11.7 4.1-23.5 8.3-35.3 12.2zm156 41.2l-38.8.3v3.3c5 0 9.3 0 13.7 3.7 2.6 2.4 4 5.5 4.4 9h4v-.9h7.7v1h1.9c1.2-1.3 3-2.2 5.9-2.2h.7v2.2h6.8v-16.3h-6.2zm24.4.3l38.9-.3v.1h6.3v14.1h-.7c-2.5 0-5 .8-7.2 2.2h-10.7v-1H342v1h-14.5c-1.1-.6-2.3-1.1-3.6-1.5V712zm18 11h8.6v-7.7H342v7.8zm29.2-10.2c0-.5-.6-1-1-1.4-.2.5-.7 1-.7 1.4v13.1l1.6.3v-13.5zM290.5 730h.2l.2-.3h-.4v.3zm17.6-3.8v-14.7l-.8-.5c-.4.5-1 1-1 1.5-.1 4.6-.1 9.1 0 13.7 0 .4.6.9.9 1.3.3-.5.8-.9.9-1.3zM517.9 675l366.6 11.3v-7L518 664.3V675zm156.4 56.4h.1v-1.7h-1.6l1.5 1.7zm-126.8-16.3h4.3v-32.8h11.5v45.5h4.6v-49.8h-20.4v37zm84.4 16.2h.1v-1.6h-1.3l1.2 1.6zm104 0h.1v-1.6h-1.6l1.5 1.7zm-39-1.2h.1l.2-.4h-.3v.4zm-222-49.8c.7 0 1.1.2 1.6.1l38.2-5c.5-.2 1.4-1 1.4-1.6v-9.5l-41.1 8v8zm86.5-16.7v-13.9c-1.6-.4-2.6-.3-2.5 1.7V662c0 2 1 2 2.5 1.6zm-18.8-15.4l-.5.8v13.8h2.5l-.1-12.9c0-.6-1.2-1.1-1.9-1.7zm235.6 83h.1v-1.5H777l1.2 1.6zm-208.8-68.8c0 .7 1.1 1.3 1.7 2l.8-.7v-13.5l-2.6.2.1 12zm-24 64.5v-49.4l-28-.8-1.7.1c-12.7 1.8-25.5 3.6-38.2 5.2-2.2.2-2.7 1-2.7 3V722l2.9-6.8h2.4v-15.8h10.4V713h-8.4v2.2h2.4L490 728h16.4v-1h8.5v1h14.6v-1h8.6v1h1.3v-15.2h-8.4v-13.4h10.5V728h1.3v-1h2.8zm-30.6 18.1c0 3 0 10.8 7.5 10.8 5.4 0 7.1-5 7.1-10.7v-15.4h-14.6v15.3zm53.6-17.6h4.5a18.8 18.8 0 0 1 15.3 0h25c2.4-1.1 4.9-1.7 7.4-1.7 3 0 5.3.7 7 1.7h4.4v-.5h8.3v.5H655c2.3-1.1 4.8-1.7 7.5-1.7s5 .7 6.8 1.7h5.1v-.5h7.8v.5h6.9v-.5h7.8v.5h2.4c1.2-1 2.8-1.7 5.4-1.7h.7v1.7h11.2c2.3-1.1 4.8-1.7 7.5-1.7s5 .7 6.8 1.7h5.1v-.5h7.8v.5h15.7c2.3-1.1 4.8-1.7 7.3-1.7 3 0 5.4.7 7 1.7h4.5v-.5h8.3v.5h15.2c2.3-1 5-1.7 7.9-1.7s5.5.6 7.8 1.7H878v-9.9H568.3v9.9zm210.1-42.7v31.3h32.8v-30.3l-32.8-1zm34.9 1.1V716h32.7V687l-32.7-1zM1024 517v224.3A283.5 283.5 0 0 1 741.3 1024H282.6A283.6 283.6 0 0 1 0 741.3V517h1024zm-578.3 71c7.4 7.2 15 14.2 22.3 21.5 2.2 2.1 4 4.7 7 4.8 8.5.4 15.6 1 24.1 1.7l41.1 3.1 33.6 2.6c14 1 26.2 1.5 40 2.6l30.7 2.2L668 628c-.7-.8-6.6-3.1-7.5-3.5-4.6-1.8-9.3-3.7-14-5.4a3 3 0 0 1-2-3v-14.5c0-.8-.6-2-1.2-2.2-3.6-1.2-7.3-2.6-11-.3-1.2.8-2.8.9-4 1.6-.9.5-1.7 1.6-1.8 2.5-.2 2.5 0 5 0 8L623 610c-2.7-1-5.2-2.5-8-2.8-13.1-1.7-26.3-3-39.5-4.6l-36.2-4-41.4-4.7-37-4.2-15.3-1.7zM165.9 739h-3.5l-4.6 17.7-4.6-17.7h-2.5l-4.6 17.8-4.6-17.8H138l6.7 23.7h3L152 746l4.4 16.6h3l6.6-23.7zm19.5 6H182v2.4a7 7 0 0 0-6-3c-6.4 0-9.5 5.1-9.5 9.5 0 4.6 3.5 9.2 9.5 9.2 2.4 0 4.7-1 6-3.2v2.8h3.4v-17.8zm7.8-6h-3.4v23.7h3.4v-23.7zm11.3 6h-3v-6h-3.2v6h-2.4v3h2.4v14.7h3.3v-14.7h2.9v-3zm19.2 8.5c0-5.1-4.2-9-9-9s-9.1 4-9.1 9.3c0 5 4 9.3 9 9.3a9 9 0 0 0 8.5-6h-3.3c-.8 1.5-2.6 3-5 3a6 6 0 0 1-5.9-4.9h14.7l.1-1.7zm11-9c-.7 0-3 0-4.4 2h-.1v-1.6h-3.1v17.8h3.3v-9.7c0-2.6 1-4 2-4.5.8-.4 1.9-.6 2.4-.6v-3.5zM458.6 933a6.9 6.9 0 0 0-3.3-3c-1.8-.8-3.7-1.1-5.7-1-2-.1-3.9.2-5.7 1a6.9 6.9 0 0 0-3.3 3 12.2 12.2 0 0 0 0 10 6.4 6.4 0 0 0 3.3 3c1.8.7 3.8 1 5.7 1 2 0 4-.4 5.7-1a7.1 7.1 0 0 0 3.3-3c1.5-3.2 1.5-6.8 0-10zm38.2 2.2c0-1.2-.2-2.5-.8-3.5-.5-1-1.2-1.5-2.2-2-1.2-.3-2.5-.5-3.8-.5H480v17.4h4v-5.4h5.9c2.3 0 4-.4 5.1-1.4 1.2-1 1.7-2.4 1.7-4.6zm34.8 8h-11v-3.7h9.8v-3.2h-9.8v-3.6h10.9v-3.4h-14.9v17.3h15v-3.4zm23.3-66.2c.3-.3.3-.8-.1-1l-.5-.1-9.5-.6h-1.1l.2-3.3a39.3 39.3 0 0 0-77.6-8.8h-8.8c-.5 0-1 .2-1.2.6l-2.2 3c-.3.4-.3.8 0 1.1.2.2.4.3.6.2l9.5.6h1.2l-.2 3.3a39.3 39.3 0 0 0 77.7 8.7h8.6c.5 0 1-.2 1.2-.6l2.2-3zm14.6 66h-10.5v-13.7h-4v17.3h14.5v-3.5zm290.8-180.5l-9-23.7h-3l-9 23.7h3.6l2.6-7h8.5l2.7 7h3.6zm24.9-11.8h-15v3.2h11a8.7 8.7 0 0 1-8.2 5.8c-4.4 0-8.8-3.8-8.8-9s3.9-9.2 8.8-9.2c3.5 0 5.5 2.1 6.5 3.2h4a12.2 12.2 0 0 0-10.6-6.4c-6.8 0-12.1 5.6-12.1 12.4s5.2 12.2 12.1 12.2c5.8 0 12.1-4.3 12.3-12.2zm1.2-66.6v-3.5c.3-2.3-.6-3-2.8-3L840 676l-73.5-3.1-66.1-2.8-27.4-1v-38l-200-14V726l-.8 2.3c-2 .1-1.7-1.4-1.7-2.7v-71c0-12.2 0-24.4-.2-36.5a6 6 0 0 0-1.8-3.7L444 590.2l-2-1.9c-2.1 8.6-4 17-6.2 25.2a64.6 64.6 0 0 0-2.8 19.7c.3 5.7 0 11.5 0 17.6h-3.8l-19-1-71-2.6-86.1-3.4-69.4-2.6c-.7 0-1.5.2-2.1.4l-39.6 13.7c-1.8.6-2.6 1.3-2.6 3.4l.1 61.7c0 1.9.5 2.7 2.6 3 7.6 1 15.1 2.4 22.7 3.6 6.6 1 13.2 2.7 19.7 2.7h64.3v32.9h8.7v-18h3.2c5 0 9.4 0 13.9-3.9a14 14 0 0 0 4.5-10.9h3.8v32.8h8.5v-20c0-2.1 0-8.2 7.8-8.5v-4.3h8c-4.5 3.6-7.1 9.1-7.1 15a18.5 18.5 0 0 0 36 6.6h-9c-1.7 2.9-4.5 4.5-8.3 4.5-6 0-9.4-5-9.8-7.3h27.6c.3-1.1.6-2.6.6-4.3a19 19 0 0 0-6.9-14.5h11.9v32.8h8.5v-32.8h8.6a10.2 10.2 0 0 0-2.7 7c0 5.9 4 8.9 8 10.2 6 2 8 2.7 8 5.3 0 1.5-1.1 3.6-3.9 3.6-3.5 0-4.3-3-4.6-4.5h-8.8c.2 2.1.6 5 2.7 7.6 2.8 3.5 7.1 4.7 10.7 4.7 6 0 12.4-4.4 12.4-12.4 0-7.2-5.5-9.3-10-10.6-4.5-1.5-6-2-6-4 0-1.5 1.2-3 3.3-3 1 0 2.8.2 3.4 3h8.3a11 11 0 0 0-2.7-6.9h8.4v32.7h8.5v-32.7h12.1c-4 3.3-7 8.4-7 14.6 0 12 9.6 19.3 18.3 19.3 7.2 0 10.5-4.1 11.6-5.7l.1.1c-.4 7.8-6 11.1-10.9 11.1-1.3 0-5.4 0-8.7-4h-9.8c3.1 8 10.6 11.8 18 11.8 6.6 0 19.3-3.9 19.3-21v-26.2h34.4L458 762.5h9.6l5.1-12.2h17l5 12.2h9.7l-13.7-32.7h15.6v15.8c0 3 0 8.7 2.6 12.5 1.8 2.4 5.5 5.6 12 5.6 5.4 0 7.7-2.8 9.1-4.7h.1v3.5h7.9v-32.7h4.7v4.8h4.2v28h8.5v-28h5.1v-4.8h8.4a18.9 18.9 0 0 0 11.6 33.9c9.9 0 18.9-7.4 18.9-19 0-6.2-2.9-11.5-7.2-14.9h17.2c-4.1 3.3-7 8.4-7 14.6 0 12 9.6 19.3 18.2 19.3 7.3 0 10.5-4.1 11.7-5.7l.1.1c-.4 7.8-6 11.1-10.9 11.1-1.3 0-5.4 0-8.7-4H603c3.1 8 10.6 11.8 17.9 11.8 6.7 0 19.4-3.9 19.4-21v-26.2h11c-4 3.4-6.6 8.6-6.6 14.7 0 11.9 8.2 19.2 17.3 19.2 4.5 0 9.7-2.4 12.4-5.6v4.4h7.8v-32.7h6.9v32.7h8.5v-20c0-2 0-8.1 7.8-8.5v-4.2h7.5c-4 3.4-6.6 8.6-6.6 14.7 0 11.9 8.2 19.2 17.3 19.2 4.5 0 9.7-2.4 12.4-5.6v4.4h7.8v-32.7h11.8c-4 3.3-6.9 8.4-6.9 14.6 0 12 9.6 19.3 18.2 19.3 7.2 0 10.5-4.1 11.7-5.7v.1c-.4 7.8-6 11-10.8 11-1.3 0-5.4 0-8.8-3.9h-9.7c3 8 10.6 11.8 17.9 11.8 6.7 0 19.4-4 19.4-21v-26.2H798c-4.4 3.6-7 9.1-7 15a18.5 18.5 0 0 0 36 6.5h-9c-1.7 3-4.5 4.6-8.3 4.6-6 0-9.4-5-9.8-7.3h27.6c.3-1.2.6-2.7.6-4.3a19 19 0 0 0-6.8-14.5h61.4v-41.7c3.7.9 3.9-1.3 3.6-3.9zm-38.2 32h32.7v-28.3l-32.7-.9v29.1zm-104.4-32.4V716h32.8v-31.3l-32.8-1zm-173.8-5.4V716h32.8v-36.7l-32.8-1zm34.8 1V716h32.7v-35.5l-32.7-1zm69.6 2.2v34.6H707v-33.6l-32.7-1zm34.7 1v33.5h32.7v-32.4l-32.7-1zm-69.6-2.1v35.6h32.9v-34.5l-33-1.1zm-25.6-14.8l-.1-11.6c0-.6-1-1.3-1.7-2l-.9.8v11c0 2 1 2.1 2.7 1.8zm-234 62.3h6v-1h3.4v-4h-3.5v-7.8h3.6l.3-44.6c3.7 0 58.5 1.9 62 1.9 0 9.8-1.1 46-1.1 55.6h18.3v-60.7l-89-3.4v64zm-196-73.2l285.1 11v-12L183.8 643v11.9zm267.8 17.7zm219.8-39.3l-196.4-14v16.3L671.4 647v-13.8zm-222.2 42.3c.7-1.6 1.4-2.7 2.1-3-.7.3-1.4 1.4-2.1 3zm-.1.3zm-.8 37c0-4.7 3.3-35.4 3.3-40.2v-.1c0 4.5-3.3 35.6-3.3 40.3zm-56.4-40.2v38l48-.5h8.3l.9-34.3v-1.3l-57.2-1.9zm48 40.2h8.4-8.4zm159.7-60.6v11.5c0 .6.9 1.2 1.3 1.8.5-.6 1.2-1.2 1.3-1.9V654c.1-2-.8-2.2-2.7-1.7zm21.2 13.8v-12.8l-2.5-.2v11.6c0 2 1.2 1.7 2.5 1.4zm-144.3 4.6l29-5.8c6.2-1.2 12.4-2.5 19-2 4.3.5 8.8.2 13.6.2v-15.7h10v16.6h4.6V648l21 1v16l22 .8v-15.6l28.5 1.5v15.4l47.2 1.9v-20.1L475 637.7v32.9h1.5z"/></svg>